<?xml version="1.0" encoding="UTF-8" standalone="no"?>
<!-- Created with Inkscape (http://www.inkscape.org/) -->

<svg
   xmlns:dc="http://purl.org/dc/elements/1.1/"
   xmlns:cc="http://creativecommons.org/ns#"
   xmlns:rdf="http://www.w3.org/1999/02/22-rdf-syntax-ns#"
   xmlns:svg="http://www.w3.org/2000/svg"
   xmlns="http://www.w3.org/2000/svg"
   xmlns:sodipodi="http://sodipodi.sourceforge.net/DTD/sodipodi-0.dtd"
   xmlns:inkscape="http://www.inkscape.org/namespaces/inkscape"
   version="1.1"
   width="156.44119"
   height="169.22659"
   viewBox="0 0 156.44119 169.22659"
   id="svg2"
   inkscape:version="0.48.5 r10040"
   sodipodi:docname="d20_14.svg">
  <sodipodi:namedview
     pagecolor="#ffffff"
     bordercolor="#666666"
     borderopacity="1"
     objecttolerance="10"
     gridtolerance="10"
     guidetolerance="10"
     inkscape:pageopacity="0"
     inkscape:pageshadow="2"
     inkscape:window-width="1680"
     inkscape:window-height="1001"
     id="namedview3369"
     showgrid="false"
     inkscape:zoom="4.6978432"
     inkscape:cx="78.220596"
     inkscape:cy="84.613297"
     inkscape:window-x="0"
     inkscape:window-y="1"
     inkscape:window-maximized="1"
     inkscape:current-layer="svg2" />
  <metadata
     id="metadata21">
    <rdf:RDF>
      <cc:Work
         rdf:about="">
        <dc:format>image/svg+xml</dc:format>
        <dc:type
           rdf:resource="http://purl.org/dc/dcmitype/StillImage" />
        <dc:title />
      </cc:Work>
    </rdf:RDF>
  </metadata>
  <defs
     id="defs19" />
  <g
     transform="translate(-37.3019,-75.296)"
     id="g3036">
    <g
       transform="translate(112.5,150)"
       id="widget">
      <path
         d="M 61.1112,45.8264 4.63537,94.5226 -53.0845,46.7585 z"
         id="path5"
         style="fill:#d3d3d3;fill-opacity:1" />
      <path
         d="m 4.60797,-74.704 5.41843,22.7464 -83.219,19.8238 z"
         id="path7"
         style="fill:#d3d3d3;fill-opacity:1" />
      <path
         d="m 3.44252,-74.704 -5.41846,22.7465 83.21904,19.8237 z"
         id="path9"
         style="fill:#d3d3d3;fill-opacity:1" />
      <path
         d="M -53.4025,46.9333 -75.1981,-32.1548 3.9369,-55.0094 z"
         id="path11"
         style="fill:#f0f0f0;fill-opacity:1" />
      <path
         d="M 62.2343,46.0943 81.1564,-32.4527 3.23229,-55.0429 z"
         id="path13"
         style="fill:#f0f0f0;fill-opacity:1" />
      <path
         d="M -53.5597,46.8415 3.67051,-54.4309 62.579,46.143 z"
         id="path15"
         style="fill:#f8f8f8;fill-opacity:1" />
    </g>
  </g>
  <g
     id="text3045"
     style="font-size:41.2510643px;font-style:normal;font-variant:normal;font-weight:500;font-stretch:normal;line-height:125%;letter-spacing:0px;word-spacing:0px;fill:#000000;fill-opacity:1;stroke:none;font-family:Futura;-inkscape-font-specification:Futura Medium">
    <path
       d="m 65.879851,74.701597 -5.377947,0 2.578192,-4.390983 7.492869,0 0,31.099436 -4.693114,0 0,-26.708453"
       id="path3620" />
    <path
       d="m 97.281418,92.728795 3.303312,0 0,4.27013 -3.303312,0 0,4.411125 -4.693114,0 0,-4.411125 -15.267728,0 19.960842,-29.004655 0,24.734525 m -4.693114,0 0,-10.413476 -7.170595,10.413476 7.170595,0"
       id="path3622" />
  </g>
  <g
     transform="matrix(0.46437163,0.12673857,-0.34061348,0.64838658,88.360402,-19.211369)"
     id="text3404"
     style="font-size:12px;font-style:normal;font-variant:normal;font-weight:500;font-stretch:normal;line-height:125%;letter-spacing:0px;word-spacing:0px;fill:#808080;fill-opacity:1;stroke:none;font-family:Futura;-inkscape-font-specification:Futura Medium">
    <path
       d="m -19.480168,117.52376 c 0,0 -0.06852,-6.16927 -0.06852,-6.16927 0,0 5.912691,-0.79955 5.912691,-0.79955 0,0 0.07883,6.39277 0.07883,6.39277 0,0 6.5890189,-0.64083 6.5890189,-0.64083 0,0 0.1296193,9.46692 0.1296193,9.46692 0,0 -6.6062892,0.2854 -6.6062892,0.2854 0,0 0.368436,29.88016 0.368436,29.88016 0,0 -33.911529,-35.74029 -33.911529,-35.74029 0,0 27.507749,-2.67531 27.507749,-2.67531 m 0.09765,8.79195 c 0,0 -12.866659,0.55586 -12.866659,0.55586 0,0 13.016548,12.93912 13.016548,12.93912 0,0 -0.149889,-13.49498 -0.149889,-13.49498"
       id="path3409"
       style="fill:#808080" />
  </g>
  <g
     transform="matrix(-0.39579741,0.46584018,-0.31974094,-0.39091289,155.74839,122.70579)"
     id="text3443"
     style="font-size:12px;font-style:normal;font-variant:normal;font-weight:500;font-stretch:normal;line-height:125%;letter-spacing:0px;word-spacing:0px;fill:#808080;fill-opacity:1;stroke:none;font-family:Futura;-inkscape-font-specification:Futura Medium">
    <path
       d="m -46.950086,127.16465 c 0,0 2.448301,-6.19131 2.448301,-6.19131 0,0 10.79081,13.19298 10.79081,13.19298 -0.06754,-0.76919 -0.118785,-1.42235 -0.153782,-1.95989 -0.0349,-0.53717 -0.05362,-0.95911 -0.05615,-1.26609 -0.03891,-4.80388 1.033436,-9.0333 3.264177,-12.7745 2.263412,-3.82005 5.102453,-5.9992 8.579939,-6.46949 3.858793,-0.52176 7.349408,1.191 10.415201,5.26984 3.1625885,4.2077 4.8335229,9.5725 4.9213238,15.98515 0.087202,6.36892 -1.4218296,11.8586 -4.4490568,16.34074 -2.928293,4.24646 -6.30893,6.05669 -10.079844,5.55302 -3.238744,-0.43256 -6.551696,-2.89882 -9.918689,-7.26019 0,0 -15.762252,-20.42026 -15.762252,-20.42026 m 25.374324,-6.13832 c -2.172922,0.16674 -3.95357,1.44917 -5.36707,3.8193 -1.40529,2.3565 -2.084234,5.11686 -2.055104,8.31495 0.02944,3.22884 0.752267,5.99772 2.188971,8.33687 1.464777,2.38484 3.261497,3.67329 5.411443,3.83345 2.209037,0.1646 4.123866,-0.90672 5.720734,-3.24978 1.627027,-2.38726 2.429934,-5.39446 2.385623,-8.98369 -0.04316,-3.49653 -0.917342,-6.44581 -2.596205,-8.81438 -1.663707,-2.34713 -3.565408,-3.41956 -5.688392,-3.25672"
       id="path3448"
       style="fill:#808080" />
  </g>
  <g
     transform="matrix(0.65332756,0.55541144,-0.61671615,0.71336622,84.5345,119.42566)"
     id="text3486"
     style="font-size:12px;font-style:normal;font-variant:normal;font-weight:500;font-stretch:normal;line-height:125%;letter-spacing:0px;word-spacing:0px;fill:#808080;fill-opacity:1;stroke:none;font-family:Futura;-inkscape-font-specification:Futura Medium">
    <path
       d="m 25.757255,30.402835 c 0,0 1.149787,-8.663635 1.149787,-8.663635 0,0 3.551314,-0.345644 3.551314,-0.345644 0,0 -2.255683,14.953839 -2.255683,14.953839 0,0 -9.244133,-6.178855 -9.244133,-6.178855 -0.999096,-0.656049 -1.878581,-1.207896 -2.633105,-1.651622 -0.761763,-0.458669 -1.40969,-0.803085 -1.940151,-1.030614 -1.047212,-0.472391 -2.014241,-0.663427 -2.894403,-0.568167 -1.275517,0.138082 -2.3685991,0.655428 -3.2696791,1.548959 -0.8979567,0.890499 -1.3632544,1.912744 -1.3978644,3.058241 -0.070867,2.347939 1.4872569,3.456353 4.6201355,3.371519 0,0 -0.185594,3.287963 -0.185594,3.287963 -5.467575,0.248908 -8.2611474,-1.729366 -8.2193958,-6.096893 0.020942,-2.18631 0.8641954,-4.150916 2.5378976,-5.863037 1.6855373,-1.73475 3.7405219,-2.724391 6.1306172,-2.957382 1.50354,-0.146536 2.938956,0.07367 4.299822,0.652636 0.700768,0.288428 1.51899,0.729183 2.449608,1.31812 0.90814,0.572074 1.964427,1.296287 3.160689,2.165834 0,0 4.140138,2.998738 4.140138,2.998738"
       id="path3491"
       style="fill:#808080" />
    <path
       d="M 17.767184,18.316986 C 13.341098,18.690057 9.7655022,18.000735 7.0562952,16.192376 4.5171072,14.517065 3.2278987,12.289752 3.2545832,9.4969526 3.2820772,6.6260516 4.6855383,4.0624604 7.4724142,1.8604898 10.566998,-0.60803363 14.673651,-1.9050106 19.667311,-2.0194948 c 4.833861,-0.1107723 8.415955,0.9476123 10.784132,3.1106372 2.070401,1.868594 2.875344,4.120325 2.473237,6.7504825 -0.39214,2.5649701 -1.829403,4.7925631 -4.312334,6.7249691 -2.733957,2.123134 -6.315527,3.368593 -10.845162,3.750392 m 0.349415,-3.950065 c 3.070857,-0.222386 5.636346,-0.919369 7.735996,-2.092304 C 27.913589,11.106231 29.05296,9.7086547 29.276076,8.0607229 29.501153,6.3983444 28.705869,5.0456781 26.855726,4.0049878 24.974232,2.9393296 22.446289,2.4549099 19.25917,2.5723085 16.009149,2.6920648 13.22847,3.3930351 10.962465,4.6751576 8.7058055,5.9589961 7.5490041,7.4964073 7.4956412,9.2628717 7.4436128,10.98693 8.4796275,12.32813 10.565827,13.290907 c 2.025557,0.941438 4.544626,1.293725 7.550772,1.076014"
       id="path3493"
       style="fill:#808080" />
  </g>
  <g
     transform="matrix(-0.33182903,-0.11642741,0.36985554,-0.22279969,62.300353,16.36325)"
     id="text3537"
     style="font-size:12px;font-style:normal;font-variant:normal;font-weight:500;font-stretch:normal;line-height:125%;letter-spacing:0px;word-spacing:0px;fill:#808080;fill-opacity:1;stroke:none;font-family:Futura;-inkscape-font-specification:Futura Medium">
    <path
       d="m -9.9730543,19.571262 c 0,0 0.1822633,5.278252 0.1822633,5.278252 0,0 -4.920222,-2.067934 -4.920222,-2.067934 0,0 -0.413123,-7.739287 -0.413123,-7.739287 0,0 30.735675,-1.595689 30.735675,-1.595689 0,0 -0.261273,4.198158 -0.261273,4.198158 0,0 -25.3233203,1.9265 -25.3233203,1.9265"
       id="path3542"
       style="fill:#808080" />
    <path
       d="m -10.700563,-1.4970077 c 0,0 0.212594,6.1566075 0.212594,6.1566075 0,0 -5.349966,-2.9893736 -5.349966,-2.9893736 0,0 -0.484909,-9.0841118 -0.484909,-9.0841118 0,0 33.113124,1.9203645 33.113124,1.9203645 0,0 -0.299383,4.81050993 -0.299383,4.81050993 0,0 -27.19146,-0.81399653 -27.19146,-0.81399653"
       id="path3544"
       style="fill:#808080" />
  </g>
  <g
     transform="matrix(-0.20664511,0.09152752,-0.16693616,-0.1515739,114.4327,39.067645)"
     id="text3443-8"
     style="font-size:12px;font-style:normal;font-variant:normal;font-weight:500;font-stretch:normal;line-height:125%;letter-spacing:0px;word-spacing:0px;fill:#808080;fill-opacity:1;stroke:none;font-family:Futura;-inkscape-font-specification:Futura Medium">
    <path
       d="m -46.950086,127.16465 c 0,0 2.448301,-6.19131 2.448301,-6.19131 0,0 10.79081,13.19298 10.79081,13.19298 -0.06754,-0.76919 -0.118785,-1.42235 -0.153782,-1.95989 -0.0349,-0.53717 -0.05362,-0.95911 -0.05615,-1.26609 -0.03891,-4.80388 1.033436,-9.0333 3.264177,-12.7745 2.263412,-3.82005 5.102453,-5.9992 8.579939,-6.46949 3.858793,-0.52176 7.349408,1.191 10.415201,5.26984 3.1625885,4.2077 4.8335229,9.5725 4.9213238,15.98515 0.087202,6.36892 -1.4218296,11.8586 -4.4490568,16.34074 -2.928293,4.24646 -6.30893,6.05669 -10.079844,5.55302 -3.238744,-0.43256 -6.551696,-2.89882 -9.918689,-7.26019 0,0 -15.762252,-20.42026 -15.762252,-20.42026 m 25.374324,-6.13832 c -2.172922,0.16674 -3.95357,1.44917 -5.36707,3.8193 -1.40529,2.3565 -2.084234,5.11686 -2.055104,8.31495 0.02944,3.22884 0.752267,5.99772 2.188971,8.33687 1.464777,2.38484 3.261497,3.67329 5.411443,3.83345 2.209037,0.1646 4.123866,-0.90672 5.720734,-3.24978 1.627027,-2.38726 2.429934,-5.39446 2.385623,-8.98369 -0.04316,-3.49653 -0.917342,-6.44581 -2.596205,-8.81438 -1.663707,-2.34713 -3.565408,-3.41956 -5.688392,-3.25672"
       id="path3448-5"
       style="fill:#808080" />
  </g>
</svg>
