<?xml version="1.0" encoding="UTF-8" standalone="no"?>
<!-- Created with Inkscape (http://www.inkscape.org/) -->

<svg
   xmlns:dc="http://purl.org/dc/elements/1.1/"
   xmlns:cc="http://creativecommons.org/ns#"
   xmlns:rdf="http://www.w3.org/1999/02/22-rdf-syntax-ns#"
   xmlns:svg="http://www.w3.org/2000/svg"
   xmlns="http://www.w3.org/2000/svg"
   xmlns:sodipodi="http://sodipodi.sourceforge.net/DTD/sodipodi-0.dtd"
   xmlns:inkscape="http://www.inkscape.org/namespaces/inkscape"
   sodipodi:docname="d20_07.svg"
   inkscape:version="0.48.5 r10040"
   id="svg2"
   viewBox="0 0 156.44119 169.22659"
   height="169.22659"
   width="156.44119"
   version="1.1">
  <sodipodi:namedview
     pagecolor="#ffffff"
     bordercolor="#666666"
     borderopacity="1"
     objecttolerance="10"
     gridtolerance="10"
     guidetolerance="10"
     inkscape:pageopacity="0"
     inkscape:pageshadow="2"
     inkscape:window-width="1680"
     inkscape:window-height="1001"
     id="namedview27"
     showgrid="false"
     inkscape:zoom="4.6978432"
     inkscape:cx="78.220596"
     inkscape:cy="84.613297"
     inkscape:window-x="0"
     inkscape:window-y="1"
     inkscape:window-maximized="1"
     inkscape:current-layer="svg2" />
  <metadata
     id="metadata21">
    <rdf:RDF>
      <cc:Work
         rdf:about="">
        <dc:format>image/svg+xml</dc:format>
        <dc:type
           rdf:resource="http://purl.org/dc/dcmitype/StillImage" />
        <dc:title />
      </cc:Work>
    </rdf:RDF>
  </metadata>
  <defs
     id="defs19" />
  <g
     transform="translate(-37.3019,-75.296)"
     id="g3036">
    <g
       transform="translate(112.5,150)"
       id="widget">
      <path
         d="M 61.1112,45.8264 4.63537,94.5226 -53.0845,46.7585 z"
         id="path5"
         style="fill:#d3d3d3;fill-opacity:1" />
      <path
         d="m 4.60797,-74.704 5.41843,22.7464 -83.219,19.8238 z"
         id="path7"
         style="fill:#d3d3d3;fill-opacity:1" />
      <path
         d="m 3.44252,-74.704 -5.41846,22.7465 83.21904,19.8237 z"
         id="path9"
         style="fill:#d3d3d3;fill-opacity:1" />
      <path
         d="M -53.4025,46.9333 -75.1981,-32.1548 3.9369,-55.0094 z"
         id="path11"
         style="fill:#f0f0f0;fill-opacity:1" />
      <path
         d="M 62.2343,46.0943 81.1564,-32.4527 3.23229,-55.0429 z"
         id="path13"
         style="fill:#f0f0f0;fill-opacity:1" />
      <path
         d="M -53.5597,46.8415 3.67051,-54.4309 62.579,46.143 z"
         id="path15"
         style="fill:#f8f8f8;fill-opacity:1" />
    </g>
  </g>
  <g
     style="font-size:41.2510643px;font-style:normal;font-variant:normal;font-weight:500;font-stretch:normal;line-height:125%;letter-spacing:0px;word-spacing:0px;fill:#000000;fill-opacity:1;stroke:none;font-family:Futura;-inkscape-font-specification:Futura Medium"
     id="text3045-7">
    <path
       d="m 84.963151,74.595556 -15.348296,0 0,-4.390983 23.183581,0 -19.618426,32.166967 -3.726292,-2.35663 15.509433,-25.419354"
       style=""
       id="path4687" />
  </g>
  <g
     id="text4389"
     style="font-size:12px;font-style:normal;font-variant:normal;font-weight:500;font-stretch:normal;line-height:125%;letter-spacing:0px;word-spacing:0px;fill:#808080;fill-opacity:1;stroke:none;font-family:Futura;-inkscape-font-specification:Futura Medium"
     transform="matrix(0.8463469,0.53263208,-0.53263208,0.8463469,124.14693,-51.213769)">
    <path
       id="path4394"
       d="m -33.335135,155.74423 c 0,0 -0.07405,4.31872 -0.07405,4.31872 0,0 -2.864309,-2.60429 -2.864309,-2.60429 0,0 0.10395,-5.81605 0.10395,-5.81605 0,0 25.67256,3.01502 25.67256,3.01502 0,0 -0.05382,4.70719 -0.05382,4.70719 0,0 -22.784329,-3.62059 -22.784329,-3.62059"
       inkscape:connector-curvature="0"
       style="fill:#808080" />
    <path
       id="path4396"
       d="m -32.88763,129.64362 c 0,0 -0.130398,7.60541 -0.130398,7.60541 0,0 3.633232,1.10338 3.633232,1.10338 -0.01669,-0.18813 -0.02867,-0.36526 -0.03587,-0.5314 -0.007,-0.17718 -0.0094,-0.33786 -0.0071,-0.48209 0.04053,-2.49452 0.830622,-4.60552 2.406792,-6.37635 1.616267,-1.83783 3.744718,-2.95014 6.451028,-3.30644 2.954988,-0.38898 5.505634,0.31492 7.583746,2.18251 2.162155,1.94316 3.2575443,4.60957 3.2198684,7.9439 -0.046539,4.11873 -2.1243954,7.30267 -6.0244564,9.43134 0,0 -2.781659,-3.43476 -2.781659,-3.43476 1.560802,-0.88317 2.693133,-1.80154 3.368892,-2.74412 0.670518,-0.95358 1.017264,-2.12443 1.03437,-3.5035 0.02237,-1.80293 -0.6077,-3.2731 -1.867218,-4.39133 -1.267433,-1.08853 -2.775244,-1.54143 -4.502857,-1.38242 -1.717552,0.15811 -3.088226,0.83511 -4.138355,2.01688 -1.061286,1.16046 -1.596317,2.53929 -1.621302,4.1552 -0.02782,1.80083 0.676451,3.35624 2.146106,4.69534 0,0 -0.02023,1.35787 -0.02023,1.35787 0,0 -11.786557,-4.09265 -11.786557,-4.09265 0,0 0.176534,-9.8772 0.176534,-9.8772 0,0 2.895324,-0.36956 2.895324,-0.36956"
       inkscape:connector-curvature="0"
       style="fill:#808080" />
  </g>
  <g
     transform="matrix(-0.84967603,0.52730508,-0.52730508,-0.84967603,185.9283,192.82006)"
     style="font-size:12px;font-style:normal;font-variant:normal;font-weight:500;font-stretch:normal;line-height:125%;letter-spacing:0px;word-spacing:0px;fill:#808080;fill-opacity:1;stroke:none;font-family:Futura;-inkscape-font-specification:Futura Medium"
     id="text4438">
    <path
       inkscape:connector-curvature="0"
       d="m -33.39245,156.01182 c 0,0 -0.06933,4.04027 -0.06933,4.04027 0,0 -2.814103,-2.46518 -2.814103,-2.46518 0,0 0.09731,-5.4447 0.09731,-5.4447 0,0 25.095595,3.08996 25.095595,3.08996 0,0 -0.05077,4.38452 -0.05077,4.38452 0,0 -22.25871,-3.60487 -22.25871,-3.60487"
       id="path4443"
       style="fill:#808080" />
    <path
       inkscape:connector-curvature="0"
       d="m -33.033535,135.09434 c 0,0 -0.19615,11.43155 -0.19615,11.43155 0,0 -2.84558,-0.16338 -2.84558,-0.16338 0,0 0.298558,-16.70448 0.298558,-16.70448 0,0 25.9342333,14.86381 25.9342333,14.86381 0,0 -2.4759253,3.35285 -2.4759253,3.35285 0,0 -20.715136,-12.78035 -20.715136,-12.78035"
       id="path4445"
       style="fill:#808080" />
  </g>
  <g
     transform="matrix(-0.55579114,0.49054817,-0.5888667,-0.46299498,21.335929,196.06067)"
     id="text4493"
     style="font-size:12px;font-style:normal;font-variant:normal;font-weight:500;font-stretch:normal;line-height:125%;letter-spacing:0px;word-spacing:0px;fill:#808080;fill-opacity:1;stroke:none;font-family:Futura;-inkscape-font-specification:Futura Medium">
    <path
       inkscape:connector-curvature="0"
       id="path4498"
       d="m -117.97699,-0.34227891 c 0,0 0.0983,6.73193731 0.0983,6.73193731 0,0 -6.33653,-4.0210047 -6.33653,-4.0210047 0,0 0.23789,-9.0964205 0.23789,-9.0964205 0,0 35.258317,5.73179484 35.258317,5.73179484 0,0 0.97755,4.68062576 0.97755,4.68062576 0,0 -30.235537,-4.02693271 -30.235537,-4.02693271"
       style="fill:#808080" />
  </g>
  <g
     style="font-size:12px;font-style:normal;font-variant:normal;font-weight:500;font-stretch:normal;line-height:125%;letter-spacing:0px;word-spacing:0px;fill:#808080;fill-opacity:1;stroke:none;font-family:Futura;-inkscape-font-specification:Futura Medium"
     id="text4550"
     transform="matrix(0.44967601,-0.89319174,0.89319174,0.44967601,50.747066,220.12147)">
    <path
       d="m 201.30962,-33.978149 c 0,0 -0.0377,3.000763 -0.0377,3.000763 0,0 -1.08683,-0.960671 -1.08683,-0.960671 0,0 0.0528,-4.355454 0.0528,-4.355454 0,0 6.33172,-1.771418 6.33172,-1.771418 0,0 -0.031,2.125536 -0.031,2.125536 0,0 -5.22898,1.961244 -5.22898,1.961244"
       id="path4555"
       inkscape:connector-curvature="0"
       style="fill:#808080" />
    <path
       d="m 203.82013,-41.821843 c -1.03703,0.101873 -1.92059,-0.448156 -2.61135,-1.705247 -0.65773,-1.184342 -0.98856,-2.665605 -0.96762,-4.400786 0.021,-1.737533 0.38745,-3.134869 1.07433,-4.153153 0.72298,-1.084608 1.63641,-1.404641 2.69757,-1.025597 0.97484,0.34821 1.68529,1.159739 2.17115,2.411694 0.42144,1.075826 0.61625,2.264652 0.59676,3.596861 -0.0195,1.330824 -0.24791,2.467878 -0.69794,3.439425 -0.51807,1.115566 -1.25821,1.738141 -2.2629,1.836803 m 0.036,-2.36561 c 0.67418,-0.0022 1.21118,-0.295884 1.62712,-0.866081 0.3952,-0.551518 0.59421,-1.254886 0.60669,-2.124006 0.0124,-0.863416 -0.16593,-1.616542 -0.54449,-2.275492 -0.38937,-0.681377 -0.90687,-1.113986 -1.56843,-1.286763 -0.69888,-0.182487 -1.31391,-0.0142 -1.8295,0.527872 -0.53253,0.5639 -0.81316,1.377183 -0.82623,2.422617 -0.013,1.036955 0.24616,1.913827 0.76176,2.610239 0.49288,0.669715 1.08879,0.993896 1.77308,0.991614"
       id="path4557"
       inkscape:connector-curvature="0"
       style="fill:#808080" />
  </g>
  <g
     transform="matrix(-0.5122487,-0.85883716,0.85883716,-0.5122487,158.13195,185.0129)"
     id="text4615"
     style="font-size:12px;font-style:normal;font-variant:normal;font-weight:500;font-stretch:normal;line-height:125%;letter-spacing:0px;word-spacing:0px;fill:#808080;fill-opacity:1;stroke:none;font-family:Futura;-inkscape-font-specification:Futura Medium">
    <path
       inkscape:connector-curvature="0"
       id="path4620"
       d="m 192.93007,12.550884 c 0,0 -0.0529,3.176053 -0.0529,3.176053 0,0 -1.09157,-1.033455 -1.09157,-1.033455 0,0 0.0743,-4.613977 0.0743,-4.613977 0,0 6.38745,-1.7648506 6.38745,-1.7648506 0,0 -0.0433,2.2477536 -0.0433,2.2477536 0,0 -5.274,1.988476 -5.274,1.988476"
       style="fill:#808080" />
    <path
       inkscape:connector-curvature="0"
       id="path4622"
       d="m 197.67792,0.21329828 c 0,0 0.10955,-5.79865968 0.10955,-5.79865968 0,0 0.72268,0.2486378 0.72268,0.2486378 0,0 -0.19445,10.1007371 -0.19445,10.1007371 0,0 -2.19357,-5.48351916 -2.19357,-5.48351916 -0.24475,-0.60341744 -0.46133,-1.11894124 -0.64797,-1.54173884 -0.18951,-0.4370661 -0.35128,-0.7769546 -0.48406,-1.0162822 -0.26402,-0.4928803 -0.50936,-0.770151 -0.73455,-0.8243837 -0.33123,-0.079769 -0.62042,0.1538425 -0.86427,0.709272 -0.24799,0.5648935 -0.38109,1.3050337 -0.39614,2.2126202 -0.0314,1.89360213 0.40255,2.9829 1.25854,3.256786 0,0 -0.046,2.6718609 -0.046,2.6718609 -1.54808,-0.3032383 -2.36412,-2.3007476 -2.30526,-5.9745675 0.0285,-1.7786486 0.29062,-3.2170496 0.77445,-4.2867695 0.46884,-1.0443487 1.01538,-1.4455317 1.62865,-1.2353638 0.37583,0.1287929 0.72938,0.5048718 1.06177,1.1181367 0.1696,0.3061488 0.36715,0.7349307 0.59115,1.2814862 0.21724,0.5282809 0.46892,1.1804916 0.7526,1.9491326 0,0 0.96687,2.61261488 0.96687,2.61261488"
       style="fill:#808080" />
  </g>
</svg>
