<?xml version="1.0" encoding="UTF-8" standalone="no"?>
<!-- Created with Inkscape (http://www.inkscape.org/) -->

<svg
   xmlns:dc="http://purl.org/dc/elements/1.1/"
   xmlns:cc="http://creativecommons.org/ns#"
   xmlns:rdf="http://www.w3.org/1999/02/22-rdf-syntax-ns#"
   xmlns:svg="http://www.w3.org/2000/svg"
   xmlns="http://www.w3.org/2000/svg"
   xmlns:sodipodi="http://sodipodi.sourceforge.net/DTD/sodipodi-0.dtd"
   xmlns:inkscape="http://www.inkscape.org/namespaces/inkscape"
   version="1.1"
   width="156.44119"
   height="169.22659"
   viewBox="0 0 156.44119 169.22659"
   id="svg2"
   inkscape:version="0.48.5 r10040"
   sodipodi:docname="d20_17.svg">
  <sodipodi:namedview
     pagecolor="#ffffff"
     bordercolor="#666666"
     borderopacity="1"
     objecttolerance="10"
     gridtolerance="10"
     guidetolerance="10"
     inkscape:pageopacity="0"
     inkscape:pageshadow="2"
     inkscape:window-width="1680"
     inkscape:window-height="1001"
     id="namedview3452"
     showgrid="false"
     inkscape:zoom="4.6978432"
     inkscape:cx="78.220596"
     inkscape:cy="84.613297"
     inkscape:window-x="0"
     inkscape:window-y="1"
     inkscape:window-maximized="1"
     inkscape:current-layer="svg2" />
  <metadata
     id="metadata21">
    <rdf:RDF>
      <cc:Work
         rdf:about="">
        <dc:format>image/svg+xml</dc:format>
        <dc:type
           rdf:resource="http://purl.org/dc/dcmitype/StillImage" />
        <dc:title />
      </cc:Work>
    </rdf:RDF>
  </metadata>
  <defs
     id="defs19" />
  <g
     transform="translate(-37.3019,-75.296)"
     id="g3036">
    <g
       transform="translate(112.5,150)"
       id="widget">
      <path
         d="M 61.1112,45.8264 4.63537,94.5226 -53.0845,46.7585 z"
         id="path5"
         style="fill:#d3d3d3;fill-opacity:1" />
      <path
         d="m 4.60797,-74.704 5.41843,22.7464 -83.219,19.8238 z"
         id="path7"
         style="fill:#d3d3d3;fill-opacity:1" />
      <path
         d="m 3.44252,-74.704 -5.41846,22.7465 83.21904,19.8237 z"
         id="path9"
         style="fill:#d3d3d3;fill-opacity:1" />
      <path
         d="M -53.4025,46.9333 -75.1981,-32.1548 3.9369,-55.0094 z"
         id="path11"
         style="fill:#f0f0f0;fill-opacity:1" />
      <path
         d="M 62.2343,46.0943 81.1564,-32.4527 3.23229,-55.0429 z"
         id="path13"
         style="fill:#f0f0f0;fill-opacity:1" />
      <path
         d="M -53.5597,46.8415 3.67051,-54.4309 62.579,46.143 z"
         id="path15"
         style="fill:#f8f8f8;fill-opacity:1" />
    </g>
  </g>
  <g
     id="text3045"
     style="font-size:41.2510643px;font-style:normal;font-variant:normal;font-weight:500;font-stretch:normal;line-height:125%;letter-spacing:0px;word-spacing:0px;fill:#000000;fill-opacity:1;stroke:none;font-family:Futura;-inkscape-font-specification:Futura Medium"
     transform="translate(0,-2)">
    <path
       d="m 65.879851,74.701597 -5.377947,0 2.578192,-4.390983 7.492869,0 0,31.099436 -4.693114,0 0,-26.708453"
       id="path3542"
       inkscape:connector-curvature="0" />
    <path
       d="m 93.89754,74.701597 -15.348296,0 0,-4.390983 23.183586,0 -19.618431,32.166966 -3.726292,-2.35663 15.509433,-25.419353"
       id="path3544"
       inkscape:connector-curvature="0" />
  </g>
  <g
     transform="matrix(0.41862274,0.36356661,-0.30648031,0.49659716,201.30115,36.431118)"
     id="text3021"
     style="font-size:12px;font-style:normal;font-variant:normal;font-weight:500;font-stretch:normal;line-height:125%;letter-spacing:0px;word-spacing:0px;fill:#808080;fill-opacity:1;stroke:none;font-family:Futura;-inkscape-font-specification:Futura Medium">
    <path
       d="m -95.032051,109.26051 c 0,0 -4.666493,-0.55051 -4.666493,-0.55051 -0.0913,-2.51835 -0.381506,-4.13415 -0.863576,-4.95595 -0.8117,-1.40304 -2.03015,-2.11996 -3.64902,-2.20527 -1.21763,-0.0641 -2.21416,0.33265 -3.01877,1.19718 -0.82538,0.86029 -1.30953,2.04734 -1.44969,3.60457 -0.13651,1.51726 0.0544,2.77595 0.59174,3.75297 0.5736,0.98068 1.63927,1.83432 3.23273,2.55687 0,0 -0.23464,7.15914 -0.23464,7.15914 -3.26116,-1.54699 -5.38269,-3.55345 -6.4937,-5.95949 -1.03705,-2.22129 -1.29009,-4.9037 -0.8482,-7.96867 0.41023,-2.84506 1.36299,-4.96687 2.85729,-6.509097 1.45041,-1.508254 3.19731,-2.240006 5.33147,-2.219775 2.51936,0.02392 4.615033,1.115799 6.314741,3.442722 1.334383,-2.586344 3.712866,-3.818942 7.358969,-3.799779 3.168239,0.01669 6.181492,1.036697 9.12766,3.222899 3.281976,2.43541 5.859326,5.83121 7.597632,10.37673 2.571255,6.72362 2.024507,12.00911 -2.036493,14.92629 -1.721743,1.2133 -4.432746,1.58915 -7.993145,1.14091 0,0 -1.85007,-9.07521 -1.85007,-9.07521 2.271071,-0.0247 3.87422,-0.77356 4.747053,-2.22361 0.827091,-1.4469 0.868197,-3.40796 0.170744,-5.78834 -0.660671,-2.25487 -1.890244,-4.07142 -3.636203,-5.48508 -1.678599,-1.33292 -3.471845,-2.01813 -5.40414,-2.11134 -2.459315,-0.11858 -4.038836,0.64839 -4.836027,2.33961 -0.469623,1.0184 -0.592625,2.69455 -0.349862,5.13223"
       id="path3026"
       inkscape:connector-curvature="0"
       style="fill:#808080" />
  </g>
  <g
     transform="matrix(0.41035059,-0.7907135,0.77185804,-0.07585782,56.465801,-26.820322)"
     id="text3176"
     style="font-size:12px;font-style:normal;font-variant:normal;font-weight:500;font-stretch:normal;line-height:125%;letter-spacing:0px;word-spacing:0px;fill:#808080;fill-opacity:1;stroke:none;font-family:Futura;-inkscape-font-specification:Futura Medium">
    <path
       d="m -111.09911,35.680901 c 0,0 -0.90229,6.861161 -0.90229,6.861161 0,0 -5.24928,-2.345823 -5.24928,-2.345823 0,0 1.70396,-9.328145 1.70396,-9.328145 0,0 28.194413,-2.830793 28.194413,-2.830793 0,0 0.41438,3.975768 0.41438,3.975768 0,0 -24.161183,3.667832 -24.161183,3.667832"
       id="path3181"
       inkscape:connector-curvature="0"
       style="fill:#808080" />
    <path
       d="m -99.318333,21.479427 c -4.236837,0.06226 -7.804537,-0.885524 -10.423657,-2.866827 -2.40138,-1.796641 -3.38682,-3.899673 -2.95311,-6.193646 0.41049,-2.170774 1.96712,-3.7912205 4.52195,-4.8777488 2.59671,-1.1178739 5.71715,-1.3578438 9.305788,-0.8228183 3.31539,0.4943131 5.805008,1.4795248 7.635677,2.9719117 1.640106,1.3262004 2.543842,2.8113654 2.727525,4.5163694 0.19159,1.778402 -0.44506,3.339819 -1.999099,4.698707 -1.860059,1.621746 -4.750302,2.514317 -8.815074,2.574052 m 0.09175,-3.568512 c 2.625361,0.06497 4.679224,-0.303264 6.208297,-1.068881 1.421204,-0.725769 2.058588,-1.661936 1.969846,-2.812753 -0.08571,-1.111551 -0.834785,-2.077049 -2.265336,-2.928579 -1.444194,-0.863772 -3.293316,-1.434186 -5.619556,-1.7118573 -2.452808,-0.2927574 -4.622698,-0.1662672 -6.486328,0.4159965 -1.96406,0.6184318 -3.08065,1.5879298 -3.26474,2.9124748 -0.18884,1.359103 0.6848,2.574158 2.5982,3.596051 1.866,1.002445 4.18413,1.531346 6.859617,1.597548"
       id="path3183"
       inkscape:connector-curvature="0"
       style="fill:#808080" />
  </g>
  <g
     transform="matrix(0.78449923,0.18297028,-0.55774165,0.45803231,92.107481,118.60521)"
     id="text3257"
     style="font-size:12px;font-style:normal;font-variant:normal;font-weight:500;font-stretch:normal;line-height:125%;letter-spacing:0px;word-spacing:0px;fill:#808080;fill-opacity:1;stroke:none;font-family:Futura;-inkscape-font-specification:Futura Medium">
    <path
       d="m 8.5741478,36.996894 c 0,0 1.8527482,16.693468 1.8527482,16.693468 0,0 -4.6684025,0.296477 -4.6684025,0.296477 0,0 -5.69986441,-30.327917 -5.69986441,-30.327917 0,0 35.77221991,25.672714 35.77221991,25.672714 0,0 -2.631652,3.032561 -2.631652,3.032561 0,0 -24.6250492,-15.367303 -24.6250492,-15.367303"
       id="path3262"
       inkscape:connector-curvature="0"
       style="fill:#808080" />
  </g>
  <g
     transform="matrix(-0.22651544,-0.06716711,0.30667922,-0.21871888,109.46599,-12.0497)"
     id="text3340"
     style="font-size:12px;font-style:normal;font-variant:normal;font-weight:500;font-stretch:normal;line-height:125%;letter-spacing:0px;word-spacing:0px;fill:#808080;fill-opacity:1;stroke:none;font-family:Futura;-inkscape-font-specification:Futura Medium">
    <path
       d="m 36.431518,-121.32045 c -1.956421,4.34 -4.780116,7.03838 -8.692338,7.99535 -3.947172,0.96553 -7.586344,0.0123 -10.783492,-3.12165 -3.473611,-3.43592 -5.359369,-8.35679 -5.427527,-14.57685 -0.06828,-6.24391 1.738599,-11.26747 5.219107,-14.82193 3.210095,-3.30884 6.954295,-4.35395 11.051629,-3.38773 3.858269,0.90992 6.713412,3.67922 8.750101,8.1428 0.800273,-2.08123 1.927006,-3.58106 3.346064,-4.50142 1.360576,-0.90451 2.816983,-1.14139 4.349713,-0.7539 2.444285,0.61803 4.27889,2.40422 5.5987,5.27535 1.250337,2.72005 1.816678,5.93401 1.748025,9.7322 -0.06991,3.86755 -0.751734,7.13062 -2.090715,9.89833 -1.40275,2.91787 -3.234336,4.72193 -5.582746,5.34394 -3.362937,0.89073 -5.93686,-0.76418 -7.486521,-5.22449 m -8.715525,-0.56925 c 1.936737,-0.2518 3.487581,-1.29255 4.697632,-3.0886 1.189956,-1.76611 1.777407,-3.79031 1.790154,-6.11969 0.0127,-2.31284 -0.556209,-4.33537 -1.73875,-6.10978 -1.227142,-1.84135 -2.763162,-2.89384 -4.643072,-3.11301 -1.979487,-0.23071 -3.761497,0.52296 -5.307695,2.31842 -1.603896,1.86265 -2.421934,4.22004 -2.408776,7.01101 0.0132,2.77977 0.847238,5.09787 2.450136,6.9041 1.537199,1.73212 3.266002,2.44389 5.160371,2.19755 m 16.143197,-1.20417 c 1.291175,-0.18757 2.367163,-1.07422 3.250802,-2.63196 0.848346,-1.53227 1.279937,-3.30826 1.312383,-5.36426 0.03224,-2.04279 -0.340197,-3.81589 -1.136192,-5.35097 -0.833502,-1.58665 -1.883208,-2.47954 -3.170296,-2.64423 -1.359425,-0.17389 -2.575238,0.49562 -3.623524,2.05046 -1.081689,1.60447 -1.646227,3.63207 -1.667488,6.03783 -0.02095,2.37486 0.504569,4.37227 1.547631,5.95455 1.006503,1.50497 2.174774,2.13919 3.486684,1.94858"
       id="path3345"
       inkscape:connector-curvature="0"
       style="fill:#808080" />
  </g>
  <g
     transform="matrix(-0.55205818,-0.18231383,-0.1509921,-0.26772858,118.9075,39.026872)"
     id="text3427"
     style="font-size:12px;font-style:normal;font-variant:normal;font-weight:500;font-stretch:normal;line-height:125%;letter-spacing:0px;word-spacing:0px;fill:#808080;fill-opacity:1;stroke:none;font-family:Futura;-inkscape-font-specification:Futura Medium">
    <path
       d="m 14.107098,96.550503 c 0,0 0.322095,3.046662 0.322095,3.046662 0,0 -2.920022,-1.620162 -2.920022,-1.620162 0,0 -0.676686,-4.475489 -0.676686,-4.475489 0,0 24.026604,0.974059 24.026604,0.974059 0,0 -0.730175,3.285385 -0.730175,3.285385 0,0 -20.021816,-1.210455 -20.021816,-1.210455"
       id="path3432"
       inkscape:connector-curvature="0"
       style="fill:#808080" />
    <path
       d="m 7.1763041,75.340127 c 0,0 1.6269381,-4.021814 1.6269381,-4.021814 0,0 9.7387768,7.348339 9.7387768,7.348339 -0.06007,-0.413318 -0.106688,-0.76816 -0.139579,-1.063037 -0.03306,-0.296946 -0.05214,-0.532225 -0.05705,-0.704846 -0.07915,-2.803107 0.809281,-5.48948 2.781984,-8.058566 2.108085,-2.761814 4.782706,-4.459663 7.983786,-4.931424 3.537674,-0.521291 6.445522,0.620152 8.548914,3.367148 2.017466,2.63484 2.560497,5.835879 1.73626,9.428268 -0.750769,3.272179 -2.447201,5.963406 -4.972304,8.128166 -2.325017,1.961913 -4.704756,2.887845 -7.209752,2.887499 -2.182112,-2.96e-4 -4.405442,-0.851703 -6.745177,-2.576878 0,0 -13.292815,-9.802854 -13.292815,-9.802854 m 21.695978,-4.984636 c -1.850417,0.199107 -3.422512,1.094505 -4.700522,2.632489 -1.232391,1.483156 -1.8458,3.11833 -1.882091,4.897744 -0.03501,1.717917 0.465739,3.095953 1.489115,4.175818 1.007689,1.063297 2.263074,1.569394 3.799766,1.529922 1.566823,-0.04023 2.998653,-0.635186 4.315218,-1.822941 1.377019,-1.242268 2.243949,-2.794556 2.563808,-4.678289 0.327025,-1.925887 -0.04853,-3.587824 -1.153386,-4.934851 -1.138648,-1.388181 -2.631413,-1.993583 -4.431908,-1.799892"
       id="path3434"
       inkscape:connector-curvature="0"
       style="fill:#808080" />
  </g>
</svg>
