<?xml version="1.0" encoding="UTF-8" standalone="no"?>
<!-- Created with Inkscape (http://www.inkscape.org/) -->

<svg
   xmlns:dc="http://purl.org/dc/elements/1.1/"
   xmlns:cc="http://creativecommons.org/ns#"
   xmlns:rdf="http://www.w3.org/1999/02/22-rdf-syntax-ns#"
   xmlns:svg="http://www.w3.org/2000/svg"
   xmlns="http://www.w3.org/2000/svg"
   xmlns:sodipodi="http://sodipodi.sourceforge.net/DTD/sodipodi-0.dtd"
   xmlns:inkscape="http://www.inkscape.org/namespaces/inkscape"
   version="1.1"
   width="156.44119"
   height="169.22659"
   viewBox="0 0 156.44119 169.22659"
   id="svg2"
   inkscape:version="0.48.5 r10040"
   sodipodi:docname="d20_19.svg">
  <sodipodi:namedview
     pagecolor="#ffffff"
     bordercolor="#666666"
     borderopacity="1"
     objecttolerance="10"
     gridtolerance="10"
     guidetolerance="10"
     inkscape:pageopacity="0"
     inkscape:pageshadow="2"
     inkscape:window-width="1680"
     inkscape:window-height="1001"
     id="namedview3507"
     showgrid="false"
     inkscape:zoom="4.6978432"
     inkscape:cx="78.220596"
     inkscape:cy="84.613297"
     inkscape:window-x="0"
     inkscape:window-y="1"
     inkscape:window-maximized="1"
     inkscape:current-layer="svg2" />
  <metadata
     id="metadata21">
    <rdf:RDF>
      <cc:Work
         rdf:about="">
        <dc:format>image/svg+xml</dc:format>
        <dc:type
           rdf:resource="http://purl.org/dc/dcmitype/StillImage" />
        <dc:title />
      </cc:Work>
    </rdf:RDF>
  </metadata>
  <defs
     id="defs19" />
  <g
     transform="translate(-37.3019,-75.296)"
     id="g3036">
    <g
       transform="translate(112.5,150)"
       id="widget">
      <path
         d="M 61.1112,45.8264 4.63537,94.5226 -53.0845,46.7585 z"
         id="path5"
         style="fill:#d3d3d3;fill-opacity:1" />
      <path
         d="m 4.60797,-74.704 5.41843,22.7464 -83.219,19.8238 z"
         id="path7"
         style="fill:#d3d3d3;fill-opacity:1" />
      <path
         d="m 3.44252,-74.704 -5.41846,22.7465 83.21904,19.8237 z"
         id="path9"
         style="fill:#d3d3d3;fill-opacity:1" />
      <path
         d="M -53.4025,46.9333 -75.1981,-32.1548 3.9369,-55.0094 z"
         id="path11"
         style="fill:#f0f0f0;fill-opacity:1" />
      <path
         d="M 62.2343,46.0943 81.1564,-32.4527 3.23229,-55.0429 z"
         id="path13"
         style="fill:#f0f0f0;fill-opacity:1" />
      <path
         d="M -53.5597,46.8415 3.67051,-54.4309 62.579,46.143 z"
         id="path15"
         style="fill:#f8f8f8;fill-opacity:1" />
    </g>
  </g>
  <g
     id="text3045"
     style="font-size:41.2510643px;font-style:normal;font-variant:normal;font-weight:500;font-stretch:normal;line-height:125%;letter-spacing:0px;word-spacing:0px;fill:#000000;fill-opacity:1;stroke:none;font-family:Futura;-inkscape-font-specification:Futura Medium">
    <path
       d="m 65.879851,74.701597 -5.377947,0 2.578192,-4.390983 7.492869,0 0,31.099436 -4.693114,0 0,-26.708453"
       id="path4005" />
    <path
       d="m 86.162968,102.47758 -3.444302,-2.558048 7.432442,-10.131487 c -0.402855,0.05372 -0.745271,0.09401 -1.027248,0.120853 -0.282002,0.02687 -0.510279,0.0403 -0.684832,0.04028 -2.51106,1.2e-5 -4.686407,-0.960095 -6.526047,-2.880323 -1.826222,-1.906771 -2.739331,-4.202971 -2.739329,-6.888605 -2e-6,-2.860157 1.013817,-5.304066 3.041461,-7.331732 2.04106,-2.041038 4.484969,-3.061571 7.331732,-3.061603 2.833309,3.2e-5 5.29736,1.007137 7.392158,3.021318 2.094759,2.000811 3.142147,4.364151 3.142167,7.090027 -2e-5,2.417074 -1.020552,5.028833 -3.061598,7.835285 L 86.162968,102.47758 M 83.745914,79.837838 c -7e-6,1.67853 0.570686,3.088477 1.71208,4.229845 1.154805,1.154831 2.54461,1.732238 4.169419,1.732222 1.624784,1.6e-5 3.007875,-0.570677 4.149277,-1.71208 1.154797,-1.154796 1.732204,-2.544601 1.732223,-4.169419 -1.9e-5,-1.624775 -0.577426,-3.01458 -1.732223,-4.169419 -1.141402,-1.14136 -2.531207,-1.712053 -4.169419,-1.71208 -1.611381,2.7e-5 -2.987758,0.57072 -4.129135,1.71208 -1.154822,1.154839 -1.732229,2.517788 -1.732222,4.088851"
       id="path4007" />
  </g>
  <g
     transform="matrix(0.43221799,0.34273546,-0.22953345,0.64538058,70.810933,-15.281914)"
     id="text3044"
     style="font-size:12px;font-style:normal;font-variant:normal;font-weight:500;font-stretch:normal;line-height:125%;letter-spacing:0px;word-spacing:0px;fill:#808080;fill-opacity:1;stroke:none;font-family:Futura;-inkscape-font-specification:Futura Medium">
    <path
       d="m -31.113398,134.39999 c 0,0 -4.466676,-0.18296 -4.466676,-0.18296 -0.011,-3.22718 -0.247358,-5.3821 -0.703726,-6.45777 -0.785307,-1.87969 -1.996424,-2.70852 -3.582751,-2.53141 -1.169895,0.13067 -2.08607,0.87574 -2.771296,2.21485 -0.679778,1.28923 -1.013093,2.90693 -1.01205,4.87813 0.001,1.84106 0.251344,3.28429 0.758212,4.34306 0.5279,1.04178 1.441755,1.89457 2.780124,2.56602 0,0 0.01273,7.0843 0.01273,7.0843 -2.512161,-1.3415 -4.215077,-3.15074 -5.239078,-5.44349 -0.993487,-2.2044 -1.474627,-5.0745 -1.472543,-8.668 0.0021,-3.61991 0.57024,-6.63152 1.741622,-9.1212 1.213555,-2.59919 2.863051,-4.1783 5.027347,-4.67727 2.652823,-0.61152 4.899537,0.69931 6.623709,4.11697 1.707489,-4.65973 4.702701,-7.59174 9.346361,-8.7205 4.296127,-1.04421 8.219742,-0.004 11.582775,3.41662 3.6585597,3.7218 5.6587185,9.18588 5.7543095,16.16749 0.1224738,8.94503 -2.778377,15.0494 -8.1670005,17.97882 -2.071951,1.10812 -4.786296,1.38965 -8.006558,0.91635 0,0 -0.07042,-8.94077 -0.07042,-8.94077 2.334774,-0.12466 4.220954,-1.05346 5.5811,-2.82395 1.382128,-1.86178 2.073456,-4.44038 2.039009,-7.68296 -0.03466,-3.26392 -0.970392,-5.90588 -2.74577,-7.86376 -1.741629,-1.86751 -3.825728,-2.61724 -6.193534,-2.32553 -2.91191,0.3588 -4.839272,1.92581 -5.926868,4.65838 -0.611198,1.56161 -0.904918,3.91927 -0.889024,7.09858"
       id="path3049"
       style="fill:#808080" />
  </g>
  <g
     transform="matrix(1.4036299,-2.6349261,2.0590748,1.7961759,72.972528,-55.557761)"
     id="text3109"
     style="font-size:12px;font-style:normal;font-variant:normal;font-weight:500;font-stretch:normal;line-height:125%;letter-spacing:0px;word-spacing:0px;fill:#808080;fill-opacity:1;stroke:none;font-family:Futura;-inkscape-font-specification:Futura Medium">
    <path
       d="m -48.899639,35.01606 -1.564453,0 0.75,-1.277344 2.179687,0 0,9.046875 -1.365234,0 0,-7.769531"
       id="path3114"
       style="fill:#808080" />
  </g>
  <g
     transform="matrix(-0.28713694,0.60685482,-0.56978912,-0.30581566,195.95838,117.27225)"
     id="text3120"
     style="font-size:12px;font-style:normal;font-variant:normal;font-weight:500;font-stretch:normal;line-height:125%;letter-spacing:0px;word-spacing:0px;fill:#808080;fill-opacity:1;stroke:none;font-family:Futura;-inkscape-font-specification:Futura Medium">
    <path
       d="m -6.6316649,140.88575 c 0,0 -5.2159161,6.83833 -5.2159161,6.83833 0,0 -16.198559,-15.90064 -16.198559,-15.90064 0.07336,0.69617 0.128912,1.28912 0.166566,1.77804 0.03766,0.48965 0.05753,0.886 0.0594,1.18872 0.02696,4.36199 -1.174699,7.95417 -3.485286,10.62782 -2.14895,2.48577 -4.569778,3.28552 -7.185241,2.56416 -2.552273,-0.70393 -4.565758,-2.64463 -6.129632,-5.72377 -1.483443,-2.92082 -2.192407,-6.11918 -2.190322,-9.71304 0.0021,-3.56776 0.701956,-6.74278 2.156656,-9.64587 1.525704,-3.06339 3.443703,-4.93283 5.832088,-5.51341 2.293623,-0.55747 4.988499,0.38799 8.173832,3.05927 0,0 24.01645,20.44039 24.01645,20.44039 m -32.191856,0.28306 c 1.586231,0.25615 2.983416,-0.39768 4.158162,-2.01561 1.233626,-1.69895 1.862463,-3.88248 1.850932,-6.49792 -0.01147,-2.61054 -0.650015,-4.79155 -1.878308,-6.49492 -1.194499,-1.6565 -2.568288,-2.3572 -4.095715,-2.15797 -1.451984,0.18944 -2.63721,1.14502 -3.584974,2.83129 -0.906746,1.61341 -1.348843,3.49441 -1.347737,5.68373 0.0011,2.1568 0.446451,4.04161 1.359083,5.69382 0.95619,1.73101 2.127589,2.72976 3.538557,2.95758"
       id="path3125"
       style="fill:#808080" />
  </g>
  <g
     transform="matrix(-0.15828683,0.11568376,-0.31410139,-0.23978009,140.94073,55.6222)"
     id="text3120-5"
     style="font-size:12px;font-style:normal;font-variant:normal;font-weight:500;font-stretch:normal;line-height:125%;letter-spacing:0px;word-spacing:0px;fill:#808080;fill-opacity:1;stroke:none;font-family:Futura;-inkscape-font-specification:Futura Medium">
    <path
       d="m -6.6316649,140.88575 c 0,0 -5.2159161,6.83833 -5.2159161,6.83833 0,0 -16.198559,-15.90064 -16.198559,-15.90064 0.07336,0.69617 0.128912,1.28912 0.166566,1.77804 0.03766,0.48965 0.05753,0.886 0.0594,1.18872 0.02696,4.36199 -1.174699,7.95417 -3.485286,10.62782 -2.14895,2.48577 -4.569778,3.28552 -7.185241,2.56416 -2.552273,-0.70393 -4.565758,-2.64463 -6.129632,-5.72377 -1.483443,-2.92082 -2.192407,-6.11918 -2.190322,-9.71304 0.0021,-3.56776 0.701956,-6.74278 2.156656,-9.64587 1.525704,-3.06339 3.443703,-4.93283 5.832088,-5.51341 2.293623,-0.55747 4.988499,0.38799 8.173832,3.05927 0,0 24.01645,20.44039 24.01645,20.44039 m -32.191856,0.28306 c 1.586231,0.25615 2.983416,-0.39768 4.158162,-2.01561 1.233626,-1.69895 1.862463,-3.88248 1.850932,-6.49792 -0.01147,-2.61054 -0.650015,-4.79155 -1.878308,-6.49492 -1.194499,-1.6565 -2.568288,-2.3572 -4.095715,-2.15797 -1.451984,0.18944 -2.63721,1.14502 -3.584974,2.83129 -0.906746,1.61341 -1.348843,3.49441 -1.347737,5.68373 0.0011,2.1568 0.446451,4.04161 1.359083,5.69382 0.95619,1.73101 2.127589,2.72976 3.538557,2.95758"
       id="path3125-9"
       style="fill:#808080" />
  </g>
  <g
     transform="matrix(-0.32743886,-0.08437721,0.34272506,-0.21060612,48.028685,8.3272927)"
     id="text3214"
     style="font-size:12px;font-style:normal;font-variant:normal;font-weight:500;font-stretch:normal;line-height:125%;letter-spacing:0px;word-spacing:0px;fill:#808080;fill-opacity:1;stroke:none;font-family:Futura;-inkscape-font-specification:Futura Medium">
    <path
       d="m -67.322429,-4.3193523 c 0,0 -0.05463,5.8924703 -0.05463,5.8924703 0,0 -8.510745,-0.92767333 -8.510745,-0.92767333 0,0 0.105229,-9.05625857 0.105229,-9.05625857 0,0 38.1907,-4.6462631 38.1907,-4.6462631 0,0 -0.0035,3.2442749 -0.0035,3.2442749 0,0 -29.727084,5.4934498 -29.727084,5.4934498"
       id="path3219"
       style="fill:#808080" />
    <path
       d="m -77.83848,-35.390449 c 0,0 5.45596,-2.998038 5.45596,-2.998038 0,0 16.15248,10.517766 16.15248,10.517766 -0.06773,-0.385299 -0.118386,-0.71243 -0.15191,-0.981048 -0.03346,-0.26882 -0.04977,-0.478762 -0.04887,-0.629668 0.01493,-2.362218 1.27092,-4.14338 3.638213,-5.283324 2.179152,-1.059646 4.615256,-1.187641 7.236895,-0.483378 2.547135,0.684281 4.564072,1.969948 6.141093,3.817786 1.480267,1.734491 2.189366,3.534551 2.187484,5.472277 -0.0019,1.92152 -0.706188,3.564887 -2.173655,4.987399 -1.554311,1.477222 -3.516131,2.261244 -5.964331,2.287057 -2.383301,0.02514 -5.124905,-0.819133 -8.294584,-2.660267 0,0 -24.178817,-14.046569 -24.178817,-14.046569 m 32.552379,3.810841 c -1.572073,-0.326602 -2.970012,-0.14519 -4.164063,0.577949 -1.256292,0.760885 -1.907007,1.858481 -1.913944,3.270479 -0.007,1.424817 0.625666,2.691182 1.86171,3.766774 1.190074,1.035578 2.576521,1.579994 4.130231,1.65874 1.476185,0.07483 2.676993,-0.29556 3.631864,-1.087538 0.92276,-0.76533 1.3737,-1.735884 1.375895,-2.930221 0.0022,-1.164424 -0.44448,-2.23444 -1.36219,-3.234931 -0.96005,-1.046629 -2.13792,-1.725888 -3.559503,-2.021252"
       id="path3221"
       style="fill:#808080" />
  </g>
</svg>
