<?xml version="1.0" encoding="UTF-8" standalone="no"?>
<!-- Created with Inkscape (http://www.inkscape.org/) -->

<svg
   xmlns:dc="http://purl.org/dc/elements/1.1/"
   xmlns:cc="http://creativecommons.org/ns#"
   xmlns:rdf="http://www.w3.org/1999/02/22-rdf-syntax-ns#"
   xmlns:svg="http://www.w3.org/2000/svg"
   xmlns="http://www.w3.org/2000/svg"
   xmlns:sodipodi="http://sodipodi.sourceforge.net/DTD/sodipodi-0.dtd"
   xmlns:inkscape="http://www.inkscape.org/namespaces/inkscape"
   sodipodi:docname="d20_12.svg"
   inkscape:version="0.48.5 r10040"
   id="svg2"
   viewBox="0 0 156.44119 169.22659"
   height="169.22659"
   width="156.44119"
   version="1.1">
  <sodipodi:namedview
     pagecolor="#ffffff"
     bordercolor="#666666"
     borderopacity="1"
     objecttolerance="10"
     gridtolerance="10"
     guidetolerance="10"
     inkscape:pageopacity="0"
     inkscape:pageshadow="2"
     inkscape:window-width="1680"
     inkscape:window-height="1001"
     id="namedview27"
     showgrid="false"
     inkscape:zoom="4.6978432"
     inkscape:cx="78.220596"
     inkscape:cy="84.613297"
     inkscape:window-x="0"
     inkscape:window-y="1"
     inkscape:window-maximized="1"
     inkscape:current-layer="svg2" />
  <metadata
     id="metadata21">
    <rdf:RDF>
      <cc:Work
         rdf:about="">
        <dc:format>image/svg+xml</dc:format>
        <dc:type
           rdf:resource="http://purl.org/dc/dcmitype/StillImage" />
        <dc:title />
      </cc:Work>
    </rdf:RDF>
  </metadata>
  <defs
     id="defs19" />
  <g
     id="g3036"
     transform="translate(-37.3019,-75.296)">
    <g
       id="widget"
       transform="translate(112.5,150)">
      <path
         style="fill:#d3d3d3;fill-opacity:1"
         id="path5"
         d="M 61.1112,45.8264 4.63537,94.5226 -53.0845,46.7585 z" />
      <path
         style="fill:#d3d3d3;fill-opacity:1"
         id="path7"
         d="m 4.60797,-74.704 5.41843,22.7464 -83.219,19.8238 z" />
      <path
         style="fill:#d3d3d3;fill-opacity:1"
         id="path9"
         d="m 3.44252,-74.704 -5.41846,22.7465 83.21904,19.8237 z" />
      <path
         style="fill:#f0f0f0;fill-opacity:1"
         id="path11"
         d="M -53.4025,46.9333 -75.1981,-32.1548 3.9369,-55.0094 z" />
      <path
         style="fill:#f0f0f0;fill-opacity:1"
         id="path13"
         d="M 62.2343,46.0943 81.1564,-32.4527 3.23229,-55.0429 z" />
      <path
         style="fill:#f8f8f8;fill-opacity:1"
         id="path15"
         d="M -53.5597,46.8415 3.67051,-54.4309 62.579,46.143 z" />
    </g>
  </g>
  <g
     style="font-size:41.2510643px;font-style:normal;font-variant:normal;font-weight:500;font-stretch:normal;line-height:125%;letter-spacing:0px;word-spacing:0px;fill:#000000;fill-opacity:1;stroke:none;font-family:Futura;-inkscape-font-specification:Futura Medium"
     id="text3045">
    <path
       d="m 65.879851,74.701597 -5.377947,0 2.578192,-4.390983 7.492869,0 0,31.099436 -4.693114,0 0,-26.708453"
       style=""
       id="path3236" />
    <path
       d="m 87.270784,96.998925 11.58172,0 0,4.411125 -20.88738,0 10.796177,-13.072237 c 1.060805,-1.30251 1.947058,-2.430467 2.65876,-3.383877 0.725101,-0.953376 1.275652,-1.752346 1.651654,-2.396912 0.765384,-1.26222 1.148083,-2.396891 1.148101,-3.404019 -1.8e-5,-1.450209 -0.510284,-2.665449 -1.530801,-3.645723 -1.020549,-0.980223 -2.282788,-1.470348 -3.786719,-1.470375 -3.14218,2.7e-5 -4.941541,1.859814 -5.398089,5.579367 l -4.672972,0 c 0.75197,-6.552875 4.061989,-9.829323 9.930066,-9.829355 2.83331,3.2e-5 5.210078,0.899712 7.130311,2.699044 1.933623,1.79939 2.900443,4.028449 2.900465,6.687185 -2.2e-5,1.691958 -0.449862,3.350325 -1.349522,4.975104 -0.456575,0.845985 -1.127978,1.85309 -2.014212,3.021318 -0.872843,1.154828 -1.980658,2.524491 -3.32345,4.108992 l -4.834109,5.720363"
       style=""
       id="path3238" />
  </g>
  <g
     style="font-size:12px;font-style:normal;font-variant:normal;font-weight:500;font-stretch:normal;line-height:125%;letter-spacing:0px;word-spacing:0px;fill:#808080;fill-opacity:1;stroke:none;font-family:Futura;-inkscape-font-specification:Futura Medium"
     id="text4224"
     transform="matrix(-0.90412848,0.42726068,-0.42726068,-0.90412848,51.395262,19.760785)">
    <path
       d="m 32.806025,-16.034285 c 0,0 -0.266561,3.088864 -0.266561,3.088864 0,0 -3.070687,-1.042788 -3.070687,-1.042788 0,0 0.263812,-4.510455 0.263812,-4.510455 0,0 21.729037,-2.442467 21.729037,-2.442467 0,0 -0.634955,2.673946 -0.634955,2.673946 0,0 -18.020646,2.2329 -18.020646,2.2329"
       id="path4229"
       inkscape:connector-curvature="0"
       style="fill:#808080" />
    <path
       d="m 41.808425,-25.376102 c -3.664565,0.325946 -6.594305,-0.193877 -8.77447,-1.613724 -2.059719,-1.32524 -3.06123,-3.111308 -2.936551,-5.374185 0.129162,-2.343179 1.418292,-4.45063 3.875275,-6.267816 2.736059,-2.042271 6.278485,-3.110632 10.496801,-3.191888 4.060148,-0.07817 6.980924,0.804389 8.803372,2.582867 1.582304,1.524392 2.089674,3.34804 1.581388,5.465508 -0.492661,2.052357 -1.810921,3.829471 -3.957131,5.371913 -2.358097,1.691261 -5.354711,2.69521 -9.088684,3.027325 m 0.490334,-3.130881 c 2.542692,-0.192721 4.690311,-0.759506 6.481939,-1.702414 1.760542,-0.939596 2.781858,-2.060204 3.069852,-3.382278 0.291674,-1.338947 -0.276457,-2.431662 -1.739165,-3.275369 -1.494409,-0.86824 -3.568967,-1.265259 -6.236954,-1.170713 -2.730436,0.09679 -5.103216,0.671706 -7.071909,1.724012 -1.959762,1.053098 -3.000468,2.31035 -3.118535,3.747321 -0.114677,1.396264 0.698343,2.473612 2.400378,3.237489 1.644176,0.74336 3.717637,1.011201 6.214394,0.821952"
       id="path4231"
       inkscape:connector-curvature="0"
       style="fill:#808080" />
  </g>
  <g
     style="font-size:12px;font-style:normal;font-variant:normal;font-weight:500;font-stretch:normal;line-height:125%;letter-spacing:0px;word-spacing:0px;fill:#808080;fill-opacity:1;stroke:none;font-family:Futura;-inkscape-font-specification:Futura Medium"
     id="text4368"
     transform="matrix(-0.6699883,0.74237167,-0.74237167,-0.6699883,33.136335,244.17736)">
    <path
       d="m -99.709609,34.465241 c 0,0 0.317981,-7.541332 0.317981,-7.541332 0,0 2.731172,0.08303 2.731172,0.08303 0,0 -0.332097,13.79861 -0.332097,13.79861 0,0 -8.734227,-7.183252 -8.734227,-7.183252 -0.90281,-0.731124 -1.69166,-1.34523 -2.36479,-1.840679 -0.67588,-0.507718 -1.2494,-0.894788 -1.71946,-1.160083 -0.92461,-0.543859 -1.78923,-0.819311 -2.59537,-0.82269 -1.1794,-0.0049 -2.23743,0.364824 -3.17308,1.122065 -0.95728,0.774804 -1.53307,1.746685 -1.71262,2.915027 -0.38384,2.498122 1.07098,3.868042 4.25981,4.043761 0,0 -0.46879,3.79515 -0.46879,3.79515 -5.88767,-0.113536 -8.57203,-2.732596 -7.70135,-7.619549 0.40203,-2.25621 1.54785,-4.097565 3.38526,-5.524807 1.76213,-1.377191 3.70609,-2.011588 5.83171,-1.947697 1.31587,0.03958 2.5458,0.381696 3.70009,1.021159 0.59631,0.321912 1.29336,0.788799 2.09012,1.39923 0.78277,0.59739 1.70105,1.350154 2.7527,2.256071 0,0 3.732941,3.205984 3.732941,3.205984"
       id="path4377"
       inkscape:connector-curvature="0"
       style="fill:#808080" />
  </g>
  <g
     id="text3044"
     style="font-size:12px;font-style:normal;font-variant:normal;font-weight:500;font-stretch:normal;line-height:125%;letter-spacing:0px;word-spacing:0px;fill:#808080;fill-opacity:1;stroke:none;font-family:Futura;-inkscape-font-specification:Futura Medium"
     transform="matrix(0.04819188,-0.9988381,0.9988381,0.04819188,169.31805,197.14082)">
    <path
       id="path3049"
       d="m 130.72199,-37.79885 c 0,0 -0.35944,2.941483 -0.35944,2.941483 0,0 -3.0874,-0.920561 -3.0874,-0.920561 0,0 0.39859,-4.28087 0.39859,-4.28087 0,0 22.38481,-2.913613 22.38481,-2.913613 0,0 -0.72816,2.58414 -0.72816,2.58414 0,0 -18.6084,2.589421 -18.6084,2.589421"
       inkscape:connector-curvature="0"
       style="fill:#808080" />
    <path
       id="path3051"
       d="m 133.41159,-59.809429 c 0,0 -0.89082,7.290083 -0.89082,7.290083 0,0 4.08158,0.696899 4.08158,0.696899 0.003,-0.157677 0.0102,-0.30687 0.0213,-0.447483 0.0126,-0.150408 0.0284,-0.287429 0.0475,-0.410987 0.33692,-2.177225 1.47167,-4.084424 3.41065,-5.677529 1.95029,-1.6196 4.23781,-2.519429 6.81103,-2.684064 2.61151,-0.167053 4.51283,0.534748 5.7073,2.06075 1.15224,1.47209 1.38201,3.352847 0.73694,5.619994 -0.765,2.688584 -2.69024,4.877846 -5.78944,6.646051 0,0 -1.61175,-1.967175 -1.61175,-1.967175 1.35926,-0.754566 2.36746,-1.477944 3.0264,-2.172798 0.65369,-0.698603 1.10639,-1.525615 1.35757,-2.488296 0.33448,-1.281899 0.12957,-2.33648 -0.63169,-3.157133 -0.80844,-0.835756 -1.96867,-1.203369 -3.47974,-1.088308 -1.57023,0.11959 -2.9606,0.685824 -4.15154,1.692341 -1.2148,1.002182 -1.94105,2.176606 -2.18113,3.50729 -0.26148,1.449505 0.22777,2.601788 1.43921,3.464457 0,0 -0.19775,1.00294 -0.19775,1.00294 0,0 -12.53103,-1.936825 -12.53103,-1.936825 0,0 0.90263,-9.694287 0.90263,-9.694287 0,0 3.92272,-0.25592 3.92272,-0.25592"
       inkscape:connector-curvature="0"
       style="fill:#808080" />
  </g>
  <g
     style="font-size:12px;font-style:normal;font-variant:normal;font-weight:500;font-stretch:normal;line-height:125%;letter-spacing:0px;word-spacing:0px;fill:#808080;fill-opacity:1;stroke:none;font-family:Futura;-inkscape-font-specification:Futura Medium"
     id="text3103"
     transform="matrix(1.0571669,-0.59045698,0.73938521,0.71535884,-87.898228,49.590934)">
    <path
       d="m 104.2261,47.218269 c 0,0 -0.29849,1.067482 -0.29849,1.067482 0,0 -3.07023,-0.52778 -3.07023,-0.52778 0,0 0.55804,-1.414776 0.55804,-1.414776 0,0 21.52365,0.04713 21.52365,0.04713 0,0 0.35801,0.865434 0.35801,0.865434 0,0 -19.07098,-0.03749 -19.07098,-0.03749"
       id="path3108"
       inkscape:connector-curvature="0"
       style="fill:#808080" />
    <path
       d="m 105.47897,42.737592 c 0,0 -0.63078,2.25586 -0.63078,2.25586 0,0 -2.89748,-0.0074 -2.89748,-0.0074 0,0 1.28589,-3.260073 1.28589,-3.260073 0,0 19.59294,2.752705 19.59294,2.752705 0,0 -1.28256,0.583068 -1.28256,0.583068 0,0 -16.06801,-2.324203 -16.06801,-2.324203"
       id="path3110"
       inkscape:connector-curvature="0"
       style="fill:#808080" />
  </g>
  <g
     transform="matrix(1.1519543,-0.39489024,0.81606013,1.131611,168.7936,-23.967566)"
     id="text3168"
     style="font-size:12px;font-style:normal;font-variant:normal;font-weight:500;font-stretch:normal;line-height:125%;letter-spacing:0px;word-spacing:0px;fill:#808080;fill-opacity:1;stroke:none;font-family:Futura;-inkscape-font-specification:Futura Medium">
    <path
       inkscape:connector-curvature="0"
       id="path3173"
       d="m -72.220271,10.119563 c 0,0 -0.231618,4.763162 -0.231618,4.763162 0,0 -1.530384,0.06698 -1.530384,0.06698 0,0 0.649673,-6.9154987 0.649673,-6.9154987 0,0 8.356535,5.4991187 8.356535,5.4991187 0,0 -0.349552,1.085951 -0.349552,1.085951 0,0 -6.894654,-4.499716 -6.894654,-4.499716"
       style="fill:#808080" />
  </g>
</svg>
