<?xml version="1.0" encoding="UTF-8" standalone="no"?>
<!-- Created with Inkscape (http://www.inkscape.org/) -->

<svg
   xmlns:dc="http://purl.org/dc/elements/1.1/"
   xmlns:cc="http://creativecommons.org/ns#"
   xmlns:rdf="http://www.w3.org/1999/02/22-rdf-syntax-ns#"
   xmlns:svg="http://www.w3.org/2000/svg"
   xmlns="http://www.w3.org/2000/svg"
   xmlns:sodipodi="http://sodipodi.sourceforge.net/DTD/sodipodi-0.dtd"
   xmlns:inkscape="http://www.inkscape.org/namespaces/inkscape"
   version="1.1"
   width="156.44119"
   height="169.22659"
   viewBox="0 0 156.44119 169.22659"
   id="svg2"
   inkscape:version="0.48.5 r10040"
   sodipodi:docname="d20_03.svg">
  <sodipodi:namedview
     pagecolor="#ffffff"
     bordercolor="#666666"
     borderopacity="1"
     objecttolerance="10"
     gridtolerance="10"
     guidetolerance="10"
     inkscape:pageopacity="0"
     inkscape:pageshadow="2"
     inkscape:window-width="1680"
     inkscape:window-height="1001"
     id="namedview3060"
     showgrid="false"
     inkscape:zoom="4.6978432"
     inkscape:cx="78.220596"
     inkscape:cy="84.613297"
     inkscape:window-x="0"
     inkscape:window-y="1"
     inkscape:window-maximized="1"
     inkscape:current-layer="svg2" />
  <metadata
     id="metadata21">
    <rdf:RDF>
      <cc:Work
         rdf:about="">
        <dc:format>image/svg+xml</dc:format>
        <dc:type
           rdf:resource="http://purl.org/dc/dcmitype/StillImage" />
        <dc:title />
      </cc:Work>
    </rdf:RDF>
  </metadata>
  <defs
     id="defs19" />
  <g
     transform="translate(-37.3019,-75.296)"
     id="g3036">
    <g
       transform="translate(112.5,150)"
       id="widget">
      <path
         d="M 61.1112,45.8264 4.63537,94.5226 -53.0845,46.7585 z"
         id="path5"
         style="fill:#d3d3d3;fill-opacity:1" />
      <path
         d="m 4.60797,-74.704 5.41843,22.7464 -83.219,19.8238 z"
         id="path7"
         style="fill:#d3d3d3;fill-opacity:1" />
      <path
         d="m 3.44252,-74.704 -5.41846,22.7465 83.21904,19.8237 z"
         id="path9"
         style="fill:#d3d3d3;fill-opacity:1" />
      <path
         d="M -53.4025,46.9333 -75.1981,-32.1548 3.9369,-55.0094 z"
         id="path11"
         style="fill:#f0f0f0;fill-opacity:1" />
      <path
         d="M 62.2343,46.0943 81.1564,-32.4527 3.23229,-55.0429 z"
         id="path13"
         style="fill:#f0f0f0;fill-opacity:1" />
      <path
         d="M -53.5597,46.8415 3.67051,-54.4309 62.579,46.143 z"
         id="path15"
         style="fill:#f8f8f8;fill-opacity:1" />
    </g>
  </g>
  <g
     id="text3045-7"
     style="font-size:41.2510643px;font-style:normal;font-variant:normal;font-weight:500;font-stretch:normal;line-height:125%;letter-spacing:0px;word-spacing:0px;fill:#000000;fill-opacity:1;stroke:none;font-family:Futura;-inkscape-font-specification:Futura Medium">
    <path
       d="m 78.155114,86.862108 0,-4.008283 c 1.987343,1.9e-5 3.323436,-0.221544 4.008282,-0.66469 1.22194,-0.778808 1.832917,-2.027619 1.832933,-3.746434 -1.6e-5,-1.329356 -0.443143,-2.410315 -1.32938,-3.242882 -0.872839,-0.845942 -2.007511,-1.268926 -3.404018,-1.268953 -1.302535,2.7e-5 -2.30964,0.315587 -3.021319,0.946679 -0.68484,0.644574 -1.195106,1.732248 -1.530801,3.263024 l -4.672972,0 c 0.483408,-2.927295 1.477085,-5.069072 2.981034,-6.425337 1.503938,-1.369633 3.605431,-2.054464 6.304484,-2.054496 2.725886,3.2e-5 4.948231,0.805716 6.667042,2.417055 1.718774,1.597969 2.578171,3.659177 2.578192,6.183631 -2.1e-5,2.846773 -1.127979,5.062404 -3.383877,6.6469 2.578172,1.517388 3.867266,3.981438 3.867288,7.392158 -2.2e-5,2.793047 -0.939987,5.075819 -2.819897,6.848322 -1.879949,1.772508 -4.290287,2.658758 -7.231022,2.658758 -3.746442,0 -6.526052,-1.37638 -8.338838,-4.129133 -0.751975,-1.154811 -1.228671,-2.752751 -1.430091,-4.793825 l 4.531978,0 c 0.241698,1.503952 0.825819,2.658766 1.752364,3.464445 0.939957,0.792261 2.161911,1.188389 3.665866,1.188385 1.51736,4e-6 2.772884,-0.503549 3.766577,-1.510659 0.993661,-1.033956 1.4905,-2.343193 1.490517,-3.927714 -1.7e-5,-2.094769 -0.745275,-3.585285 -2.235776,-4.471551 -0.872839,-0.510253 -2.22236,-0.765386 -4.048566,-0.7654"
       id="path4384" />
  </g>
  <g
     transform="matrix(-0.76731209,0.64127386,-0.64127386,-0.76731209,60.708073,-13.951972)"
     id="text3876"
     style="font-size:12px;font-style:normal;font-variant:normal;font-weight:500;font-stretch:normal;line-height:125%;letter-spacing:0px;word-spacing:0px;fill:#808080;fill-opacity:1;stroke:none;font-family:Futura;-inkscape-font-specification:Futura Medium">
    <path
       d="m 57.729151,-24.422735 c 0,0 -0.413353,2.747776 -0.413353,2.747776 0,0 -3.388728,-0.818921 -3.388728,-0.818921 0,0 0.460586,-3.985312 0.460586,-3.985312 0,0 25.177288,-3.165953 25.177288,-3.165953 0,0 -0.855547,2.476002 -0.855547,2.476002 0,0 -20.980246,2.746408 -20.980246,2.746408"
       id="path3881"
       style="fill:#808080" />
    <path
       d="m 60.311834,-41.591198 c 0,0 -1.512817,10.056497 -1.512817,10.056497 0,0 -3.879254,0.451358 -3.879254,0.451358 0,0 1.85114,-16.017346 1.85114,-16.017346 0,0 25.942939,10.744828 25.942939,10.744828 0,0 -2.659837,2.438835 -2.659837,2.438835 0,0 -19.742171,-7.674172 -19.742171,-7.674172"
       id="path3883"
       style="fill:#808080" />
  </g>
  <g
     transform="matrix(0.00729898,-0.99997336,0.99997336,0.00729898,131.51863,153.52043)"
     id="text3929"
     style="font-size:12px;font-style:normal;font-variant:normal;font-weight:500;font-stretch:normal;line-height:125%;letter-spacing:0px;word-spacing:0px;fill:#808080;fill-opacity:1;stroke:none;font-family:Futura;-inkscape-font-specification:Futura Medium">
    <path
       d="m 85.274976,8.3642635 c 0,0 -0.119063,3.0643485 -0.119063,3.0643485 0,0 -3.406438,-1.164783 -3.406438,-1.164783 0,0 0.01393,-4.4847628 0.01393,-4.4847628 0,0 24.377495,-1.712544 24.377495,-1.712544 0,0 -0.65869,2.741176 -0.65869,2.741176 0,0 -20.207236,1.5565653 -20.207236,1.5565653"
       id="path3934"
       style="fill:#808080" />
    <path
       d="m 80.761659,-10.307931 c 0,0 2.530186,-3.044469 2.530186,-3.044469 0,0 9.117444,5.8543436 9.117444,5.8543436 -0.01783,-0.3126716 -0.02827,-0.5800472 -0.03125,-0.8014422 -0.0029,-0.2222682 0.0016,-0.3977785 0.01374,-0.5261035 0.193807,-2.0481349 1.265356,-3.9021659 3.235042,-5.5283289 1.977918,-1.642505 4.233409,-2.496324 6.717039,-2.539247 2.59948,-0.04488 4.61913,0.809213 6.0432,2.512825 1.36306,1.630655 1.75082,3.553044 1.21557,5.7480678 -0.51087,2.0950479 -1.74133,3.9077284 -3.67767,5.4723421 -1.89487,1.5084673 -3.91518,2.31474777 -6.104186,2.44012931 -1.984091,0.11364862 -4.016945,-0.45640071 -6.142229,-1.74640181 0,0 -12.9169,-7.8417144 -12.9169,-7.8417144 m 21.185455,-2.649942 c -1.47553,0.03996 -2.802445,0.551121 -3.963119,1.525316 -1.161618,0.975028 -1.820074,2.1087328 -1.982106,3.3875737 -0.15977,1.26123 0.198619,2.2878828 1.0596,3.088568 0.84415,0.7850244 1.936782,1.1383077 3.283465,1.0716507 1.33776,-0.066205 2.54782,-0.5284423 3.64507,-1.3935039 1.10832,-0.8737784 1.7974,-1.9264211 2.06312,-3.1713584 0.26489,-1.2410342 0.009,-2.3064371 -0.78411,-3.1894561 -0.81916,-0.912023 -1.92837,-1.356498 -3.32192,-1.31879"
       id="path3936"
       style="fill:#808080" />
  </g>
  <g
     transform="matrix(-0.75365759,0.65726725,-0.65726725,-0.75365759,-41.780228,204.99018)"
     id="text3988"
     style="font-size:12px;font-style:normal;font-variant:normal;font-weight:500;font-stretch:normal;line-height:125%;letter-spacing:0px;word-spacing:0px;fill:#808080;fill-opacity:1;stroke:none;font-family:Futura;-inkscape-font-specification:Futura Medium">
    <path
       d="m -144.29712,-26.105118 c 0,0 0.009,4.68543 0.009,4.68543 0,0 -4.07565,-2.473305 -4.07565,-2.473305 0,0 0.17221,-6.358116 0.17221,-6.358116 0,0 24.6601,1.912082 24.6601,1.912082 0,0 0.53767,3.474681 0.53767,3.474681 0,0 -21.30332,-1.240772 -21.30332,-1.240772"
       id="path3993"
       style="fill:#808080" />
    <path
       d="m -124.44943,-38.640175 c 0,0 -1.34443,1.942968 -1.34443,1.942968 0,0 -7.45195,-5.586061 -7.45195,-5.586061 0.0603,0.252505 0.10792,0.467308 0.14287,0.644071 0.035,0.177231 0.0577,0.320241 0.0678,0.428774 0.1483,1.582834 -0.40876,2.900307 -1.70668,3.948026 -1.33378,1.076286 -3.05063,1.514754 -5.14921,1.283402 -2.2858,-0.251987 -4.28407,-1.198393 -5.94684,-2.827386 -1.66368,-1.629912 -2.46217,-3.40768 -2.40437,-5.295814 0.0558,-1.822072 0.89395,-3.233948 2.47068,-4.247887 1.50963,-0.978884 3.23831,-1.278328 5.19704,-0.929904 1.70462,0.303244 3.55084,1.201492 5.56056,2.698459 0,0 10.56449,7.941354 10.56449,7.941354 m -15.82083,-0.528223 c 1.28899,0.162888 2.3385,-0.0817 3.14842,-0.721995 0.80251,-0.634407 1.1614,-1.462905 1.09002,-2.482511 -0.0702,-1.002808 -0.53292,-1.90634 -1.38715,-2.721062 -0.86161,-0.821761 -1.87358,-1.327376 -3.04848,-1.520474 -1.18917,-0.195423 -2.21234,-0.01655 -3.07183,0.547071 -0.86721,0.568736 -1.30886,1.373959 -1.31138,2.420328 -0.002,1.047259 0.44924,2.018065 1.35743,2.900887 0.92197,0.896182 2.00089,1.423332 3.22297,1.577756"
       id="path3995"
       style="fill:#808080" />
  </g>
  <g
     transform="matrix(1.0564516,-0.5496632,-0.16224268,1.0309784,-6.1570026,24.864721)"
     id="text4053"
     style="font-size:12px;font-style:normal;font-variant:normal;font-weight:500;font-stretch:normal;line-height:125%;letter-spacing:0px;word-spacing:0px;fill:#808080;fill-opacity:1;stroke:none;font-family:Futura;-inkscape-font-specification:Futura Medium">
    <path
       d="m 60.354533,28.846492 c 0,0 -0.201736,0.932896 -0.201736,0.932896 0,0 -3.073845,-0.549518 -3.073845,-0.549518 0,0 0.335121,-1.268386 0.335121,-1.268386 0,0 22.613589,0.667456 22.613589,0.667456 0,0 0.06675,0.821192 0.06675,0.821192 0,0 -19.739883,-0.60364 -19.739883,-0.60364"
       id="path4058"
       style="fill:#808080" />
    <path
       d="m 68.546212,26.815489 c -3.504431,-0.09662 -6.242472,-0.357397 -8.213128,-0.777625 -1.75496,-0.370771 -2.561842,-0.779172 -2.441644,-1.22457 0.118538,-0.439093 1.105593,-0.786687 2.955272,-1.046422 2.034554,-0.288987 4.742741,-0.393658 8.156336,-0.314731 3.435472,0.07944 6.176486,0.312848 8.224858,0.704493 1.882139,0.356685 2.853388,0.761602 2.892886,1.215627 0.04008,0.460708 -0.888955,0.835883 -2.795494,1.121619 -2.120149,0.316744 -5.058921,0.424179 -8.779086,0.321609 m 0.08464,-0.737475 c 2.43199,0.06468 4.466573,0.02365 6.089916,-0.123224 1.591875,-0.147354 2.38109,-0.366627 2.369883,-0.656011 -0.01102,-0.284658 -0.805305,-0.537864 -2.371116,-0.759873 -1.540973,-0.219579 -3.471709,-0.356553 -5.79297,-0.412301 -2.307126,-0.0554 -4.225984,-0.01187 -5.769182,0.130516 -1.536925,0.142873 -2.337184,0.351881 -2.399071,0.628667 -0.06195,0.277232 0.647654,0.529233 2.140371,0.75585 1.498487,0.228661 3.409436,0.3746 5.732169,0.436376"
       id="path4060"
       style="fill:#808080" />
  </g>
  <g
     transform="matrix(1.5399302,-0.31488998,0.71878898,0.47285995,433.49292,-1.5313679)"
     id="text4310"
     style="font-size:12px;font-style:normal;font-variant:normal;font-weight:500;font-stretch:normal;line-height:125%;letter-spacing:0px;word-spacing:0px;fill:#808080;fill-opacity:1;stroke:none;font-family:Futura;-inkscape-font-specification:Futura Medium">
    <path
       d="m -179.81542,-84.073985 c -0.33536,1.365318 -0.80158,2.113452 -1.41319,2.221621 -0.58118,0.102831 -1.08455,-0.356404 -1.50017,-1.405088 -0.42875,-1.090709 -0.64543,-2.503716 -0.63974,-4.214168 0.006,-1.703237 0.23209,-3.092128 0.66914,-4.141269 0.42085,-1.018844 0.93077,-1.443216 1.51899,-1.300221 0.58914,0.143216 1.04817,0.922045 1.38929,2.311214 0.13815,-0.69691 0.33513,-1.219584 0.58813,-1.568073 0.24799,-0.34901 0.51994,-0.482326 0.814,-0.406565 0.48591,0.125187 0.86704,0.697965 1.15257,1.702066 0.27816,0.978219 0.41085,2.172721 0.40342,3.601467 -0.008,1.461735 -0.15367,2.678545 -0.44361,3.669753 -0.29738,1.023543 -0.6786,1.589971 -1.15208,1.6823 -0.64533,0.125843 -1.11497,-0.580996 -1.38675,-2.153037 m -1.40712,-0.463331 c 0.2963,-0.02224 0.54072,-0.309023 0.73607,-0.854648 0.19536,-0.545637 0.29357,-1.193361 0.29677,-1.949438 0.003,-0.748514 -0.0896,-1.399283 -0.28053,-1.958499 -0.1939,-0.567938 -0.43189,-0.874929 -0.71627,-0.914892 -0.29065,-0.04084 -0.54625,0.208117 -0.7645,0.753894 -0.22171,0.554468 -0.33536,1.240459 -0.33832,2.051061 -0.003,0.810228 0.1056,1.502553 0.32293,2.070171 0.21381,0.558409 0.4624,0.823478 0.74385,0.802351 m 2.77675,0.10983 c 0.25638,-0.02269 0.47369,-0.307229 0.65404,-0.84775 0.17542,-0.539433 0.26405,-1.183014 0.26782,-1.936995 0.004,-0.747229 -0.0774,-1.393188 -0.24527,-1.943906 -0.1728,-0.559535 -0.38511,-0.861364 -0.639,-0.899555 -0.26196,-0.03937 -0.49067,0.207346 -0.68397,0.747056 -0.19632,0.548166 -0.29744,1.230063 -0.30106,2.038964 -0.004,0.800915 0.0914,1.48799 0.28244,2.054524 0.18806,0.549987 0.41036,0.810234 0.665,0.787662"
       id="path4315"
       style="fill:#808080" />
  </g>
</svg>
