<?xml version="1.0" encoding="UTF-8" standalone="no"?>
<!-- Created with Inkscape (http://www.inkscape.org/) -->

<svg
   xmlns:dc="http://purl.org/dc/elements/1.1/"
   xmlns:cc="http://creativecommons.org/ns#"
   xmlns:rdf="http://www.w3.org/1999/02/22-rdf-syntax-ns#"
   xmlns:svg="http://www.w3.org/2000/svg"
   xmlns="http://www.w3.org/2000/svg"
   xmlns:sodipodi="http://sodipodi.sourceforge.net/DTD/sodipodi-0.dtd"
   xmlns:inkscape="http://www.inkscape.org/namespaces/inkscape"
   version="1.1"
   width="156.44119"
   height="169.22659"
   viewBox="0 0 156.44119 169.22659"
   id="svg2"
   inkscape:version="0.48.5 r10040"
   sodipodi:docname="d20_20.svg">
  <sodipodi:namedview
     pagecolor="#ffffff"
     bordercolor="#666666"
     borderopacity="1"
     objecttolerance="10"
     gridtolerance="10"
     guidetolerance="10"
     inkscape:pageopacity="0"
     inkscape:pageshadow="2"
     inkscape:window-width="1680"
     inkscape:window-height="1001"
     id="namedview3535"
     showgrid="false"
     inkscape:zoom="4.6978432"
     inkscape:cx="78.220596"
     inkscape:cy="81.297216"
     inkscape:window-x="0"
     inkscape:window-y="1"
     inkscape:window-maximized="1"
     inkscape:current-layer="svg2" />
  <metadata
     id="metadata21">
    <rdf:RDF>
      <cc:Work
         rdf:about="">
        <dc:format>image/svg+xml</dc:format>
        <dc:type
           rdf:resource="http://purl.org/dc/dcmitype/StillImage" />
        <dc:title />
      </cc:Work>
    </rdf:RDF>
  </metadata>
  <defs
     id="defs19" />
  <g
     transform="translate(-37.3019,-75.296)"
     id="g3036">
    <g
       transform="translate(112.5,150)"
       id="widget">
      <path
         d="M 61.1112,45.8264 4.63537,94.5226 -53.0845,46.7585 z"
         id="path5"
         style="fill:#d3d3d3;fill-opacity:1" />
      <path
         d="m 4.60797,-74.704 5.41843,22.7464 -83.219,19.8238 z"
         id="path7"
         style="fill:#d3d3d3;fill-opacity:1" />
      <path
         d="m 3.44252,-74.704 -5.41846,22.7465 83.21904,19.8237 z"
         id="path9"
         style="fill:#d3d3d3;fill-opacity:1" />
      <path
         d="M -53.4025,46.9333 -75.1981,-32.1548 3.9369,-55.0094 z"
         id="path11"
         style="fill:#f0f0f0;fill-opacity:1" />
      <path
         d="M 62.2343,46.0943 81.1564,-32.4527 3.23229,-55.0429 z"
         id="path13"
         style="fill:#f0f0f0;fill-opacity:1" />
      <path
         d="M -53.5597,46.8415 3.67051,-54.4309 62.579,46.143 z"
         id="path15"
         style="fill:#f8f8f8;fill-opacity:1" />
    </g>
  </g>
  <g
     id="text3045"
     style="font-size:41.2510643px;font-style:normal;font-variant:normal;font-weight:500;font-stretch:normal;line-height:125%;letter-spacing:0px;word-spacing:0px;fill:#000000;fill-opacity:1;stroke:none;font-family:Futura;-inkscape-font-specification:Futura Medium">
    <path
       d="m 65.033882,96.998925 11.581719,0 0,4.411125 -20.887379,0 10.796177,-13.072237 c 1.060805,-1.30251 1.947058,-2.430467 2.65876,-3.383877 0.725101,-0.953376 1.275652,-1.752346 1.651654,-2.396912 0.765383,-1.26222 1.148083,-2.396891 1.148101,-3.404019 -1.8e-5,-1.450209 -0.510284,-2.665449 -1.530802,-3.645723 -1.020549,-0.980223 -2.282787,-1.470348 -3.786718,-1.470375 -3.14218,2.7e-5 -4.941541,1.859814 -5.398089,5.579367 l -4.672972,0 c 0.75197,-6.552875 4.061988,-9.829323 9.930066,-9.829355 2.83331,3.2e-5 5.210078,0.899712 7.130311,2.699044 1.933622,1.79939 2.900443,4.028449 2.900465,6.687185 -2.2e-5,1.691958 -0.449862,3.350325 -1.349522,4.975104 -0.456575,0.845985 -1.127978,1.85309 -2.014212,3.021318 -0.872843,1.154828 -1.980659,2.524491 -3.32345,4.108992 l -4.834109,5.720363"
       id="path3005" />
    <path
       d="m 81.912979,85.658911 c -2e-6,-4.954941 1.154812,-8.909507 3.464444,-11.86371 2.067918,-2.672158 4.572252,-4.00825 7.513012,-4.008282 2.940734,3.2e-5 5.445068,1.336124 7.513015,4.008282 2.3096,2.954203 3.46442,6.975909 3.46444,12.065131 -2e-5,5.075825 -1.15484,9.090817 -3.46444,12.044988 -2.067947,2.67219 -4.565567,4.00828 -7.492873,4.00828 -2.927332,0 -5.43838,-1.33609 -7.533154,-4.00828 -2.309632,-2.954171 -3.464446,-7.036303 -3.464444,-12.246409 m 4.612545,0.02014 c -6e-6,3.451029 0.597543,6.317921 1.792649,8.600686 1.19509,2.242494 2.719176,3.363738 4.572262,3.363734 1.839632,4e-6 3.363718,-1.12124 4.572261,-3.363734 1.208509,-2.229053 1.812772,-5.042233 1.812791,-8.439549 -1.9e-5,-3.397286 -0.604282,-6.21718 -1.812791,-8.459691 -1.208543,-2.229035 -2.732629,-3.343565 -4.572261,-3.343592 -1.82623,2.7e-5 -3.343602,1.114557 -4.55212,3.343592 -1.208534,2.215655 -1.812797,4.981837 -1.812791,8.298554"
       id="path3007" />
  </g>
  <g
     transform="matrix(0.38437823,0.29263338,-0.23414035,0.48040374,59.728049,15.882114)"
     id="text3045-1"
     style="font-size:30px;font-style:normal;font-variant:normal;font-weight:500;font-stretch:normal;line-height:125%;letter-spacing:0px;word-spacing:0px;fill:#808080;fill-opacity:1;stroke:none;font-family:Futura;-inkscape-font-specification:Futura Medium">
    <path
       d="m -15.924346,104.61861 c 0,0 -0.245288,-23.398874 -0.245288,-23.398874 0,0 8.9083838,-2.16534 8.9083838,-2.16534 0,0 0.6457586,47.163714 0.6457586,47.163714 0,0 -22.6738154,-24.7176 -22.6738154,-24.7176 -1.647455,-1.771347 -3.009962,-3.183984 -4.117981,-4.273374 -1.070515,-1.073474 -1.939774,-1.857211 -2.623188,-2.369589 -1.295362,-1.014545 -2.412475,-1.442656 -3.368648,-1.319476 -1.323963,0.170617 -2.387152,1.014144 -3.215879,2.503607 -0.805276,1.447431 -1.198897,3.162375 -1.197801,5.177452 0.0024,4.21948 1.538035,6.83455 4.885518,7.92653 0,0 0.01577,6.88587 0.01577,6.88587 -5.665793,-2.44261 -8.105305,-7.22123 -8.100977,-14.64368 0.0021,-3.569803 0.647711,-6.636402 1.985305,-9.303325 1.406465,-2.82205 3.254964,-4.558281 5.632798,-5.132751 1.621177,-0.391613 3.302192,-0.114464 5.04659,0.889401 0.948414,0.527028 2.116605,1.382259 3.527801,2.592161 1.457179,1.243905 3.272239,2.918653 5.499214,5.082536 0,0 9.396444,9.102738 9.396444,9.102738"
       id="path3073"
       style="fill:#808080" />
  </g>
  <g
     transform="matrix(-0.67242995,0.27589869,-0.34255672,-0.58290975,138.21821,110.64894)"
     id="text3175"
     style="font-size:12px;font-style:normal;font-variant:normal;font-weight:500;font-stretch:normal;line-height:125%;letter-spacing:0px;word-spacing:0px;fill:#808080;fill-opacity:1;stroke:none;font-family:Futura;-inkscape-font-specification:Futura Medium">
    <path
       d="m -41.013526,90.099567 c 0,0 0.0046,3.914964 0.0046,3.914964 0,0 -3.348564,-2.688437 -3.348564,-2.688437 0,0 7.8e-5,-5.116656 7.8e-5,-5.116656 0,0 38.6312545,5.58169 38.6312545,5.58169 0,0 0.076391,5.579266 0.076391,5.579266 0,0 -35.3637465,-7.270827 -35.3637465,-7.270827"
       id="path3180"
       style="fill:#808080" />
    <path
       d="m -21.475422,63.529193 c 0,0 -0.02607,-3.184438 -0.02607,-3.184438 0,0 6.818656,-1.657396 6.818656,-1.657396 0,0 0.03693,3.47125 0.03693,3.47125 0,0 8.4906791,-1.703955 8.4906791,-1.703955 0,0 0.0747,5.455772 0.0747,5.455772 0,0 -8.5127531,1.194808 -8.5127531,1.194808 0,0 0.172504,16.214556 0.172504,16.214556 0,0 -31.531937,-14.878364 -31.531937,-14.878364 0,0 24.477288,-4.912233 24.477288,-4.912233 m 0.03714,4.536773 c 0,0 -12.718368,1.785087 -12.718368,1.785087 0,0 12.775343,5.175192 12.775343,5.175192 0,0 -0.05697,-6.960279 -0.05697,-6.960279"
       id="path3182"
       style="fill:#808080" />
  </g>
  <g
     transform="matrix(-0.01344362,-0.58575615,0.61949885,-0.01271138,30.376006,128.90258)"
     id="text3224"
     style="font-size:12px;font-style:normal;font-variant:normal;font-weight:500;font-stretch:normal;line-height:125%;letter-spacing:0px;word-spacing:0px;fill:#808080;fill-opacity:1;stroke:none;font-family:Futura;-inkscape-font-specification:Futura Medium">
    <path
       d="m -32.246764,89.163588 c -1.75321,3.544148 -4.009045,4.887836 -6.650143,4.215015 -2.206459,-0.562087 -3.924807,-2.251087 -5.228101,-4.991758 -1.239663,-2.625344 -1.836063,-5.644006 -1.834035,-9.144362 0.0021,-3.473539 0.599207,-6.429085 1.832816,-8.957872 1.281562,-2.646346 2.986766,-4.252745 5.193941,-4.753015 2.507729,-0.568315 4.729479,0.797264 6.580087,4.288418 0.7495,-2.249913 1.88116,-4.155062 3.434489,-5.730793 1.626592,-1.674601 3.556571,-2.806274 5.835795,-3.360318 4.249775,-1.032942 8.136497,-0.04085 11.478664,3.263105 3.6336039,3.592146 5.6179477,8.874109 5.7104578,15.630133 0.095172,6.95158 -1.7731499,12.418044 -5.3778908,16.138788 -3.330019,3.467168 -7.20189,4.469261 -11.429514,3.303248 -4.858066,-1.339874 -7.908253,-4.668652 -9.546566,-9.900589 m -6.681504,-2.613584 c 1.22965,0.168241 2.299609,-0.406841 3.188954,-1.759141 0.929123,-1.412682 1.400236,-3.205142 1.392622,-5.343409 -0.0075,-2.112751 -0.489982,-3.899 -1.425169,-5.327038 -0.906512,-1.384267 -1.954764,-1.993877 -3.129289,-1.864356 -1.128662,0.124515 -2.06163,0.900934 -2.816503,2.304761 -0.735337,1.367613 -1.09545,2.95052 -1.094494,4.776826 0.001,1.828721 0.363698,3.426951 1.103393,4.821752 0.760864,1.434674 1.682846,2.240446 2.780486,2.390605 m 15.919889,3.327638 c 2.179572,0.332178 4.149916,-0.400444 5.866697,-2.271352 1.767985,-1.984412 2.664338,-4.583114 2.63096,-7.725556 -0.03298,-3.1061 -0.968774,-5.702782 -2.745801,-7.725065 -1.721214,-1.931429 -3.672742,-2.729487 -5.816203,-2.469142 -2.044176,0.248351 -3.689661,1.379762 -4.984423,3.349746 -1.248919,1.900344 -1.850488,4.086544 -1.837527,6.611996 0.0129,2.506155 0.639147,4.722034 1.914832,6.700263 1.326083,2.031464 2.969685,3.224054 4.971465,3.52911"
       id="path3229"
       style="fill:#808080" />
  </g>
  <g
     transform="matrix(-0.20934462,0.33820147,-0.69919183,0.16444424,77.748111,20.176606)"
     id="text3460"
     style="font-size:12px;font-style:normal;font-variant:normal;font-weight:500;font-stretch:normal;line-height:125%;letter-spacing:0px;word-spacing:0px;fill:#808080;fill-opacity:1;stroke:none;font-family:Futura;-inkscape-font-specification:Futura Medium">
    <path
       d="m -34.356095,29.833418 c 0,0 -0.139609,1.951434 -0.139609,1.951434 0,0 -1.212205,-2.080373 -1.212205,-2.080373 0,0 0.183781,-2.4438 0.183781,-2.4438 0,0 23.794981,16.36655 23.794981,16.36655 0,0 -0.0476,4.614061 -0.0476,4.614061 0,0 -22.579349,-18.407872 -22.579349,-18.407872"
       id="path3465"
       style="fill:#808080" />
    <path
       d="m -29.358879,24.826358 c -0.931388,0.713565 -2.024697,0.77137 -3.20166,0.276796 -0.93499,-0.392893 -1.612864,-0.985549 -2.086104,-1.76479 -0.438116,-0.72622 -0.614791,-1.473468 -0.553951,-2.278389 0.06028,-0.797213 0.340111,-1.439903 0.865653,-1.956181 0.55896,-0.553311 1.290438,-0.852557 2.246537,-0.869125 1.139508,-0.01973 2.16704,0.442029 3.020182,1.462272 0.420771,-0.545062 1.041889,-0.98461 1.900753,-1.322663 0.93186,-0.373414 2.067437,-0.592465 3.462,-0.636627 2.815887,-0.08914 5.637583,0.445405 8.271358,1.782654 3.169942,1.609509 5.000662,3.798551 4.982043,6.334344 -0.01934,2.633219 -1.937014,4.220362 -5.250074,4.665516 -2.778319,0.383268 -5.65913,-0.175109 -8.450665,-1.403796 -2.865241,-1.261125 -4.457963,-2.660013 -5.206072,-4.290011 m -3.095053,-1.420961 c 0.542481,0.168078 1.038727,0.1349 1.475128,-0.116915 0.46439,-0.26794 0.722332,-0.684717 0.75654,-1.239135 0.03377,-0.546973 -0.166318,-1.046828 -0.583449,-1.483292 -0.396204,-0.41457 -0.862007,-0.637631 -1.386029,-0.682349 -0.491884,-0.04196 -0.901801,0.08603 -1.241476,0.373149 -0.326287,0.275832 -0.500242,0.62564 -0.531461,1.058265 -0.03128,0.433668 0.08852,0.843752 0.368391,1.242188 0.292459,0.416352 0.669592,0.701617 1.142356,0.848089 m 8.273886,2.911541 c 1.395267,0.452482 2.743197,0.559714 3.996336,0.26279 1.350406,-0.338623 2.08731,-1.043623 2.11667,-2.086988 0.02893,-1.027769 -0.644495,-1.994871 -1.92543,-2.842907 -1.183676,-0.774894 -2.486789,-1.193609 -3.866069,-1.297589 -1.250164,-0.09422 -2.229947,0.09424 -2.99459,0.536072 -0.717258,0.414478 -1.078489,0.954961 -1.11662,1.642355 -0.0379,0.683493 0.25816,1.360783 0.921481,2.065213 0.712006,0.748582 1.651257,1.326406 2.868222,1.721054"
       id="path3467"
       style="fill:#808080" />
  </g>
  <g
     transform="matrix(0.5072468,0.4503635,-0.4298539,-0.09397013,140.45976,34.585023)"
     id="text3521"
     style="font-size:12px;font-style:normal;font-variant:normal;font-weight:500;font-stretch:normal;line-height:125%;letter-spacing:0px;word-spacing:0px;fill:#808080;fill-opacity:1;stroke:none;font-family:Futura;-inkscape-font-specification:Futura Medium">
    <path
       d="m -20.068141,63.47677 c 0,0 0.136474,-3.285866 0.136474,-3.285866 0,0 4.861978,-0.153927 4.861978,-0.153927 0,0 -0.109779,3.916337 -0.109779,3.916337 0,0 7.5151864,0.732574 7.5151864,0.732574 0,0 -0.052669,7.172376 -0.052669,7.172376 0,0 -7.6226614,-2.191899 -7.6226614,-2.191899 0,0 -0.557683,19.895072 -0.557683,19.895072 0,0 -16.446697,-27.281307 -16.446697,-27.281307 0,0 12.275851,1.19664 12.275851,1.19664 m -0.198236,4.772903 c 0,0 -7.186134,-2.066375 -7.186134,-2.066375 0,0 6.872977,9.606204 6.872977,9.606204 0,0 0.313157,-7.539829 0.313157,-7.539829"
       id="path3526"
       style="fill:#808080" />
  </g>
</svg>
