<?xml version="1.0" encoding="UTF-8" standalone="no"?>
<!-- Created with Inkscape (http://www.inkscape.org/) -->

<svg
   xmlns:dc="http://purl.org/dc/elements/1.1/"
   xmlns:cc="http://creativecommons.org/ns#"
   xmlns:rdf="http://www.w3.org/1999/02/22-rdf-syntax-ns#"
   xmlns:svg="http://www.w3.org/2000/svg"
   xmlns="http://www.w3.org/2000/svg"
   xmlns:sodipodi="http://sodipodi.sourceforge.net/DTD/sodipodi-0.dtd"
   xmlns:inkscape="http://www.inkscape.org/namespaces/inkscape"
   sodipodi:docname="d20_11.svg"
   inkscape:version="0.48.5 r10040"
   id="svg2"
   viewBox="0 0 156.44119 169.22659"
   height="169.22659"
   width="156.44119"
   version="1.1">
  <sodipodi:namedview
     pagecolor="#ffffff"
     bordercolor="#666666"
     borderopacity="1"
     objecttolerance="10"
     gridtolerance="10"
     guidetolerance="10"
     inkscape:pageopacity="0"
     inkscape:pageshadow="2"
     inkscape:window-width="1680"
     inkscape:window-height="1001"
     id="namedview27"
     showgrid="false"
     inkscape:zoom="4.6978432"
     inkscape:cx="78.220596"
     inkscape:cy="84.613297"
     inkscape:window-x="0"
     inkscape:window-y="1"
     inkscape:window-maximized="1"
     inkscape:current-layer="svg2" />
  <metadata
     id="metadata21">
    <rdf:RDF>
      <cc:Work
         rdf:about="">
        <dc:format>image/svg+xml</dc:format>
        <dc:type
           rdf:resource="http://purl.org/dc/dcmitype/StillImage" />
        <dc:title />
      </cc:Work>
    </rdf:RDF>
  </metadata>
  <defs
     id="defs19" />
  <g
     id="g3036"
     transform="translate(-37.3019,-75.296)">
    <g
       id="widget"
       transform="translate(112.5,150)">
      <path
         style="fill:#d3d3d3;fill-opacity:1"
         id="path5"
         d="M 61.1112,45.8264 4.63537,94.5226 -53.0845,46.7585 z" />
      <path
         style="fill:#d3d3d3;fill-opacity:1"
         id="path7"
         d="m 4.60797,-74.704 5.41843,22.7464 -83.219,19.8238 z" />
      <path
         style="fill:#d3d3d3;fill-opacity:1"
         id="path9"
         d="m 3.44252,-74.704 -5.41846,22.7465 83.21904,19.8237 z" />
      <path
         style="fill:#f0f0f0;fill-opacity:1"
         id="path11"
         d="M -53.4025,46.9333 -75.1981,-32.1548 3.9369,-55.0094 z" />
      <path
         style="fill:#f0f0f0;fill-opacity:1"
         id="path13"
         d="M 62.2343,46.0943 81.1564,-32.4527 3.23229,-55.0429 z" />
      <path
         style="fill:#f8f8f8;fill-opacity:1"
         id="path15"
         d="M -53.5597,46.8415 3.67051,-54.4309 62.579,46.143 z" />
    </g>
  </g>
  <g
     style="font-size:41.2510643px;font-style:normal;font-variant:normal;font-weight:500;font-stretch:normal;line-height:125%;letter-spacing:0px;word-spacing:0px;fill:#000000;fill-opacity:1;stroke:none;font-family:Futura;-inkscape-font-specification:Futura Medium"
     id="text3045">
    <path
       d="m 65.879851,74.701597 -5.377947,0 2.578192,-4.390983 7.492869,0 0,31.099436 -4.693114,0 0,-26.708453"
       style=""
       id="path3598" />
    <path
       d="m 85.33714,74.701597 -5.377947,0 2.578192,-4.390983 7.492869,0 0,31.099436 -4.693114,0 0,-26.708453"
       style=""
       id="path3600" />
  </g>
  <g
     transform="matrix(-0.98555786,0.92145773,-0.58319712,-0.46938749,147.86406,-30.660659)"
     style="font-size:12px;font-style:normal;font-variant:normal;font-weight:500;font-stretch:normal;line-height:125%;letter-spacing:0px;word-spacing:0px;fill:#808080;fill-opacity:1;stroke:none;font-family:Futura;-inkscape-font-specification:Futura Medium"
     id="text3356">
    <path
       inkscape:connector-curvature="0"
       d="m 119.76279,24.556179 c 0,0 -2.00186,3.597214 -2.00186,3.597214 0,0 -6.00412,-8.753055 -6.00412,-8.753055 0.0214,0.497384 0.0358,0.916055 0.0433,1.257947 0.007,0.339542 0.008,0.612406 0.002,0.819629 -0.0891,2.88677 -0.76358,5.219723 -1.98884,7.067205 -1.1686,1.761532 -2.53716,2.573584 -4.14136,2.487582 -1.7107,-0.09171 -3.24484,-1.160565 -4.6484,-3.278492 -1.480958,-2.234758 -2.418825,-5.004171 -2.777172,-8.396259 -0.382565,-3.621737 -0.0079,-6.947742 1.19342,-9.8955146 1.259992,-3.1174555 2.976252,-4.6765194 5.091082,-4.5412782 1.8723,0.1197934 3.89743,1.8710044 5.98435,5.1092468 0,0 9.24798,14.525775 9.24798,14.525775 m -14.47055,1.829975 c 1.05586,0.05855 1.93184,-0.504181 2.64229,-1.711416 0.73801,-1.254023 1.11708,-2.839333 1.12239,-4.787319 0.006,-2.027546 -0.3884,-3.843706 -1.20008,-5.420762 -0.84663,-1.644953 -1.87059,-2.522958 -3.0528,-2.595344 -1.18329,-0.0724 -2.14919,0.685217 -2.88037,2.23787 -0.7018,1.490398 -0.96353,3.281813 -0.80512,5.341563 0.14972,1.94624 0.64553,3.570569 1.47438,4.9015 0.81583,1.30999 1.71026,1.979072 2.69931,2.033908"
       id="path3361"
       style="fill:#808080" />
  </g>
  <g
     transform="matrix(-0.98355749,0.58425141,-0.64537022,-0.89041117,-81.002554,192.38881)"
     id="text3401"
     style="font-size:12px;font-style:normal;font-variant:normal;font-weight:500;font-stretch:normal;line-height:125%;letter-spacing:0px;word-spacing:0px;fill:#808080;fill-opacity:1;stroke:none;font-family:Futura;-inkscape-font-specification:Futura Medium">
    <path
       inkscape:connector-curvature="0"
       id="path3406"
       d="m -145.77411,-27.040015 c 0,0 0.39265,4.449173 0.39265,4.449173 0,0 -3.87583,-2.551371 -3.87583,-2.551371 0,0 -0.41659,-6.112586 -0.41659,-6.112586 0,0 22.48536,3.173661 22.48536,3.173661 0,0 0.64389,3.33983 0.64389,3.33983 0,0 -19.22948,-2.298707 -19.22948,-2.298707"
       style="fill:#808080" />
    <path
       inkscape:connector-curvature="0"
       id="path3408"
       d="m -138.52453,-41.364658 c 0,0 -2.73687,-0.58322 -2.73687,-0.58322 -0.15851,-1.282341 -0.41594,-2.167653 -0.77366,-2.670222 -0.62862,-0.892739 -1.53812,-1.478091 -2.7428,-1.76112 -0.94368,-0.221689 -1.69218,-0.122003 -2.24337,0.305428 -0.56969,0.422609 -0.81863,1.093291 -0.74003,2.01531 0.0742,0.869508 0.36928,1.597655 0.88492,2.177598 0.52418,0.563897 1.36584,1.074725 2.51581,1.528856 0,0 0.33595,3.236131 0.33595,3.236131 -2.23948,-0.743505 -3.94684,-1.75384 -5.08419,-3.018103 -1.14728,-1.265714 -1.78207,-2.83306 -1.90265,-4.670937 -0.11902,-1.814743 0.3961,-3.120467 1.5197,-3.930442 1.08341,-0.79038 2.51564,-0.951114 4.29041,-0.505181 1.95764,0.491908 3.53538,1.545652 4.77102,3.174995 0.79067,-1.314378 2.27154,-1.679259 4.41761,-1.136399 1.71554,0.433973 3.18734,1.322243 4.4428,2.671693 1.25539,1.349386 2.05239,2.894614 2.39651,4.663735 0.44923,2.309501 -0.0473,3.904892 -1.53847,4.760562 -0.64277,0.36264 -1.61286,0.495999 -2.92089,0.394518 0,0 -0.48862,-3.002019 -0.48862,-3.002019 0.94254,0.03345 1.61315,-0.19706 2.01765,-0.686177 0.38926,-0.49273 0.49764,-1.205907 0.33043,-2.136614 -0.16682,-0.928555 -0.61069,-1.758949 -1.33334,-2.499268 -0.73965,-0.744621 -1.60169,-1.23354 -2.59494,-1.468496 -1.33234,-0.315149 -2.22751,-0.08785 -2.67489,0.696638 -0.26006,0.46749 -0.3107,1.278927 -0.14809,2.442734"
       style="fill:#808080" />
  </g>
  <g
     style="font-size:12px;font-style:normal;font-variant:normal;font-weight:500;font-stretch:normal;line-height:125%;letter-spacing:0px;word-spacing:0px;fill:#808080;fill-opacity:1;stroke:none;font-family:Futura;-inkscape-font-specification:Futura Medium"
     id="text3454"
     transform="matrix(0.09162964,-0.99579315,0.99579315,0.09162964,115.15034,65.504974)">
    <path
       d="m 18.775149,7.7271251 c 0,0 -0.04426,-4.3615725 -0.04426,-4.3615725 0,0 3.120542,0.7477556 3.120542,0.7477556 0,0 -0.15471,4.235016 -0.15471,4.235016 0,0 2.908853,0.6184946 2.908853,0.6184946 0,0 -0.42228,5.0308162 -0.42228,5.0308162 0,0 -2.675382,-0.480893 -2.675382,-0.480893 0,0 -0.443899,12.151172 -0.443899,12.151172 0,0 -21.58851738,-22.0443745 -21.58851738,-22.0443745 0,0 19.29965138,4.1035856 19.29965138,4.1035856 m 0.05386,5.3080929 c 0,0 -6.9292,-1.245503 -6.9292,-1.245503 0,0 6.995985,7.826962 6.995985,7.826962 0,0 -0.06678,-6.581459 -0.06678,-6.581459"
       id="path3459"
       inkscape:connector-curvature="0"
       style="fill:#808080" />
  </g>
  <g
     transform="matrix(-0.95659482,0.60698043,-0.34863724,-0.06756198,175.05779,-49.032935)"
     style="font-size:12px;font-style:normal;font-variant:normal;font-weight:500;font-stretch:normal;line-height:125%;letter-spacing:0px;word-spacing:0px;fill:#808080;fill-opacity:1;stroke:none;font-family:Futura;-inkscape-font-specification:Futura Medium"
     id="text3356-3">
    <path
       inkscape:connector-curvature="0"
       d="m 119.76279,24.556179 c 0,0 -2.00186,3.597214 -2.00186,3.597214 0,0 -6.00412,-8.753055 -6.00412,-8.753055 0.0214,0.497384 0.0358,0.916055 0.0433,1.257947 0.007,0.339542 0.008,0.612406 0.002,0.819629 -0.0891,2.88677 -0.76358,5.219723 -1.98884,7.067205 -1.1686,1.761532 -2.53716,2.573584 -4.14136,2.487582 -1.7107,-0.09171 -3.24484,-1.160565 -4.6484,-3.278492 -1.480958,-2.234758 -2.418825,-5.004171 -2.777172,-8.396259 -0.382565,-3.621737 -0.0079,-6.947742 1.19342,-9.8955146 1.259992,-3.1174555 2.976252,-4.6765194 5.091082,-4.5412782 1.8723,0.1197934 3.89743,1.8710044 5.98435,5.1092468 0,0 9.24798,14.525775 9.24798,14.525775 m -14.47055,1.829975 c 1.05586,0.05855 1.93184,-0.504181 2.64229,-1.711416 0.73801,-1.254023 1.11708,-2.839333 1.12239,-4.787319 0.006,-2.027546 -0.3884,-3.843706 -1.20008,-5.420762 -0.84663,-1.644953 -1.87059,-2.522958 -3.0528,-2.595344 -1.18329,-0.0724 -2.14919,0.685217 -2.88037,2.23787 -0.7018,1.490398 -0.96353,3.281813 -0.80512,5.341563 0.14972,1.94624 0.64553,3.570569 1.47438,4.9015 0.81583,1.30999 1.71026,1.979072 2.69931,2.033908"
       id="path3361-4"
       style="fill:#808080" />
  </g>
  <g
     transform="matrix(0.47505196,-0.87995775,0.87995775,0.47505196,265.89261,-179.11468)"
     id="text3530"
     style="font-size:12px;font-style:normal;font-variant:normal;font-weight:500;font-stretch:normal;line-height:125%;letter-spacing:0px;word-spacing:0px;fill:#808080;fill-opacity:1;stroke:none;font-family:Futura;-inkscape-font-specification:Futura Medium">
    <path
       inkscape:connector-curvature="0"
       id="path3535"
       d="m -253.17542,-41.223228 c 0,0 -0.0397,3.020359 -0.0397,3.020359 0,0 -1.01295,-1.001722 -1.01295,-1.001722 0,0 0.0557,-4.375121 0.0557,-4.375121 0,0 5.97214,-1.651546 5.97214,-1.651546 0,0 -0.0327,2.160793 -0.0327,2.160793 0,0 -4.94248,1.847237 -4.94248,1.847237"
       style="fill:#808080" />
    <path
       inkscape:connector-curvature="0"
       id="path3537"
       d="m -249.40382,-57.997644 c 0,0 0.0239,-1.636396 0.0239,-1.636396 0,0 0.70525,0.251116 0.70525,0.251116 0,0 -0.0236,1.586701 -0.0236,1.586701 0,0 0.68533,0.195655 0.68533,0.195655 0,0 -0.033,2.182438 -0.033,2.182438 0,0 -0.68575,-0.127294 -0.68575,-0.127294 0,0 -0.10841,7.294244 -0.10841,7.294244 0,0 -5.7082,-11.215176 -5.7082,-11.215176 0,0 5.14454,1.468712 5.14454,1.468712 m -0.0338,2.321183 c 0,0 -1.92131,-0.35665 -1.92131,-0.35665 0,0 1.86973,3.894826 1.86973,3.894826 0,0 0.0516,-3.538176 0.0516,-3.538176"
       style="fill:#808080" />
  </g>
</svg>
