<?xml version="1.0" encoding="UTF-8" standalone="no"?>
<!-- Created with Inkscape (http://www.inkscape.org/) -->

<svg
   xmlns:dc="http://purl.org/dc/elements/1.1/"
   xmlns:cc="http://creativecommons.org/ns#"
   xmlns:rdf="http://www.w3.org/1999/02/22-rdf-syntax-ns#"
   xmlns:svg="http://www.w3.org/2000/svg"
   xmlns="http://www.w3.org/2000/svg"
   xmlns:sodipodi="http://sodipodi.sourceforge.net/DTD/sodipodi-0.dtd"
   xmlns:inkscape="http://www.inkscape.org/namespaces/inkscape"
   version="1.1"
   width="156.44119"
   height="169.22659"
   viewBox="0 0 156.44119 169.22659"
   id="svg2"
   inkscape:version="0.48.5 r10040"
   sodipodi:docname="d20_13.svg">
  <sodipodi:namedview
     pagecolor="#ffffff"
     bordercolor="#666666"
     borderopacity="1"
     objecttolerance="10"
     gridtolerance="10"
     guidetolerance="10"
     inkscape:pageopacity="0"
     inkscape:pageshadow="2"
     inkscape:window-width="1680"
     inkscape:window-height="1001"
     id="namedview3341"
     showgrid="false"
     inkscape:zoom="4.6978432"
     inkscape:cx="78.220596"
     inkscape:cy="84.613297"
     inkscape:window-x="0"
     inkscape:window-y="1"
     inkscape:window-maximized="1"
     inkscape:current-layer="svg2" />
  <metadata
     id="metadata21">
    <rdf:RDF>
      <cc:Work
         rdf:about="">
        <dc:format>image/svg+xml</dc:format>
        <dc:type
           rdf:resource="http://purl.org/dc/dcmitype/StillImage" />
        <dc:title />
      </cc:Work>
    </rdf:RDF>
  </metadata>
  <defs
     id="defs19" />
  <g
     transform="translate(-37.3019,-75.296)"
     id="g3036">
    <g
       transform="translate(112.5,150)"
       id="widget">
      <path
         d="M 61.1112,45.8264 4.63537,94.5226 -53.0845,46.7585 z"
         id="path5"
         style="fill:#d3d3d3;fill-opacity:1" />
      <path
         d="m 4.60797,-74.704 5.41843,22.7464 -83.219,19.8238 z"
         id="path7"
         style="fill:#d3d3d3;fill-opacity:1" />
      <path
         d="m 3.44252,-74.704 -5.41846,22.7465 83.21904,19.8237 z"
         id="path9"
         style="fill:#d3d3d3;fill-opacity:1" />
      <path
         d="M -53.4025,46.9333 -75.1981,-32.1548 3.9369,-55.0094 z"
         id="path11"
         style="fill:#f0f0f0;fill-opacity:1" />
      <path
         d="M 62.2343,46.0943 81.1564,-32.4527 3.23229,-55.0429 z"
         id="path13"
         style="fill:#f0f0f0;fill-opacity:1" />
      <path
         d="M -53.5597,46.8415 3.67051,-54.4309 62.579,46.143 z"
         id="path15"
         style="fill:#f8f8f8;fill-opacity:1" />
    </g>
  </g>
  <g
     id="text3045"
     style="font-size:41.2510643px;font-style:normal;font-variant:normal;font-weight:500;font-stretch:normal;line-height:125%;letter-spacing:0px;word-spacing:0px;fill:#000000;fill-opacity:1;stroke:none;font-family:Futura;-inkscape-font-specification:Futura Medium">
    <path
       d="m 65.879851,74.701597 -5.377947,0 2.578192,-4.390983 7.492869,0 0,31.099436 -4.693114,0 0,-26.708453"
       id="path4124" />
    <path
       d="m 87.89519,86.968149 0,-4.008283 c 1.987343,1.9e-5 3.323436,-0.221544 4.008282,-0.66469 1.22194,-0.778808 1.832917,-2.027619 1.832933,-3.746434 -1.6e-5,-1.329356 -0.443143,-2.410315 -1.32938,-3.242882 -0.872839,-0.845942 -2.007511,-1.268926 -3.404018,-1.268953 -1.302535,2.7e-5 -2.30964,0.315587 -3.021318,0.946679 -0.684841,0.644574 -1.195107,1.732247 -1.530802,3.263024 l -4.672972,0 c 0.483408,-2.927296 1.477085,-5.069072 2.981034,-6.425337 1.503938,-1.369633 3.605431,-2.054464 6.304484,-2.054496 2.725886,3.2e-5 4.948231,0.805716 6.667042,2.417055 1.718774,1.597969 2.578171,3.659177 2.578192,6.183631 -2.1e-5,2.846773 -1.127979,5.062404 -3.383877,6.6469 2.578172,1.517388 3.867266,3.981438 3.867288,7.392158 -2.2e-5,2.793047 -0.939987,5.075819 -2.819897,6.848321 -1.879949,1.772508 -4.290287,2.658758 -7.231022,2.658758 -3.746442,0 -6.526052,-1.37637 -8.338838,-4.129132 -0.751975,-1.154811 -1.228671,-2.752751 -1.430091,-4.793825 l 4.531978,0 c 0.241699,1.503952 0.825819,2.658766 1.752364,3.464445 0.939957,0.792261 2.161911,1.188389 3.665866,1.188385 1.51736,4e-6 2.772884,-0.503549 3.766577,-1.510659 0.993661,-1.033956 1.4905,-2.343193 1.490517,-3.927714 -1.7e-5,-2.094769 -0.745275,-3.585285 -2.235776,-4.471551 -0.872839,-0.510253 -2.222359,-0.765386 -4.048566,-0.7654"
       id="path4126" />
  </g>
  <g
     transform="matrix(7.4138903e-4,-0.50755297,0.21915722,0.00171701,52.085493,125.55192)"
     id="text3736"
     style="font-size:12px;font-style:normal;font-variant:normal;font-weight:500;font-stretch:normal;line-height:125%;letter-spacing:0px;word-spacing:0px;fill:#808080;fill-opacity:1;stroke:none;font-family:Futura;-inkscape-font-specification:Futura Medium">
    <path
       d="m -42.40542,131.89981 c 0,0 0.128054,20.13937 0.128054,20.13937 0,0 -4.591809,-9.96756 -4.591809,-9.96756 0,0 -0.146594,-27.00288 -0.146594,-27.00288 0,0 39.9566826,-5.40318 39.9566826,-5.40318 0,0 0.299365,21.8645 0.299365,21.8645 0,0 -35.6456986,0.36975 -35.6456986,0.36975"
       id="path3741"
       style="fill:#808080"
       inkscape:connector-curvature="0" />
  </g>
  <g
     transform="matrix(0.56150933,0.33185648,-0.40595244,0.71213916,100.23167,-24.039561)"
     id="text3775"
     style="font-size:12px;font-style:normal;font-variant:normal;font-weight:500;font-stretch:normal;line-height:125%;letter-spacing:0px;word-spacing:0px;fill:#808080;fill-opacity:1;stroke:none;font-family:Futura;-inkscape-font-specification:Futura Medium">
    <path
       d="m -42.32116,145.15165 c 0,0 0.04379,6.88754 0.04379,6.88754 0,0 -4.558344,-3.80327 -4.558344,-3.80327 0,0 -0.05031,-9.26685 -0.05031,-9.26685 0,0 40.2510349,1.67141 40.2510349,1.67141 0,0 0.1031079,7.53062 0.1031079,7.53062 0,0 -35.7892848,-3.01945 -35.7892848,-3.01945"
       id="path3780"
       style="fill:#808080" />
    <path
       d="m -42.478577,120.39422 c 0,0 0.04335,6.81771 0.04335,6.81771 0,0 -4.530726,-2.96717 -4.530726,-2.96717 0,0 -0.04981,-9.17601 -0.04981,-9.17601 0,0 39.9566828,-5.40317 39.9566828,-5.40317 0,0 0.1017995,7.43505 0.1017995,7.43505 0,0 -35.5212903,3.29359 -35.5212903,3.29359"
       id="path3782"
       style="fill:#808080" />
  </g>
  <g
     transform="matrix(-0.8002531,0.59966238,-0.59966238,-0.8002531,173.35365,157.58369)"
     id="text3822"
     style="font-size:12px;font-style:normal;font-variant:normal;font-weight:500;font-stretch:normal;line-height:125%;letter-spacing:0px;word-spacing:0px;fill:#808080;fill-opacity:1;stroke:none;font-family:Futura;-inkscape-font-specification:Futura Medium">
    <path
       d="m -32.483715,98.520145 c 0,0 -0.235877,8.966395 -0.235877,8.966395 0,0 3.618268,1.55775 3.618268,1.55775 -0.01422,-0.22365 -0.02386,-0.43394 -0.02887,-0.6309 -0.0047,-0.20998 -0.005,-0.40011 -7.33e-4,-0.57046 0.0734,-2.94465 0.890556,-5.38173 2.487827,-7.36117 1.637121,-2.054357 3.775831,-3.217387 6.482141,-3.449608 2.954987,-0.253513 5.494998,0.752478 7.552547,3.098158 2.142667,2.44276 3.213504,5.66803 3.1451964,9.60821 -0.084513,4.8745 -2.1970764,8.50515 -6.1288124,10.75863 0,0 -2.751246,-4.27095 -2.751246,-4.27095 1.573266,-0.93784 2.717266,-1.9471 3.403887,-3.01664 0.68125,-1.08257 1.040288,-2.44453 1.071326,-4.07519 0.04056,-2.13047 -0.574817,-3.91168 -1.822808,-5.31999 -1.255565,-1.37309 -2.757685,-2.01228 -4.485989,-1.94466 -1.718195,0.0673 -3.095948,0.77091 -4.159779,2.09291 -1.075177,1.2966 -1.627335,2.88845 -1.672604,4.79706 -0.05046,2.1285 0.634945,4.01908 2.089884,5.70813 0,0 -0.03676,1.60807 -0.03676,1.60807 0,0 -11.742561,-5.67092 -11.742561,-5.67092 0,0 0.31948,-11.65005 0.31948,-11.65005 0,0 2.895375,-0.234767 2.895375,-0.234767"
       id="path3845"
       style="fill:#808080" />
  </g>
  <g
     transform="matrix(0.09778689,-0.23182324,0.53679682,0.31417557,118.06602,79.764303)"
     id="text3912"
     style="font-size:12px;font-style:normal;font-variant:normal;font-weight:500;font-stretch:normal;line-height:125%;letter-spacing:0px;word-spacing:0px;fill:#808080;fill-opacity:1;stroke:none;font-family:Futura;-inkscape-font-specification:Futura Medium">
    <path
       d="m 173.9774,-42.482636 c 0,0 -0.0655,5.119022 -0.0655,5.119022 0,0 -4.40517,-1.965205 -4.40517,-1.965205 0,0 0.092,-7.424932 0.092,-7.424932 0,0 25.40997,-1.145592 25.40997,-1.145592 0,0 -0.0532,3.616766 -0.0532,3.616766 0,0 -20.97811,1.799941 -20.97811,1.799941"
       id="path3917"
       style="fill:#808080" />
    <path
       d="m 183.5537,-59.329583 c -1.35298,1.922215 -3.2306,2.849633 -5.691,2.740632 -2.33822,-0.103589 -4.36095,-1.025724 -6.02765,-2.803281 -1.71885,-1.846707 -2.58273,-4.08696 -2.55081,-6.677804 0.0319,-2.57858 0.94885,-4.581221 2.70995,-5.974549 1.6953,-1.354159 3.74508,-1.768544 6.10668,-1.289321 2.36524,0.480024 4.20586,1.863977 5.57134,4.119736 0.55703,-0.993612 1.34969,-1.696896 2.36667,-2.111403 0.99669,-0.417485 2.08893,-0.497771 3.26939,-0.251765 1.9506,0.406573 3.47968,1.443843 4.6244,3.091657 1.11548,1.605735 1.64666,3.474655 1.6148,5.636701 -0.0326,2.212911 -0.62145,3.993362 -1.78846,5.367795 -1.19734,1.420686 -2.73129,2.110304 -4.63538,2.038988 -2.59547,-0.09721 -4.48204,-1.380152 -5.56993,-3.887386 m -5.6558,-1.331667 c 1.19141,0.09865 2.1752,-0.227202 2.96251,-0.967558 0.78724,-0.740235 1.18418,-1.678564 1.19963,-2.823374 0.0153,-1.133104 -0.35523,-2.160724 -1.12036,-3.09331 -0.77694,-0.94699 -1.73187,-1.518291 -2.87415,-1.705888 -1.16749,-0.191736 -2.19541,0.0711 -3.07471,0.800319 -0.89338,0.740975 -1.35331,1.729686 -1.36896,2.956964 -0.0156,1.227043 0.41756,2.325363 1.28874,3.283348 0.85718,0.942585 1.85559,1.455795 2.9873,1.549499 m 11.16287,1.407181 c 1.03061,0.08008 1.90472,-0.254498 2.63067,-0.993886 0.70605,-0.73975 1.06339,-1.676114 1.07992,-2.817502 0.0164,-1.130944 -0.30829,-2.146118 -0.98159,-3.055542 -0.69291,-0.924815 -1.54501,-1.476878 -2.56464,-1.648113 -1.05204,-0.176679 -1.97132,0.09487 -2.74924,0.826073 -0.79023,0.742826 -1.19852,1.731012 -1.21542,2.955462 -0.0167,1.21265 0.36281,2.296916 1.12925,3.241565 0.75444,0.918305 1.64736,1.412407 2.67105,1.491943"
       id="path3919"
       style="fill:#808080" />
  </g>
  <g
     transform="matrix(-1.2535015,-0.7186517,0.93299142,-0.62105068,301.64543,162.98824)"
     id="text4058"
     style="font-size:12px;font-style:normal;font-variant:normal;font-weight:500;font-stretch:normal;line-height:125%;letter-spacing:0px;word-spacing:0px;fill:#808080;fill-opacity:1;stroke:none;font-family:Futura;-inkscape-font-specification:Futura Medium">
    <path
       d="m 199.25682,4.2717223 c 0,0 0.0102,-1.4993638 0.0102,-1.4993638 0,0 0.70848,0.1729746 0.70848,0.1729746 0,0 -0.0101,1.4538735 -0.0101,1.4538735 0,0 0.68824,0.1238269 0.68824,0.1238269 0,0 -0.0142,2.0012704 -0.0142,2.0012704 0,0 -0.68837,-0.061153 -0.68837,-0.061153 0,0 -0.0465,6.7012701 -0.0465,6.7012701 0,0 -5.81574,-9.8225291 -5.81574,-9.8225291 0,0 5.16807,0.9298308 5.16807,0.9298308 m -0.0145,2.1284704 c 0,0 -1.92917,-0.1713837 -1.92917,-0.1713837 0,0 1.90711,3.4195345 1.90711,3.4195345 0,0 0.0221,-3.2481508 0.0221,-3.2481508"
       id="path4063"
       style="fill:#808080" />
  </g>
</svg>
