<?xml version="1.0" encoding="UTF-8" standalone="no"?>
<!-- Created with Inkscape (http://www.inkscape.org/) -->

<svg
   xmlns:dc="http://purl.org/dc/elements/1.1/"
   xmlns:cc="http://creativecommons.org/ns#"
   xmlns:rdf="http://www.w3.org/1999/02/22-rdf-syntax-ns#"
   xmlns:svg="http://www.w3.org/2000/svg"
   xmlns="http://www.w3.org/2000/svg"
   xmlns:sodipodi="http://sodipodi.sourceforge.net/DTD/sodipodi-0.dtd"
   xmlns:inkscape="http://www.inkscape.org/namespaces/inkscape"
   version="1.1"
   width="156.44119"
   height="169.22659"
   viewBox="0 0 156.44119 169.22659"
   id="svg2"
   inkscape:version="0.48.5 r10040"
   sodipodi:docname="d20_02.svg">
  <sodipodi:namedview
     pagecolor="#ffffff"
     bordercolor="#666666"
     borderopacity="1"
     objecttolerance="10"
     gridtolerance="10"
     guidetolerance="10"
     inkscape:pageopacity="0"
     inkscape:pageshadow="2"
     inkscape:window-width="1680"
     inkscape:window-height="1001"
     id="namedview27"
     showgrid="false"
     inkscape:zoom="4.6978432"
     inkscape:cx="78.220596"
     inkscape:cy="82.11002"
     inkscape:window-x="0"
     inkscape:window-y="1"
     inkscape:window-maximized="1"
     inkscape:current-layer="svg2" />
  <metadata
     id="metadata21">
    <rdf:RDF>
      <cc:Work
         rdf:about="">
        <dc:format>image/svg+xml</dc:format>
        <dc:type
           rdf:resource="http://purl.org/dc/dcmitype/StillImage" />
        <dc:title />
      </cc:Work>
    </rdf:RDF>
  </metadata>
  <defs
     id="defs19" />
  <g
     id="g3036"
     transform="translate(-37.3019,-75.296)">
    <g
       id="widget"
       transform="translate(112.5,150)">
      <path
         style="fill:#d3d3d3;fill-opacity:1"
         id="path5"
         d="M 61.1112,45.8264 4.63537,94.5226 -53.0845,46.7585 z" />
      <path
         style="fill:#d3d3d3;fill-opacity:1"
         id="path7"
         d="m 4.60797,-74.704 5.41843,22.7464 -83.219,19.8238 z" />
      <path
         style="fill:#d3d3d3;fill-opacity:1"
         id="path9"
         d="m 3.44252,-74.704 -5.41846,22.7465 83.21904,19.8237 z" />
      <path
         style="fill:#f0f0f0;fill-opacity:1"
         id="path11"
         d="M -53.4025,46.9333 -75.1981,-32.1548 3.9369,-55.0094 z" />
      <path
         style="fill:#f0f0f0;fill-opacity:1"
         id="path13"
         d="M 62.2343,46.0943 81.1564,-32.4527 3.23229,-55.0429 z" />
      <path
         style="fill:#f8f8f8;fill-opacity:1"
         id="path15"
         d="M -53.5597,46.8415 3.67051,-54.4309 62.579,46.143 z" />
    </g>
  </g>
  <g
     style="font-size:41.2510643px;font-style:normal;font-variant:normal;font-weight:500;font-stretch:normal;line-height:125%;letter-spacing:0px;word-spacing:0px;fill:#000000;fill-opacity:1;stroke:none;font-family:Futura;-inkscape-font-specification:Futura Medium"
     id="text3045-7">
    <path
       d="m 77.812698,96.892884 11.58172,0 0,4.411126 -20.88738,0 10.796177,-13.072238 c 1.060805,-1.30251 1.947058,-2.430467 2.65876,-3.383877 0.725101,-0.953376 1.275652,-1.752346 1.651654,-2.396912 0.765384,-1.262219 1.148083,-2.396891 1.148101,-3.404018 -1.8e-5,-1.45021 -0.510284,-2.66545 -1.530801,-3.645724 -1.020549,-0.980223 -2.282788,-1.470348 -3.786719,-1.470375 -3.14218,2.7e-5 -4.941541,1.859814 -5.398089,5.579367 l -4.672972,0 c 0.75197,-6.552875 4.061989,-9.829323 9.930066,-9.829355 2.83331,3.2e-5 5.210078,0.899712 7.130311,2.699044 1.933623,1.79939 2.900443,4.02845 2.900465,6.687185 -2.2e-5,1.691958 -0.449862,3.350325 -1.349522,4.975104 -0.456575,0.845985 -1.127978,1.85309 -2.014212,3.021318 -0.872843,1.154828 -1.980658,2.524491 -3.32345,4.108992 l -4.834109,5.720363"
       style=""
       id="path4807" />
  </g>
  <g
     id="text4487"
     style="font-size:12px;font-style:normal;font-variant:normal;font-weight:500;font-stretch:normal;line-height:125%;letter-spacing:0px;word-spacing:0px;fill:#808080;fill-opacity:1;stroke:none;font-family:Futura;-inkscape-font-specification:Futura Medium"
     transform="matrix(0.88131328,0.47253243,-0.47253243,0.88131328,119.23137,-59.513537)">
    <path
       id="path4492"
       d="m -32.978304,155.77356 c 0,0 -0.07442,4.36304 -0.07442,4.36304 0,0 -2.884761,-2.62893 -2.884761,-2.62893 0,0 0.104508,-5.87502 0.104508,-5.87502 0,0 25.875981,3.02442 25.875981,3.02442 0,0 -0.053777,4.7593 -0.053777,4.7593 0,0 -22.967535,-3.64281 -22.967535,-3.64281"
       inkscape:connector-curvature="0"
       style="fill:#808080" />
    <path
       id="path4494"
       d="m -14.311333,137.95362 c 0,0 0.13859,-11.13965 0.13859,-11.13965 0,0 4.5371103,-0.59728 4.5371103,-0.59728 0,0 -0.2369134,20.96689 -0.2369134,20.96689 0,0 -12.3687579,-10.32114 -12.3687579,-10.32114 -1.083099,-0.89044 -2.002423,-1.61752 -2.766574,-2.189 -0.751984,-0.57407 -1.373922,-0.9994 -1.870707,-1.28049 -0.957597,-0.56654 -1.806163,-0.81114 -2.551316,-0.74315 -1.052788,0.0961 -1.924096,0.58937 -2.623749,1.4718 -0.689645,0.86987 -1.041111,1.90047 -1.061753,3.10161 -0.04311,2.5119 1.213816,3.94999 3.882323,4.32765 0,0 -0.06321,3.90784 -0.06321,3.90784 -4.604114,-0.80083 -6.701106,-3.45138 -6.619813,-8.00102 0.03922,-2.193 0.649975,-4.08227 1.855128,-5.70024 1.236787,-1.67084 2.794954,-2.64433 4.707424,-2.89511 1.258571,-0.165 2.519016,0.051 3.780763,0.66326 0.670471,0.315 1.479236,0.80753 2.433144,1.48415 0.961641,0.67919 2.126034,1.56776 3.50706,2.67826 0,0 5.321256,4.26562 5.321256,4.26562"
       inkscape:connector-curvature="0"
       style="fill:#808080" />
  </g>
  <g
     transform="matrix(-0.87663187,0.48116167,-0.48116167,-0.87663187,176.7832,197.69498)"
     style="font-size:12px;font-style:normal;font-variant:normal;font-weight:500;font-stretch:normal;line-height:125%;letter-spacing:0px;word-spacing:0px;fill:#808080;fill-opacity:1;stroke:none;font-family:Futura;-inkscape-font-specification:Futura Medium"
     id="text4540">
    <path
       inkscape:connector-curvature="0"
       d="m -33.032615,155.8482 c 0,0 -0.07301,4.27747 -0.07301,4.27747 0,0 -2.837826,-2.58038 -2.837826,-2.58038 0,0 0.102522,-5.76295 0.102522,-5.76295 0,0 25.351059,3.00626 25.351059,3.00626 0,0 -0.05313,4.64715 -0.05313,4.64715 0,0 -22.489615,-3.58755 -22.489615,-3.58755"
       id="path4545"
       style="fill:#808080" />
    <path
       inkscape:connector-curvature="0"
       d="m -25.075955,141.28944 c -1.29197,1.92854 -2.976197,2.84427 -5.00968,2.78438 -1.773692,-0.0522 -3.192808,-0.77487 -4.285942,-2.14301 -1.065684,-1.34433 -1.571032,-2.98939 -1.535855,-4.95867 0.035,-1.95713 0.598755,-3.63449 1.710806,-5.05853 1.129935,-1.45727 2.575258,-2.30897 4.366084,-2.53519 1.951491,-0.24649 3.591184,0.49612 4.884519,2.27206 0.550918,-1.1201 1.354693,-2.05011 2.423463,-2.79279 1.091367,-0.77002 2.341181,-1.25269 3.760674,-1.43958 2.516732,-0.33129 4.660034,0.23244 6.379643,1.73904 1.776401,1.55639 2.6712048,3.73262 2.6400176,6.4927 -0.031979,2.83011 -0.9871436,5.17124 -2.8217096,6.97731 -1.778611,1.76359 -3.922395,2.57911 -6.38445,2.48987 -3.037276,-0.11008 -5.043109,-1.39893 -6.12757,-3.82759 m -4.965366,-0.80093 c 0.961135,-0.008 1.788097,-0.38751 2.473046,-1.1452 0.704826,-0.77964 1.069339,-1.71564 1.086127,-2.79938 0.01663,-1.07186 -0.319138,-1.96678 -0.999774,-2.67735 -0.670745,-0.70024 -1.470385,-1.00513 -2.392599,-0.92344 -0.904501,0.0801 -1.672867,0.51066 -2.311677,1.28499 -0.630423,0.76422 -0.951141,1.6418 -0.968319,2.64058 -0.01715,0.9993 0.274187,1.84832 0.880275,2.55399 0.61461,0.71556 1.357022,1.07337 2.232921,1.06581 m 11.005827,0.43473 c 1.298767,-0.005 2.447372,-0.46988 3.43451,-1.40781 0.991874,-0.96696 1.502809,-2.13775 1.519669,-3.49887 0.0167,-1.34747 -0.458795,-2.46259 -1.413342,-3.33407 -0.949971,-0.85472 -2.073513,-1.2159 -3.359816,-1.0973 -1.267332,0.11688 -2.327733,0.65901 -3.193339,1.61678 -0.85175,0.94248 -1.281622,2.02494 -1.299799,3.25922 -0.01799,1.2234 0.381052,2.26792 1.207575,3.14405 0.840914,0.87929 1.87221,1.32244 3.104542,1.318"
       id="path4547"
       style="fill:#808080" />
  </g>
  <g
     transform="matrix(-0.93191873,0.66780337,-0.65651828,-0.94793776,-45.584691,220.62089)"
     id="text4599"
     style="font-size:12px;font-style:normal;font-variant:normal;font-weight:500;font-stretch:normal;line-height:125%;letter-spacing:0px;word-spacing:0px;fill:#808080;fill-opacity:1;stroke:none;font-family:Futura;-inkscape-font-specification:Futura Medium">
    <path
       inkscape:connector-curvature="0"
       id="path4604"
       d="m -121.60385,-0.64792162 c 0,0 -1.21931,-6.93706068 -1.21931,-6.93706068 0,0 3.14548,0.3902767 3.14548,0.3902767 0,0 2.63514,13.0459894 2.63514,13.0459894 0,0 -11.38683,-8.1495142 -11.38683,-8.1495142 -1.10059,-0.7790916 -2.04701,-1.4303877 -2.84164,-1.9556624 -0.79296,-0.5319216 -1.45242,-0.9413871 -1.97989,-1.2294579 -1.03279,-0.580966 -1.94647,-0.9173151 -2.74544,-1.0103248 -1.15682,-0.1346427 -2.11814,0.063658 -2.88689,0.6015993 -0.78044,0.5461659 -1.16189,1.2992301 -1.13507,2.2644321 0.0575,2.0676023 1.68195,3.43963465 4.84156,4.05670102 0,0 0.21386,3.25781938 0.21386,3.25781938 -5.73776,-1.0459758 -8.65405,-3.65383395 -8.64658,-7.6072604 0.003,-1.8203741 0.75206,-3.2190904 2.21445,-4.2156833 1.42185,-0.976968 3.16638,-1.3254028 5.24468,-1.0677542 1.31004,0.1624298 2.6068,0.5805581 3.89938,1.25626 0.6733,0.3453939 1.48369,0.8321782 2.43341,1.4619116 0.94214,0.6229346 2.06982,1.4084983 3.38693,2.359639 0,0 4.82676,3.47808938 4.82676,3.47808938"
       style="fill:#808080" />
    <path
       inkscape:connector-curvature="0"
       id="path4606"
       d="m -131.49596,-11.585943 c -3.68858,-0.488436 -6.71797,-1.518616 -9.01238,-3.071111 -2.05569,-1.379867 -3.07535,-2.826252 -3.07255,-4.316433 0.003,-1.449245 0.97594,-2.50126 2.87685,-3.170645 2.03725,-0.728182 4.77254,-0.800226 8.20403,-0.241732 3.35702,0.546392 6.0512,1.484463 8.14423,2.830889 1.90734,1.218435 3.00705,2.516346 3.29333,3.913247 0.29382,1.433692 -0.34891,2.567146 -1.9699,3.390073 -1.85047,0.93585 -4.66702,1.16845 -8.46361,0.665712 m -0.24417,-2.457682 c 2.47103,0.344296 4.45267,0.318048 5.948,-0.06918 1.43809,-0.383436 2.06399,-1.031758 1.90097,-1.939194 -0.15917,-0.886079 -1.02968,-1.722548 -2.61104,-2.518995 -1.56915,-0.7934 -3.4905,-1.368054 -5.78901,-1.728742 -2.32896,-0.365445 -4.2671,-0.389736 -5.81399,-0.06443 -1.56834,0.333354 -2.35194,0.950476 -2.32672,1.857916 0.0255,0.916465 0.87663,1.809277 2.5559,2.667967 1.67321,0.859264 3.72778,1.459139 6.13589,1.794663"
       style="fill:#808080" />
  </g>
  <g
     style="font-size:12px;font-style:normal;font-variant:normal;font-weight:500;font-stretch:normal;line-height:125%;letter-spacing:0px;word-spacing:0px;fill:#808080;fill-opacity:1;stroke:none;font-family:Futura;-inkscape-font-specification:Futura Medium"
     id="text4664"
     transform="matrix(1.100785,-0.81057921,1.01556,0.4644378,-142.989,185.14628)">
    <path
       d="m 210.57299,1.6040864 c 0,0 -0.36437,5.6496949 -0.36437,5.6496949 0,0 1.14376,0.678157 1.14376,0.678157 0.002,-0.1260773 0.006,-0.2450435 0.0104,-0.3568698 0.005,-0.1193786 0.0107,-0.2277959 0.0172,-0.3252884 0.11268,-1.6924378 0.43085,-3.0961913 0.94235,-4.1789326 0.49427,-1.0584371 1.05042,-1.5550035 1.65604,-1.5141801 0.5957,0.040191 1.02502,0.620736 1.30238,1.7140004 0.26793,1.0560987 0.33993,2.3634459 0.22326,3.9420991 -0.14295,1.9342664 -0.56828,3.5523181 -1.30448,4.9155111 0,0 -0.40865,-1.553608 -0.40865,-1.553608 0.33291,-0.571735 0.57367,-1.111337 0.72699,-1.6253495 0.14979,-0.5092489 0.2495,-1.1101521 0.30015,-1.8071029 0.0665,-0.9144805 0.0109,-1.6733207 -0.16969,-2.2840996 -0.1917,-0.623861 -0.4631,-0.9357039 -0.81871,-0.9247002 -0.37668,0.011693 -0.71671,0.357152 -1.01517,1.0451655 -0.31209,0.7011697 -0.50526,1.5693604 -0.57495,2.5919489 -0.0773,1.1342657 0.047,2.0618206 0.365,2.7688228 0,0 -0.0559,0.808565 -0.0559,0.808565 0,0 -3.57439,-1.759743 -3.57439,-1.759743 0,0 0.49078,-7.84765 0.49078,-7.84765 0,0 1.10795,0.063557 1.10795,0.063557"
       id="path4669"
       inkscape:connector-curvature="0"
       style="fill:#808080" />
  </g>
  <g
     transform="matrix(-0.55142149,-0.9483897,0.92932313,-0.51604071,262.97805,177.3744)"
     id="text4731"
     style="font-size:12px;font-style:normal;font-variant:normal;font-weight:500;font-stretch:normal;line-height:125%;letter-spacing:0px;word-spacing:0px;fill:#808080;fill-opacity:1;stroke:none;font-family:Futura;-inkscape-font-specification:Futura Medium">
    <path
       inkscape:connector-curvature="0"
       id="path4736"
       d="m 215.52114,-78.929422 c 0,0 -0.04,3.395643 -0.04,3.395643 0,0 -1.00526,-1.657285 -1.00526,-1.657285 0,0 0.063,-4.772097 0.063,-4.772097 0,0 6.60331,0.626161 6.60331,0.626161 0,0 -0.0108,2.69413 -0.0108,2.69413 0,0 -5.61025,-0.286552 -5.61025,-0.286552"
       style="fill:#808080" />
    <path
       inkscape:connector-curvature="0"
       id="path4738"
       d="m 215.75694,-98.940268 c 0,0 -0.0677,5.742105 -0.0677,5.742105 0,0 1.12664,1.21011 1.12664,1.21011 -0.004,-0.137336 -0.007,-0.2663 -0.009,-0.386887 -0.002,-0.128526 -0.002,-0.244654 -8.5e-4,-0.34843 0.0183,-1.790978 0.2525,-3.184669 0.69722,-4.175545 0.43478,-0.983418 0.97488,-1.353956 1.61585,-1.126984 0.64939,0.229994 1.17121,1.027215 1.57247,2.385344 0.39742,1.345181 0.59115,2.936414 0.58397,4.790572 -0.009,2.299493 -0.38489,4.055251 -1.14367,5.28146 0,0 -0.58413,-2.146828 -0.58413,-2.146828 0.33487,-0.497946 0.56967,-1.014059 0.70682,-1.550457 0.13374,-0.533838 0.20235,-1.205108 0.20641,-2.014767 0.005,-1.056541 -0.11746,-1.977064 -0.36945,-2.767588 -0.26146,-0.797828 -0.58414,-1.258602 -0.97027,-1.379602 -0.4018,-0.125869 -0.737,0.133184 -1.00379,0.783303 -0.27796,0.65439 -0.423,1.538027 -0.43293,2.648337 -0.0111,1.240417 0.17361,2.356834 0.55149,3.339026 0,0 -0.007,0.912368 -0.007,0.912368 0,0 -3.56428,-3.712567 -3.56428,-3.712567 0,0 0.10336,-7.829283 0.10336,-7.829283 0,0 0.98939,0.346302 0.98939,0.346302"
       style="fill:#808080" />
  </g>
</svg>
