<?xml version="1.0" encoding="UTF-8" standalone="no"?>
<!-- Created with Inkscape (http://www.inkscape.org/) -->

<svg
   xmlns:dc="http://purl.org/dc/elements/1.1/"
   xmlns:cc="http://creativecommons.org/ns#"
   xmlns:rdf="http://www.w3.org/1999/02/22-rdf-syntax-ns#"
   xmlns:svg="http://www.w3.org/2000/svg"
   xmlns="http://www.w3.org/2000/svg"
   xmlns:sodipodi="http://sodipodi.sourceforge.net/DTD/sodipodi-0.dtd"
   xmlns:inkscape="http://www.inkscape.org/namespaces/inkscape"
   version="1.1"
   width="156.44119"
   height="169.22659"
   viewBox="0 0 156.44119 169.22659"
   id="svg2"
   inkscape:version="0.48.5 r10040"
   sodipodi:docname="d20_05.svg">
  <sodipodi:namedview
     pagecolor="#ffffff"
     bordercolor="#666666"
     borderopacity="1"
     objecttolerance="10"
     gridtolerance="10"
     guidetolerance="10"
     inkscape:pageopacity="0"
     inkscape:pageshadow="2"
     inkscape:window-width="1680"
     inkscape:window-height="1001"
     id="namedview3118"
     showgrid="false"
     inkscape:zoom="4.6978432"
     inkscape:cx="78.220596"
     inkscape:cy="84.613297"
     inkscape:window-x="0"
     inkscape:window-y="1"
     inkscape:window-maximized="1"
     inkscape:current-layer="svg2" />
  <metadata
     id="metadata21">
    <rdf:RDF>
      <cc:Work
         rdf:about="">
        <dc:format>image/svg+xml</dc:format>
        <dc:type
           rdf:resource="http://purl.org/dc/dcmitype/StillImage" />
        <dc:title />
      </cc:Work>
    </rdf:RDF>
  </metadata>
  <defs
     id="defs19" />
  <g
     transform="translate(-37.3019,-75.296)"
     id="g3036">
    <g
       transform="translate(112.5,150)"
       id="widget">
      <path
         d="M 61.1112,45.8264 4.63537,94.5226 -53.0845,46.7585 z"
         id="path5"
         style="fill:#d3d3d3;fill-opacity:1" />
      <path
         d="m 4.60797,-74.704 5.41843,22.7464 -83.219,19.8238 z"
         id="path7"
         style="fill:#d3d3d3;fill-opacity:1" />
      <path
         d="m 3.44252,-74.704 -5.41846,22.7465 83.21904,19.8237 z"
         id="path9"
         style="fill:#d3d3d3;fill-opacity:1" />
      <path
         d="M -53.4025,46.9333 -75.1981,-32.1548 3.9369,-55.0094 z"
         id="path11"
         style="fill:#f0f0f0;fill-opacity:1" />
      <path
         d="M 62.2343,46.0943 81.1564,-32.4527 3.23229,-55.0429 z"
         id="path13"
         style="fill:#f0f0f0;fill-opacity:1" />
      <path
         d="M -53.5597,46.8415 3.67051,-54.4309 62.579,46.143 z"
         id="path15"
         style="fill:#f8f8f8;fill-opacity:1" />
    </g>
  </g>
  <g
     id="text3045-7"
     style="font-size:41.2510643px;font-style:normal;font-variant:normal;font-weight:500;font-stretch:normal;line-height:125%;letter-spacing:0px;word-spacing:0px;fill:#000000;fill-opacity:1;stroke:none;font-family:Futura;-inkscape-font-specification:Futura Medium">
    <path
       d="m 89.172854,74.595556 -9.587649,0 -1.530802,5.156383 c 0.228267,-0.02683 0.443116,-0.04698 0.644548,-0.06043 0.214838,-0.01341 0.409545,-0.02012 0.584122,-0.02014 3.021303,2.2e-5 5.498782,1.020555 7.432443,3.061603 1.94705,2.027656 2.920585,4.625987 2.920607,7.795001 -2.2e-5,3.276459 -1.101124,5.9755 -3.303308,8.097132 -2.202222,2.121635 -4.975118,3.182455 -8.318696,3.182455 -4.122427,0 -7.372019,-1.933642 -9.748787,-5.80093 l 3.545014,-3.001176 c 0.980244,1.665088 1.967207,2.840044 2.960892,3.524871 0.993669,0.671408 2.208909,1.00711 3.645724,1.007106 1.879918,4e-6 3.457716,-0.657972 4.733398,-1.973928 1.275651,-1.356229 1.913484,-3.001167 1.913502,-4.93482 -1.8e-5,-1.987343 -0.631137,-3.612139 -1.89336,-4.874393 -1.262254,-1.302507 -2.840052,-1.953768 -4.733398,-1.953786 -2.108218,1.8e-5 -3.927721,0.91984 -5.458515,2.759471 l -1.550944,0 4.894536,-16.355403 12.850673,0 0,4.390983"
       id="path3351" />
  </g>
  <g
     transform="matrix(-0.00902696,-0.99995926,0.99995926,-0.00902696,62.777476,-119.13388)"
     id="text3029"
     style="font-size:12px;font-style:normal;font-variant:normal;font-weight:500;font-stretch:normal;line-height:125%;letter-spacing:0px;word-spacing:0px;fill:#808080;fill-opacity:1;stroke:none;font-family:Futura;-inkscape-font-specification:Futura Medium">
    <path
       d="m -182.94364,-27.796364 c 0,0 0.32149,4.232075 0.32149,4.232075 0,0 -4.07634,-2.502889 -4.07634,-2.502889 0,0 -0.28303,-5.747239 -0.28303,-5.747239 0,0 24.34972,3.343357 24.34972,3.343357 0,0 0.70898,3.247308 0.70898,3.247308 0,0 -21.02082,-2.572612 -21.02082,-2.572612"
       id="path3034"
       style="fill:#808080" />
    <path
       d="m -175.8653,-39.177824 c -1.01297,1.222372 -2.59466,1.670582 -4.75041,1.309591 -1.99353,-0.333824 -3.72577,-1.183642 -5.16487,-2.539624 -1.43179,-1.35724 -2.1821,-2.844823 -2.25539,-4.438065 -0.0711,-1.546165 0.52879,-2.672337 1.7728,-3.391902 1.20114,-0.702634 2.73061,-0.84617 4.58945,-0.449222 1.91536,0.409042 3.53447,1.357999 4.89079,2.862738 0.37488,-0.595731 0.97846,-0.991022 1.8062,-1.190498 0.81508,-0.203873 1.7585,-0.188609 2.83102,0.04197 1.80851,0.38884 3.36362,1.178583 4.69218,2.378274 1.33496,1.20548 2.17523,2.582339 2.5222,4.154345 0.36412,1.649677 0.083,2.937051 -0.86997,3.849545 -0.97832,0.946722 -2.41865,1.27482 -4.32469,0.959822 -2.52838,-0.417842 -4.46167,-1.610973 -5.73931,-3.546976 m -5.0439,-1.498403 c 1.01581,0.182285 1.82915,0.05593 2.44012,-0.373195 0.61124,-0.429281 0.86509,-1.027562 0.76898,-1.792628 -0.094,-0.748226 -0.50378,-1.448411 -1.22893,-2.105841 -0.72331,-0.65578 -1.54927,-1.077491 -2.4849,-1.267502 -0.94324,-0.191539 -1.73619,-0.0947 -2.37991,0.295855 -0.653,0.396247 -0.95586,0.974674 -0.90094,1.737799 0.0556,0.772407 0.46092,1.508761 1.21686,2.203373 0.75796,0.696448 1.61667,1.131302 2.56872,1.302139 m 10.17078,2.167534 c 1.00575,0.178917 1.80715,0.03247 2.40411,-0.432677 0.57722,-0.46759 0.77887,-1.116794 0.61311,-1.945058 -0.16214,-0.810279 -0.63185,-1.560052 -1.4091,-2.255472 -0.78413,-0.695398 -1.65034,-1.139365 -2.60631,-1.334487 -0.97343,-0.198664 -1.76305,-0.08828 -2.36926,0.337275 -0.61546,0.432088 -0.86644,1.060658 -0.74467,1.888662 0.1222,0.830805 0.59029,1.622213 1.40485,2.367799 0.81563,0.739596 1.72083,1.198489 2.70727,1.373958"
       id="path3036"
       style="fill:#808080" />
  </g>
  <g
     transform="matrix(0.90337352,0.49791757,-0.50105746,0.8977125,236.49905,154.62908)"
     id="text3082"
     style="font-size:12px;font-style:normal;font-variant:normal;font-weight:500;font-stretch:normal;line-height:125%;letter-spacing:0px;word-spacing:0px;fill:#808080;fill-opacity:1;stroke:none;font-family:Futura;-inkscape-font-specification:Futura Medium">
    <path
       d="m -142.95254,-23.451224 c 0,0 0.17392,4.231269 0.17392,4.231269 0,0 -3.79029,-2.325551 -3.79029,-2.325551 0,0 -0.0903,-5.758806 -0.0903,-5.758806 0,0 22.86927,2.271628 22.86927,2.271628 0,0 0.56647,3.207159 0.56647,3.207159 0,0 -19.72903,-1.625699 -19.72903,-1.625699"
       id="path3087"
       style="fill:#808080" />
    <path
       d="m -143.82853,-44.762682 c 0,0 0.22827,5.553496 0.22827,5.553496 0,0 3.75867,1.506567 3.75867,1.506567 -0.0286,-0.141127 -0.0519,-0.273161 -0.0699,-0.396121 -0.0184,-0.130802 -0.0314,-0.248536 -0.0386,-0.353239 -0.12368,-1.785417 0.47727,-3.091623 1.76968,-3.935608 1.24371,-0.827249 2.87208,-1.041311 4.88219,-0.666689 2.03584,0.379439 3.77111,1.266844 5.24313,2.673632 1.47982,1.414256 2.38787,3.047594 2.72549,4.934741 0.43005,2.403788 -0.44286,4.200993 -2.71068,5.366226 0,0 -2.30923,-2.480475 -2.30923,-2.480475 1.01163,-0.453591 1.68621,-0.946717 2.03547,-1.480768 0.33604,-0.528123 0.43532,-1.210589 0.30247,-2.044662 -0.1713,-1.075467 -0.72087,-2.031878 -1.64902,-2.880804 -0.95098,-0.851073 -2.03383,-1.381705 -3.26171,-1.595369 -1.27822,-0.222405 -2.2976,-0.05312 -3.05667,0.518402 -0.80138,0.578469 -1.15766,1.425606 -1.05528,2.547101 0.11614,1.272073 0.85972,2.482137 2.23053,3.612616 0,0 0.10293,0.974876 0.10293,0.974876 0,0 -12.12156,-4.785088 -12.12156,-4.785088 0,0 -0.11993,-7.645329 -0.11993,-7.645329 0,0 3.11365,0.576476 3.11365,0.576476"
       id="path3089"
       style="fill:#808080" />
  </g>
  <g
     transform="matrix(0.83330572,0.55281242,-0.55281242,0.83330572,5.5792185,120.22603)"
     id="text3141"
     style="font-size:12px;font-style:normal;font-variant:normal;font-weight:500;font-stretch:normal;line-height:125%;letter-spacing:0px;word-spacing:0px;fill:#808080;fill-opacity:1;stroke:none;font-family:Futura;-inkscape-font-specification:Futura Medium">
    <path
       d="m 65.01558,-12.381388 c 0,0 -0.148745,3.0448688 -0.148745,3.0448688 0,0 -3.373542,-1.1326148 -3.373542,-1.1326148 0,0 0.06138,-4.453337 0.06138,-4.453337 0,0 24.167358,-1.861995 24.167358,-1.861995 0,0 -0.667742,2.717572 -0.667742,2.717572 0,0 -20.038705,1.685506 -20.038705,1.685506"
       id="path3146"
       style="fill:#808080" />
    <path
       d="m 76.541167,-27.65083 c 0,0 -3.465198,0.163024 -3.465198,0.163024 0.171908,-1.526053 0.09251,-2.567037 -0.244481,-3.096798 -0.600092,-0.960701 -1.691694,-1.42069 -3.275138,-1.364863 -1.23348,0.04351 -2.264298,0.446417 -3.08148,1.203729 -0.822289,0.740658 -1.255351,1.668234 -1.303465,2.771301 -0.04401,1.010156 0.206604,1.765123 0.746204,2.273391 0.546097,0.481523 1.483559,0.808269 2.806099,0.983062 0,0 -0.253703,3.313231 -0.253703,3.313231 -2.47471,-0.180869 -4.298568,-0.766126 -5.458319,-1.77223 -1.202001,-1.031643 -1.805305,-2.575588 -1.785707,-4.668038 0.02061,-2.193361 0.815018,-4.071312 2.40233,-5.58941 1.601127,-1.543343 3.636533,-2.355905 6.063215,-2.417413 2.701,-0.06842 4.664108,0.855767 5.880926,2.716545 1.670216,-2.215751 4.08296,-3.385588 7.164185,-3.460327 2.486507,-0.06028 4.320838,0.686941 5.497202,2.202236 1.137801,1.465657 1.408722,3.320814 0.856464,5.537168 -0.67431,2.706182 -2.226951,4.695697 -4.661496,6.05105 -1.012365,0.558602 -2.330833,0.954218 -3.966057,1.189734 0,0 0.57809,-3.099191 0.57809,-3.099191 1.251715,-0.237172 2.267774,-0.699952 3.056175,-1.393182 0.786139,-0.708097 1.302137,-1.612918 1.546477,-2.725871 0.251362,-1.144915 0.04141,-2.092815 -0.64253,-2.836414 -0.719134,-0.756022 -1.767153,-1.115681 -3.14177,-1.068502 -1.832652,0.06293 -3.24102,0.712572 -4.200216,1.933674 -0.546996,0.705762 -0.919527,1.763935 -1.117807,3.154094"
       id="path3148"
       style="fill:#808080" />
  </g>
  <g
     transform="matrix(-0.87016941,-0.49275268,0.49275268,-0.87016941,341.93192,204.8119)"
     id="text3206"
     style="font-size:12px;font-style:normal;font-variant:normal;font-weight:500;font-stretch:normal;line-height:125%;letter-spacing:0px;word-spacing:0px;fill:#808080;fill-opacity:1;stroke:none;font-family:Futura;-inkscape-font-specification:Futura Medium">
    <path
       d="m 292.62244,47.869609 c 0,0 0.20531,0.729086 0.20531,0.729086 0,0 -2.66369,-0.32634 -2.66369,-0.32634 0,0 -0.4217,-1.06147 -0.4217,-1.06147 0,0 19.0821,-0.130318 19.0821,-0.130318 0,0 -0.28597,0.681527 -0.28597,0.681527 0,0 -15.91605,0.107515 -15.91605,0.107515"
       id="path3211"
       style="fill:#808080" />
    <path
       d="m 306.96214,44.306654 c 0,0 0.71871,-2.363531 0.71871,-2.363531 0,0 3.30954,-0.02446 3.30954,-0.02446 0,0 -1.67902,4.001486 -1.67902,4.001486 0,0 -8.28152,-1.852384 -8.28152,-1.852384 -0.89563,-0.197415 -1.68242,-0.364463 -2.35526,-0.499927 -0.6799,-0.139547 -1.25458,-0.246108 -1.72054,-0.318863 -0.92058,-0.149601 -1.74833,-0.222391 -2.47534,-0.217096 -1.04667,0.0076 -1.89899,0.118781 -2.54959,0.331006 -0.64069,0.209009 -0.91338,0.459524 -0.82678,0.749116 0.17506,0.585219 1.51754,0.899994 4.02226,0.96331 0,0 0.12177,0.79978 0.12177,0.79978 -4.27923,-0.09553 -6.64031,-0.646217 -7.07977,-1.71517 -0.22573,-0.549175 0.22479,-1.032536 1.38376,-1.441592 1.19283,-0.424201 2.79593,-0.648472 4.78281,-0.663162 1.26486,-0.0093 2.51246,0.08073 3.73002,0.268311 0.62741,0.09411 1.36828,0.232595 2.21732,0.414127 0.82838,0.176442 1.79537,0.397605 2.89261,0.661276 0,0 3.78902,0.907774 3.78902,0.907774"
       id="path3213"
       style="fill:#808080" />
  </g>
  <g
     transform="matrix(-0.54476128,-0.83859116,0.83859116,-0.54476128,193.08022,151.94773)"
     id="text3277"
     style="font-size:12px;font-style:normal;font-variant:normal;font-weight:500;font-stretch:normal;line-height:125%;letter-spacing:0px;word-spacing:0px;fill:#808080;fill-opacity:1;stroke:none;font-family:Futura;-inkscape-font-specification:Futura Medium">
    <path
       d="m 189.25362,-35.392914 c 0,0 0.1561,-5.711885 0.1561,-5.711885 0,0 0.72507,0.139171 0.72507,0.139171 0,0 -0.27698,9.938641 -0.27698,9.938641 0,0 -2.16049,-5.054101 -2.16049,-5.054101 -0.24151,-0.556554 -0.45541,-1.031088 -0.63995,-1.419049 -0.18738,-0.401643 -0.34759,-0.71195 -0.47941,-0.927725 -0.26203,-0.445843 -0.50686,-0.68258 -0.73305,-0.703033 -0.33272,-0.03008 -0.62534,0.241752 -0.87453,0.823225 -0.25336,0.591235 -0.39229,1.337673 -0.41358,2.231004 -0.0444,1.862617 0.38429,2.867329 1.24246,3.010788 0,0 -0.0651,2.623779 -0.0651,2.623779 -1.55246,-0.0707 -2.35908,-1.908077 -2.27599,-5.520118 0.0403,-1.75101 0.3135,-3.203029 0.80764,-4.325652 0.4791,-1.09598 1.03218,-1.570579 1.64818,-1.453162 0.37744,0.07194 0.73063,0.390472 1.06068,0.945353 0.16842,0.276399 0.36402,0.669271 0.5853,1.173981 0.21456,0.487591 0.46276,1.091791 0.74215,1.805475 0,0 0.95147,2.423308 0.95147,2.423308"
       id="path3282"
       style="fill:#808080" />
  </g>
</svg>
