<?xml version="1.0" encoding="UTF-8" standalone="no"?>
<!-- Created with Inkscape (http://www.inkscape.org/) -->

<svg
   xmlns:dc="http://purl.org/dc/elements/1.1/"
   xmlns:cc="http://creativecommons.org/ns#"
   xmlns:rdf="http://www.w3.org/1999/02/22-rdf-syntax-ns#"
   xmlns:svg="http://www.w3.org/2000/svg"
   xmlns="http://www.w3.org/2000/svg"
   xmlns:sodipodi="http://sodipodi.sourceforge.net/DTD/sodipodi-0.dtd"
   xmlns:inkscape="http://www.inkscape.org/namespaces/inkscape"
   version="1.1"
   width="156.44119"
   height="169.22659"
   viewBox="0 0 156.44119 169.22659"
   id="svg2"
   inkscape:version="0.48.5 r10040"
   sodipodi:docname="d20_06.svg">
  <sodipodi:namedview
     pagecolor="#ffffff"
     bordercolor="#666666"
     borderopacity="1"
     objecttolerance="10"
     gridtolerance="10"
     guidetolerance="10"
     inkscape:pageopacity="0"
     inkscape:pageshadow="2"
     inkscape:window-width="1680"
     inkscape:window-height="1001"
     id="namedview3146"
     showgrid="false"
     inkscape:zoom="4.6978432"
     inkscape:cx="78.220596"
     inkscape:cy="84.613297"
     inkscape:window-x="0"
     inkscape:window-y="1"
     inkscape:window-maximized="1"
     inkscape:current-layer="svg2" />
  <metadata
     id="metadata21">
    <rdf:RDF>
      <cc:Work
         rdf:about="">
        <dc:format>image/svg+xml</dc:format>
        <dc:type
           rdf:resource="http://purl.org/dc/dcmitype/StillImage" />
        <dc:title />
      </cc:Work>
    </rdf:RDF>
  </metadata>
  <defs
     id="defs19" />
  <g
     transform="translate(-37.3019,-75.296)"
     id="g3036">
    <g
       transform="translate(112.5,150)"
       id="widget">
      <path
         d="M 61.1112,45.8264 4.63537,94.5226 -53.0845,46.7585 z"
         id="path5"
         style="fill:#d3d3d3;fill-opacity:1" />
      <path
         d="m 4.60797,-74.704 5.41843,22.7464 -83.219,19.8238 z"
         id="path7"
         style="fill:#d3d3d3;fill-opacity:1" />
      <path
         d="m 3.44252,-74.704 -5.41846,22.7465 83.21904,19.8237 z"
         id="path9"
         style="fill:#d3d3d3;fill-opacity:1" />
      <path
         d="M -53.4025,46.9333 -75.1981,-32.1548 3.9369,-55.0094 z"
         id="path11"
         style="fill:#f0f0f0;fill-opacity:1" />
      <path
         d="M 62.2343,46.0943 81.1564,-32.4527 3.23229,-55.0429 z"
         id="path13"
         style="fill:#f0f0f0;fill-opacity:1" />
      <path
         d="M -53.5597,46.8415 3.67051,-54.4309 62.579,46.143 z"
         id="path15"
         style="fill:#f8f8f8;fill-opacity:1" />
    </g>
  </g>
  <g
     id="text3045-7"
     style="font-size:41.2510643px;font-style:normal;font-variant:normal;font-weight:500;font-stretch:normal;line-height:125%;letter-spacing:0px;word-spacing:0px;fill:#000000;fill-opacity:1;stroke:none;font-family:Futura;-inkscape-font-specification:Futura Medium">
    <path
       d="m 83.674055,69.116899 3.444303,2.578191 -7.432443,10.111345 c 0.40283,-0.05369 0.745246,-0.09398 1.027248,-0.120853 0.281977,-0.02684 0.50354,-0.04026 0.66469,-0.04028 2.524463,2e-5 4.706524,0.966841 6.54619,2.900466 1.826197,1.906802 2.739305,4.203001 2.739328,6.888605 -2.3e-5,2.84676 -1.020556,5.290669 -3.061602,7.331732 -2.027658,2.027635 -4.464853,3.041455 -7.31159,3.041455 -2.819907,0 -5.290672,-1.00039 -7.412301,-3.001171 -2.081356,-2.000779 -3.122031,-4.370833 -3.122029,-7.110168 -2e-6,-2.457327 1.013817,-5.062372 3.041461,-7.815143 L 83.674055,69.116899 m 2.417055,22.619602 c -1.9e-5,-1.651643 -0.570712,-3.048162 -1.712081,-4.189561 -1.15483,-1.1548 -2.544635,-1.732207 -4.169419,-1.732223 -1.638237,1.6e-5 -3.028042,0.570709 -4.169419,1.712081 -1.141394,1.141399 -1.712087,2.52449 -1.71208,4.149277 -7e-6,1.624805 0.570686,3.007896 1.71208,4.149277 1.141377,1.141391 2.537896,1.712084 4.189561,1.71208 1.611356,4e-6 2.987733,-0.570689 4.129135,-1.71208 1.154797,-1.154809 1.732204,-2.517758 1.732223,-4.088851"
       id="path5154" />
  </g>
  <g
     transform="matrix(-0.04013337,-0.88630467,0.4832813,-0.01807194,7.8984632,-46.400282)"
     id="text4769"
     style="font-size:12px;font-style:normal;font-variant:normal;font-weight:500;font-stretch:normal;line-height:125%;letter-spacing:0px;word-spacing:0px;fill:#808080;fill-opacity:1;stroke:none;font-family:Futura;-inkscape-font-specification:Futura Medium">
    <path
       d="m -100.86779,28.0619 c 0,0 -2.20827,4.63617 -2.20827,4.63617 0,0 -10.71483,-9.38076 -10.71483,-9.38076 0.0441,0.477805 0.0765,0.887566 0.0969,1.227579 0.0206,0.342368 0.0289,0.621262 0.0248,0.835692 -0.0607,3.189384 -1.1578,6.142744 -3.37887,8.814797 -2.33363,2.806724 -5.13823,4.32419 -8.33701,4.429586 -3.44535,0.113531 -6.136,-1.410838 -7.97362,-4.461293 -1.76354,-2.927561 -2.16705,-6.280933 -1.31954,-9.95403 0.78562,-3.404576 2.44341,-6.179126 4.90818,-8.401159 2.3215,-2.104367 4.7056,-3.101192 7.22697,-3.073133 2.21769,0.02472 4.52616,1.031345 7.00379,3.074276 0,0 14.67145,12.252275 14.67145,12.252275 m -24.07723,3.685936 c 1.88228,-0.04002 3.52671,-0.870145 4.90666,-2.449743 1.34986,-1.545089 2.07125,-3.327736 2.19397,-5.325333 0.118,-1.920159 -0.34717,-3.495826 -1.37433,-4.760404 -1.01578,-1.250572 -2.29795,-1.867851 -3.87001,-1.873004 -1.5805,-0.0051 -3.03476,0.609394 -4.38723,1.872441 -1.37871,1.287631 -2.26188,2.906718 -2.62779,4.885463 -0.37468,2.026489 -0.0763,3.814926 0.92542,5.331034 1.03992,1.573791 2.46053,2.357262 4.23331,2.319546"
       id="path4774"
       style="fill:#808080" />
  </g>
  <g
     transform="matrix(0.89353243,0.44899865,-0.44899865,0.89353243,206.22011,106.86675)"
     id="text4814"
     style="font-size:12px;font-style:normal;font-variant:normal;font-weight:500;font-stretch:normal;line-height:125%;letter-spacing:0px;word-spacing:0px;fill:#808080;fill-opacity:1;stroke:none;font-family:Futura;-inkscape-font-specification:Futura Medium">
    <path
       d="m -95.784253,-1.45811 c 0,0 0.34582,4.3034758 0.34582,4.3034758 0,0 -3.939376,-2.49937624 -3.939376,-2.49937624 0,0 -0.333803,-5.87503666 -0.333803,-5.87503666 0,0 23.224697,3.1824178 23.224697,3.1824178 0,0 0.66774,3.26644049 0.66774,3.26644049 0,0 -19.965078,-2.37792119 -19.965078,-2.37792119"
       id="path4819"
       style="fill:#808080" />
    <path
       d="m -101.40445,-20.810171 c 0,0 1.832716,-1.656955 1.832716,-1.656955 0,0 7.777237,6.042065 7.777237,6.042065 -0.06715,-0.25532 -0.120265,-0.470965 -0.159428,-0.647226 -0.03902,-0.175847 -0.06422,-0.31263 -0.07562,-0.410557 -0.176079,-1.516409 0.344844,-2.65474 1.533619,-3.422328 1.138181,-0.742264 2.572773,-0.902408 4.303602,-0.501593 1.800462,0.416966 3.42164,1.323944 4.891999,2.729446 1.464206,1.399637 2.363712,2.905051 2.701603,4.5414 0.342435,1.658356 0.01885,3.026988 -1.000672,4.102434 -1.057531,1.0848446 -2.518082,1.4873969 -4.38389,1.1765191 -1.706319,-0.2842997 -3.643555,-1.2605011 -5.792514,-2.9281321 0,0 -11.628662,-9.025076 -11.628662,-9.025076 m 15.822135,2.00175 c -1.075931,-0.235011 -1.946335,-0.107957 -2.610548,0.389676 -0.684001,0.512499 -0.964669,1.256588 -0.831376,2.235401 0.136298,1.000747 0.651191,1.93688 1.544215,2.79875 0.894361,0.863155 1.899773,1.396683 3.005351,1.597833 1.092588,0.198796 1.950047,0.01179 2.573604,-0.551711 0.612637,-0.553606 0.821733,-1.320797 0.6372,-2.298809 -0.17764,-0.941494 -0.686983,-1.811429 -1.528903,-2.618187 -0.850633,-0.815097 -1.777451,-1.331865 -2.789543,-1.552953"
       id="path4821"
       style="fill:#808080" />
  </g>
  <g
     transform="matrix(0.81555986,0.57867272,-0.57867272,0.81555986,5.5866935,155.74255)"
     id="text4936"
     style="font-size:12px;font-style:normal;font-variant:normal;font-weight:500;font-stretch:normal;line-height:125%;letter-spacing:0px;word-spacing:0px;fill:#808080;fill-opacity:1;stroke:none;font-family:Futura;-inkscape-font-specification:Futura Medium">
    <path
       d="m 45.033449,-41.718201 c 0,0 -0.292595,2.931239 -0.292595,2.931239 0,0 -2.867863,-0.956828 -2.867863,-0.956828 0,0 0.318149,-4.26642 0.318149,-4.26642 0,0 20.388074,-2.552105 20.388074,-2.552105 0,0 -0.60015,2.529983 -0.60015,2.529983 0,0 -16.945615,2.314131 -16.945615,2.314131"
       id="path4941"
       style="fill:#808080" />
    <path
       d="m 60.582849,-62.94405 c 0,0 0.476947,-2.441285 0.476947,-2.441285 0,0 3.012676,-0.11257 3.012676,-0.11257 0,0 -0.521149,2.409785 -0.521149,2.409785 0,0 2.982396,-0.144746 2.982396,-0.144746 0,0 -0.769989,3.245954 -0.769989,3.245954 0,0 -2.923345,0.186162 -2.923345,0.186162 0,0 -2.099252,9.706912 -2.099252,9.706912 0,0 -19.114376,-11.930209 -19.114376,-11.930209 0,0 18.956092,-0.920003 18.956092,-0.920003 m -0.650274,3.328472 c 0,0 -7.432674,0.47332 -7.432674,0.47332 0,0 6.496518,4.318457 6.496518,4.318457 0,0 0.936156,-4.791777 0.936156,-4.791777"
       id="path4943"
       style="fill:#808080" />
  </g>
  <g
     transform="matrix(-0.83694858,-0.54728153,0.54728153,-0.83694858,287.83566,198.76685)"
     id="text4997"
     style="font-size:12px;font-style:normal;font-variant:normal;font-weight:500;font-stretch:normal;line-height:125%;letter-spacing:0px;word-spacing:0px;fill:#808080;fill-opacity:1;stroke:none;font-family:Futura;-inkscape-font-specification:Futura Medium">
    <path
       d="m 249.1634,51.332279 c 0,0 -2.70629,0.18361 -2.70629,0.18361 0.0967,-0.408377 0.009,-0.680202 -0.26701,-0.806469 -0.49309,-0.229707 -1.35646,-0.305676 -2.58434,-0.223939 -0.95183,0.06336 -1.73216,0.212615 -2.33331,0.445228 -0.60235,0.227208 -0.89938,0.486137 -0.89719,0.774004 0.002,0.262583 0.21781,0.447226 0.64336,0.55707 0.42956,0.10272 1.15119,0.150745 2.16302,0.145012 0,0 -0.0935,0.857259 -0.0935,0.857259 -1.87313,0.04471 -3.2608,-0.03677 -4.16395,-0.248795 -0.93542,-0.216887 -1.44563,-0.586636 -1.51462,-1.122393 -0.0728,-0.565945 0.45022,-1.085966 1.59491,-1.549623 1.16678,-0.475974 2.70691,-0.780835 4.59013,-0.904146 2.11483,-0.138458 3.68712,0.02376 4.69186,0.471914 1.28414,-0.673694 3.20304,-1.1036 5.70495,-1.267117 2.03902,-0.133249 3.55832,-0.01169 4.5381,0.354407 0.94613,0.353526 1.17165,0.85249 0.71749,1.482657 -0.54829,0.760774 -1.80414,1.356941 -3.7558,1.813208 -0.80405,0.186656 -1.84843,0.341496 -3.13872,0.465867 0,0 0.41616,-0.834723 0.41616,-0.834723 0.99391,-0.112851 1.80181,-0.276618 2.42868,-0.493313 0.62821,-0.221712 1.03941,-0.486125 1.23048,-0.796502 0.19756,-0.320909 0.0204,-0.569468 -0.54287,-0.741939 -0.59226,-0.174376 -1.44821,-0.22583 -2.56164,-0.151832 -1.47603,0.09811 -2.59365,0.335346 -3.33603,0.704814 -0.4206,0.211925 -0.69476,0.509293 -0.82388,0.885741"
       id="path5002"
       style="fill:#808080" />
  </g>
  <g
     transform="matrix(-0.49379828,-0.86957648,0.86957648,-0.49379828,216.23173,166.42764)"
     id="text5080"
     style="font-size:12px;font-style:normal;font-variant:normal;font-weight:500;font-stretch:normal;line-height:125%;letter-spacing:0px;word-spacing:0px;fill:#808080;fill-opacity:1;stroke:none;font-family:Futura;-inkscape-font-specification:Futura Medium">
    <path
       d="m 206.45849,-54.490444 c 0,0 0.0131,3.145136 0.0131,3.145136 0,0 -1.08576,-1.082815 -1.08576,-1.082815 0,0 -0.0189,-4.555 -0.0189,-4.555 0,0 6.21118,-1.446697 6.21118,-1.446697 0,0 0.01,2.228138 0.01,2.228138 0,0 -5.12925,1.711238 -5.12925,1.711238"
       id="path5085"
       style="fill:#808080" />
    <path
       d="m 211.71173,-65.812938 c 0,0 -0.39365,1.61151 -0.39365,1.61151 0,0 -1.75755,-3.888809 -1.75755,-3.888809 0.0108,0.209956 0.019,0.388113 0.0246,0.534553 0.006,0.146328 0.009,0.264611 0.009,0.354715 0.006,1.296182 -0.1684,2.410318 -0.52976,3.363397 -0.36975,0.97496 -0.83317,1.486971 -1.40006,1.514534 -0.63212,0.03073 -1.19951,-0.533517 -1.69173,-1.724948 -0.51353,-1.243013 -0.78101,-2.750584 -0.78823,-4.488244 -0.007,-1.729281 0.24467,-3.159189 0.74189,-4.259662 0.47669,-1.063193 1.02229,-1.456339 1.62785,-1.215318 0.5145,0.204781 1.05051,0.964878 1.6043,2.242966 0,0 2.55336,5.955307 2.55336,5.955307 m -4.13231,0.934897 c 0.35936,0.01769 0.65237,-0.279167 0.88315,-0.881839 0.22923,-0.598589 0.34044,-1.326896 0.33676,-2.193087 -0.004,-0.866134 -0.11986,-1.630438 -0.35171,-2.302035 -0.23892,-0.692068 -0.53055,-1.094207 -0.87842,-1.198763 -0.35736,-0.10737 -0.66949,0.129464 -0.93288,0.721411 -0.26552,0.596772 -0.39825,1.381006 -0.39424,2.343852 0.004,0.947115 0.14343,1.771202 0.41436,2.461935 0.26878,0.68524 0.57743,1.031519 0.92298,1.048526"
       id="path5087"
       style="fill:#808080" />
  </g>
</svg>
