<?xml version="1.0" encoding="UTF-8" standalone="no"?>
<!-- Generator: Assembly 1.0 - http://assemblyapp.co -->

<svg
   xmlns:dc="http://purl.org/dc/elements/1.1/"
   xmlns:cc="http://creativecommons.org/ns#"
   xmlns:rdf="http://www.w3.org/1999/02/22-rdf-syntax-ns#"
   xmlns:svg="http://www.w3.org/2000/svg"
   xmlns="http://www.w3.org/2000/svg"
   xmlns:sodipodi="http://sodipodi.sourceforge.net/DTD/sodipodi-0.dtd"
   xmlns:inkscape="http://www.inkscape.org/namespaces/inkscape"
   version="1.1"
   width="300"
   height="300"
   viewBox="0 0 300 300"
   id="svg2"
   inkscape:version="0.48.5 r10040"
   sodipodi:docname="arrow_right.svg">
  <metadata
     id="metadata17">
    <rdf:RDF>
      <cc:Work
         rdf:about="">
        <dc:format>image/svg+xml</dc:format>
        <dc:type
           rdf:resource="http://purl.org/dc/dcmitype/StillImage" />
      </cc:Work>
    </rdf:RDF>
  </metadata>
  <defs
     id="defs15" />
  <sodipodi:namedview
     pagecolor="#ffffff"
     bordercolor="#666666"
     borderopacity="1"
     objecttolerance="10"
     gridtolerance="10"
     guidetolerance="10"
     inkscape:pageopacity="0"
     inkscape:pageshadow="2"
     inkscape:window-width="1253"
     inkscape:window-height="904"
     id="namedview13"
     showgrid="false"
     inkscape:zoom="2.339579"
     inkscape:cx="151.05246"
     inkscape:cy="148.5518"
     inkscape:window-x="0"
     inkscape:window-y="0"
     inkscape:window-maximized="0"
     inkscape:current-layer="svg2" />
  <g
     id="widget"
     transform="matrix(1.5382746,0,0,1.5382746,152.63285,152.41982)">
    <path
       d="m -1.58308,95.2306 0,0 c -53.28372,0 -96.41802,-43.1342 -96.41802,-96.41792 l 0,0 c 0,-53.28368 43.1343,-96.41798 96.41797,-96.41798 l 0,0 c 53.28373,0 96.41803,43.1342 96.41803,96.41793 l 0,0 c 0,53.28367 -43.1345,96.41797 -96.41798,96.41797 z"
       id="path5"
       inkscape:connector-curvature="0"
       style="fill:#55dfb1;fill-opacity:1" />
    <path
       d="m 13.891,17.135 -34.5346,0 0,-34.5346 34.5346,0 0,34.5346 z"
       id="path7"
       inkscape:connector-curvature="0"
       style="fill:#55dfb1;fill-opacity:1" />
    <path
       d="m -11.2551,-69.6912 80.454,68.66175 -80.454,68.34595 z"
       id="path9"
       inkscape:connector-curvature="0"
       style="fill:#eeeeee;fill-opacity:1" />
    <path
       d="m 0.00499996,25.4716 -61.89519996,0 0,-50.9432 61.89519996,0 0,50.9432 z"
       id="path11"
       inkscape:connector-curvature="0"
       style="fill:#eeeeee;fill-opacity:1" />
  </g>
</svg>
