<?xml version="1.0" encoding="UTF-8" standalone="no"?>
<!-- Created with Inkscape (http://www.inkscape.org/) -->

<svg
   xmlns:dc="http://purl.org/dc/elements/1.1/"
   xmlns:cc="http://creativecommons.org/ns#"
   xmlns:rdf="http://www.w3.org/1999/02/22-rdf-syntax-ns#"
   xmlns:svg="http://www.w3.org/2000/svg"
   xmlns="http://www.w3.org/2000/svg"
   xmlns:sodipodi="http://sodipodi.sourceforge.net/DTD/sodipodi-0.dtd"
   xmlns:inkscape="http://www.inkscape.org/namespaces/inkscape"
   sodipodi:docname="d20_09.svg"
   inkscape:version="0.48.5 r10040"
   id="svg2"
   viewBox="0 0 156.44119 169.22659"
   height="169.22659"
   width="156.44119"
   version="1.1">
  <sodipodi:namedview
     pagecolor="#ffffff"
     bordercolor="#666666"
     borderopacity="1"
     objecttolerance="10"
     gridtolerance="10"
     guidetolerance="10"
     inkscape:pageopacity="0"
     inkscape:pageshadow="2"
     inkscape:window-width="1680"
     inkscape:window-height="1001"
     id="namedview27"
     showgrid="false"
     inkscape:zoom="4.6978432"
     inkscape:cx="78.220596"
     inkscape:cy="84.613297"
     inkscape:window-x="0"
     inkscape:window-y="1"
     inkscape:window-maximized="1"
     inkscape:current-layer="svg2" />
  <metadata
     id="metadata21">
    <rdf:RDF>
      <cc:Work
         rdf:about="">
        <dc:format>image/svg+xml</dc:format>
        <dc:type
           rdf:resource="http://purl.org/dc/dcmitype/StillImage" />
        <dc:title />
      </cc:Work>
    </rdf:RDF>
  </metadata>
  <defs
     id="defs19" />
  <g
     transform="translate(-37.3019,-75.296)"
     id="g3036">
    <g
       transform="translate(112.5,150)"
       id="widget">
      <path
         d="M 61.1112,45.8264 4.63537,94.5226 -53.0845,46.7585 z"
         id="path5"
         style="fill:#d3d3d3;fill-opacity:1" />
      <path
         d="m 4.60797,-74.704 5.41843,22.7464 -83.219,19.8238 z"
         id="path7"
         style="fill:#d3d3d3;fill-opacity:1" />
      <path
         d="m 3.44252,-74.704 -5.41846,22.7465 83.21904,19.8237 z"
         id="path9"
         style="fill:#d3d3d3;fill-opacity:1" />
      <path
         d="M -53.4025,46.9333 -75.1981,-32.1548 3.9369,-55.0094 z"
         id="path11"
         style="fill:#f0f0f0;fill-opacity:1" />
      <path
         d="M 62.2343,46.0943 81.1564,-32.4527 3.23229,-55.0429 z"
         id="path13"
         style="fill:#f0f0f0;fill-opacity:1" />
      <path
         d="M -53.5597,46.8415 3.67051,-54.4309 62.579,46.143 z"
         id="path15"
         style="fill:#f8f8f8;fill-opacity:1" />
    </g>
  </g>
  <g
     style="font-size:41.2510643px;font-style:normal;font-variant:normal;font-weight:500;font-stretch:normal;line-height:125%;letter-spacing:0px;word-spacing:0px;fill:#000000;fill-opacity:1;stroke:none;font-family:Futura;-inkscape-font-specification:Futura Medium"
     id="text3045-7">
    <path
       d="m 76.745166,102.37154 -3.444303,-2.558048 7.432443,-10.131487 c -0.402856,0.05372 -0.745271,0.09401 -1.027249,0.120852 -0.282001,0.02687 -0.510278,0.0403 -0.684832,0.04028 -2.51106,1.2e-5 -4.686407,-0.960095 -6.526047,-2.880323 -1.826222,-1.906771 -2.739331,-4.202971 -2.739329,-6.888605 -2e-6,-2.860157 1.013817,-5.304066 3.041461,-7.331732 2.041061,-2.041038 4.484969,-3.061571 7.331732,-3.061603 2.833309,3.2e-5 5.29736,1.007137 7.392158,3.021318 2.094759,2.000811 3.142148,4.364151 3.142171,7.090027 -2.3e-5,2.417074 -1.020556,5.028833 -3.061602,7.835285 L 76.745166,102.37154 M 74.328111,79.731797 c -7e-6,1.67853 0.570686,3.088477 1.71208,4.229845 1.154805,1.154831 2.54461,1.732238 4.169419,1.732223 1.624784,1.5e-5 3.007875,-0.570678 4.149277,-1.712081 1.154797,-1.154796 1.732204,-2.544601 1.732223,-4.169419 -1.9e-5,-1.624775 -0.577426,-3.01458 -1.732223,-4.169419 -1.141402,-1.14136 -2.531207,-1.712053 -4.169419,-1.71208 -1.611381,2.7e-5 -2.987757,0.57072 -4.129135,1.71208 -1.154822,1.154839 -1.732229,2.517788 -1.732222,4.088851"
       style=""
       id="path3870" />
  </g>
  <g
     id="text3544"
     style="font-size:12px;font-style:normal;font-variant:normal;font-weight:500;font-stretch:normal;line-height:125%;letter-spacing:0px;word-spacing:0px;fill:#808080;fill-opacity:1;stroke:none;font-family:Futura;-inkscape-font-specification:Futura Medium"
     transform="matrix(-0.17265274,-0.84384406,0.68319394,-0.17053564,19.223476,-69.966025)"
     inkscape:transform-center-y="-4.0539778">
    <path
       id="path3549"
       d="m -161.63539,-24.936863 c 0,0 3.19015,-3.665221 3.19015,-3.665221 0,0 8.99048,8.634675 8.99048,8.634675 -0.0205,-0.498537 -0.0323,-0.918303 -0.0355,-1.261227 -0.003,-0.340538 0.002,-0.606297 0.016,-0.798495 0.20917,-2.91544 1.30827,-5.280475 3.24497,-7.163587 1.83376,-1.794608 3.94943,-2.64136 6.40237,-2.593474 2.60152,0.05083 4.92027,1.090836 7.02633,3.190964 2.19175,2.185607 3.5474,4.924894 4.0113,8.308698 0.49285,3.594904 -0.15061,6.941147 -2.03501,9.964965 -2.00072,3.1382655 -4.66883,4.7400944 -7.91482,4.6677431 -2.90993,-0.064861 -5.96053,-1.7498579 -9.01973,-4.9169131 0,0 -13.87659,-14.368128 -13.87659,-14.368128 m 22.23717,-2.202393 c -1.58821,-0.03178 -2.92987,0.554369 -4.04722,1.782408 -1.16107,1.276167 -1.78055,2.875686 -1.83621,4.829354 -0.0584,2.050791 0.50098,3.871022 1.70641,5.430862 1.24212,1.607307 2.78074,2.448902 4.58783,2.487844 1.8078,0.03898 3.29583,-0.737948 4.43778,-2.295579 1.1088,-1.512383 1.55175,-3.322379 1.35891,-5.397206 -0.1807,-1.944203 -0.89786,-3.557354 -2.13118,-4.868656 -1.21432,-1.291067 -2.56506,-1.938754 -4.07632,-1.969027"
       inkscape:connector-curvature="0"
       style="fill:#808080" />
  </g>
  <g
     style="font-size:12px;font-style:normal;font-variant:normal;font-weight:500;font-stretch:normal;line-height:125%;letter-spacing:0px;word-spacing:0px;fill:#808080;fill-opacity:1;stroke:none;font-family:Futura;-inkscape-font-specification:Futura Medium"
     id="text3627"
     transform="matrix(0.92427804,0.38171992,-0.38171992,0.92427804,228.63543,129.14182)">
    <path
       d="m -126.1627,-19.954219 c 0,0 0.49614,4.95697 0.49614,4.95697 0,0 -4.0776,-2.843342 -4.0776,-2.843342 0,0 -0.57138,-6.86157 -0.57138,-6.86157 0,0 23.03804,3.666334 23.03804,3.666334 0,0 0.67831,3.656559 0.67831,3.656559 0,0 -19.56351,-2.574951 -19.56351,-2.574951"
       id="path3632"
       inkscape:connector-curvature="0"
       style="fill:#808080" />
    <path
       d="m -127.79091,-36.221821 c 0,0 0.42584,4.254583 0.42584,4.254583 0,0 -3.7941,-2.86588 -3.7941,-2.86588 0,0 -0.48966,-5.880126 -0.48966,-5.880126 0,0 21.77848,5.70037 21.77848,5.70037 0,0 0.59511,3.207999 0.59511,3.207999 0,0 -18.51567,-4.416946 -18.51567,-4.416946"
       id="path3634"
       inkscape:connector-curvature="0"
       style="fill:#808080" />
  </g>
  <g
     transform="matrix(0.80772149,0.58956424,-0.58956424,0.80772149,57.799167,127.80198)"
     id="text3680"
     style="font-size:12px;font-style:normal;font-variant:normal;font-weight:500;font-stretch:normal;line-height:125%;letter-spacing:0px;word-spacing:0px;fill:#808080;fill-opacity:1;stroke:none;font-family:Futura;-inkscape-font-specification:Futura Medium">
    <path
       inkscape:connector-curvature="0"
       id="path3685"
       d="m 15.364183,9.4914678 c 0,0 -0.167462,2.9564382 -0.167462,2.9564382 0,0 -3.493632,-1.091986 -3.493632,-1.091986 0,0 0.08311,-4.3157635 0.08311,-4.3157635 0,0 25.323542,-1.932525 25.323542,-1.932525 0,0 -0.7168,2.6671432 -0.7168,2.6671432 0,0 -21.028757,1.7166931 -21.028757,1.7166931"
       style="fill:#808080" />
    <path
       inkscape:connector-curvature="0"
       id="path3687"
       d="m 40.697887,-4.9400157 c 0,0 -2.778469,2.501009 -2.778469,2.501009 0,0 -7.63163,-4.8144651 -7.63163,-4.8144651 -0.006,0.3003414 -0.01582,0.5545717 -0.02959,0.7633371 -0.01375,0.2079785 -0.03221,0.3761662 -0.05549,0.5049027 -0.329055,1.8199285 -1.440124,3.3993144 -3.3175,4.7647987 C 25.051594,0.11291185 22.987437,0.84760275 20.654302,1.0009534 18.145694,1.1658421 16.021927,0.6279495 14.258429,-0.64517357 12.422575,-1.9705624 11.496194,-3.6938661 11.52784,-5.8417193 c 0.03281,-2.2225202 1.072871,-4.2717157 3.153168,-6.1109667 2.113253,-1.879869 4.572876,-2.883322 7.320661,-2.977787 2.411749,-0.08288 4.867762,0.710551 7.311277,2.330636 0,0 11.384956,7.6598205 11.384956,7.6598205 m -20.03248,2.841389 c 1.504677,-0.089691 2.811665,-0.5653653 3.936662,-1.434375 1.15065,-0.8887906 1.818719,-1.9321282 1.997602,-3.1420114 0.182815,-1.2363069 -0.19067,-2.2853967 -1.13744,-3.1394995 -0.977315,-0.8816566 -2.256345,-1.2963706 -3.829384,-1.2302666 -1.582847,0.06654 -2.980384,0.599194 -4.174602,1.5888812 -1.166651,0.9669038 -1.777869,2.090774 -1.842585,3.3583895 -0.06221,1.2196036 0.418882,2.2109717 1.42757,2.9825661 1.001101,0.7657655 2.205689,1.1007591 3.622177,1.0163157"
       style="fill:#808080" />
  </g>
  <g
     style="font-size:12px;font-style:normal;font-variant:normal;font-weight:500;font-stretch:normal;line-height:125%;letter-spacing:0px;word-spacing:0px;fill:#808080;fill-opacity:1;stroke:none;font-family:Futura;-inkscape-font-specification:Futura Medium"
     id="text3739"
     transform="matrix(-0.90902587,-0.4167397,0.4167397,-0.90902587,303.64194,174.76091)">
    <path
       d="m 251.74148,55.63573 c 0,0 0.18218,-1.155185 0.18218,-1.155185 0,0 3.08298,0.0046 3.08298,0.0046 0,0 -0.30679,1.155036 -0.30679,1.155036 0,0 3.05626,0.0046 3.05626,0.0046 0,0 -0.56152,1.488947 -0.56152,1.488947 0,0 -2.89027,-0.0044 -2.89027,-0.0044 0,0 -1.03418,3.89359 -1.03418,3.89359 0,0 -18.66114,-5.412928 -18.66114,-5.412928 0,0 17.13248,0.02574 17.13248,0.02574 m -0.23487,1.489344 c 0,0 -6.822,-0.01036 -6.822,-0.01036 0,0 6.50863,1.997492 6.50863,1.997492 0,0 0.31337,-1.98713 0.31337,-1.98713"
       id="path3744"
       inkscape:connector-curvature="0"
       style="fill:#808080" />
  </g>
  <g
     transform="matrix(-0.52036903,-0.85394149,0.85394149,-0.52036903,190.98949,145.52668)"
     id="text3800"
     style="font-size:12px;font-style:normal;font-variant:normal;font-weight:500;font-stretch:normal;line-height:125%;letter-spacing:0px;word-spacing:0px;fill:#808080;fill-opacity:1;stroke:none;font-family:Futura;-inkscape-font-specification:Futura Medium">
    <path
       inkscape:connector-curvature="0"
       id="path3805"
       d="m 176.76129,-36.905785 c 0,0 0.006,3.090764 0.006,3.090764 0,0 -1.03937,-1.069625 -1.03937,-1.069625 0,0 -0.009,-4.472192 -0.009,-4.472192 0,0 5.99524,-1.426289 5.99524,-1.426289 0,0 0.004,2.202478 0.004,2.202478 0,0 -4.95696,1.674864 -4.95696,1.674864"
       style="fill:#808080" />
    <path
       inkscape:connector-curvature="0"
       id="path3807"
       d="m 180.28971,-53.787537 c 0,0 -0.003,-1.650461 -0.003,-1.650461 0,0 0.71101,0.285077 0.71101,0.285077 0,0 0.003,1.600449 0.003,1.600449 0,0 0.69049,0.228327 0.69049,0.228327 0,0 0.004,2.204483 0.004,2.204483 0,0 -0.69031,-0.159332 -0.69031,-0.159332 0,0 0.0138,7.393555 0.0138,7.393555 0,0 -5.91331,-11.616432 -5.91331,-11.616432 0,0 5.18438,1.714334 5.18438,1.714334 m 0.004,2.344508 c 0,0 -1.93461,-0.446534 -1.93461,-0.446534 0,0 1.9414,4.027948 1.9414,4.027948 0,0 -0.007,-3.581414 -0.007,-3.581414"
       style="fill:#808080" />
  </g>
</svg>
