<?xml version="1.0" encoding="UTF-8" standalone="no"?>
<!-- Created with Inkscape (http://www.inkscape.org/) -->

<svg
   xmlns:dc="http://purl.org/dc/elements/1.1/"
   xmlns:cc="http://creativecommons.org/ns#"
   xmlns:rdf="http://www.w3.org/1999/02/22-rdf-syntax-ns#"
   xmlns:svg="http://www.w3.org/2000/svg"
   xmlns="http://www.w3.org/2000/svg"
   xmlns:sodipodi="http://sodipodi.sourceforge.net/DTD/sodipodi-0.dtd"
   xmlns:inkscape="http://www.inkscape.org/namespaces/inkscape"
   version="1.1"
   width="156.44119"
   height="169.22659"
   viewBox="0 0 156.44119 169.22659"
   id="svg2"
   inkscape:version="0.48.5 r10040"
   sodipodi:docname="d20_18.svg">
  <sodipodi:namedview
     pagecolor="#ffffff"
     bordercolor="#666666"
     borderopacity="1"
     objecttolerance="10"
     gridtolerance="10"
     guidetolerance="10"
     inkscape:pageopacity="0"
     inkscape:pageshadow="2"
     inkscape:window-width="1680"
     inkscape:window-height="1001"
     id="namedview3480"
     showgrid="false"
     inkscape:zoom="4.6978432"
     inkscape:cx="78.220596"
     inkscape:cy="77.394067"
     inkscape:window-x="0"
     inkscape:window-y="1"
     inkscape:window-maximized="1"
     inkscape:current-layer="svg2" />
  <metadata
     id="metadata21">
    <rdf:RDF>
      <cc:Work
         rdf:about="">
        <dc:format>image/svg+xml</dc:format>
        <dc:type
           rdf:resource="http://purl.org/dc/dcmitype/StillImage" />
        <dc:title />
      </cc:Work>
    </rdf:RDF>
  </metadata>
  <defs
     id="defs19" />
  <g
     transform="translate(-37.3019,-75.296)"
     id="g3036">
    <g
       transform="translate(112.5,150)"
       id="widget">
      <path
         d="M 61.1112,45.8264 4.63537,94.5226 -53.0845,46.7585 z"
         id="path5"
         style="fill:#d3d3d3;fill-opacity:1" />
      <path
         d="m 4.60797,-74.704 5.41843,22.7464 -83.219,19.8238 z"
         id="path7"
         style="fill:#d3d3d3;fill-opacity:1" />
      <path
         d="m 3.44252,-74.704 -5.41846,22.7465 83.21904,19.8237 z"
         id="path9"
         style="fill:#d3d3d3;fill-opacity:1" />
      <path
         d="M -53.4025,46.9333 -75.1981,-32.1548 3.9369,-55.0094 z"
         id="path11"
         style="fill:#f0f0f0;fill-opacity:1" />
      <path
         d="M 62.2343,46.0943 81.1564,-32.4527 3.23229,-55.0429 z"
         id="path13"
         style="fill:#f0f0f0;fill-opacity:1" />
      <path
         d="M -53.5597,46.8415 3.67051,-54.4309 62.579,46.143 z"
         id="path15"
         style="fill:#f8f8f8;fill-opacity:1" />
    </g>
  </g>
  <g
     id="text3045"
     style="font-size:41.2510643px;font-style:normal;font-variant:normal;font-weight:500;font-stretch:normal;line-height:125%;letter-spacing:0px;word-spacing:0px;fill:#000000;fill-opacity:1;stroke:none;font-family:Futura;-inkscape-font-specification:Futura Medium">
    <path
       d="m 65.879851,74.701597 -5.377947,0 2.578192,-4.390983 7.492869,0 0,31.099436 -4.693114,0 0,-26.708453"
       id="path3981" />
    <path
       d="m 84.269608,85.235926 c -2.282779,-1.611352 -3.424165,-3.806841 -3.424161,-6.586474 -4e-6,-2.524453 0.866107,-4.63266 2.598334,-6.324626 1.745642,-1.691907 3.914275,-2.537875 6.505905,-2.537907 2.578176,3.2e-5 4.726667,0.846 6.445479,2.537907 1.718773,1.678538 2.578169,3.793458 2.578191,6.344769 -2.2e-5,2.672208 -1.134694,4.854269 -3.404018,6.546189 1.248791,0.67142 2.22904,1.651668 2.940749,2.94075 0.725094,1.289107 1.087652,2.739339 1.087675,4.350698 -2.3e-5,2.752763 -0.899703,5.008678 -2.699044,6.767753 -1.799381,1.759075 -4.102295,2.638615 -6.908748,2.638615 -2.873619,0 -5.243673,-0.88625 -7.110169,-2.658758 -1.879935,-1.772502 -2.8199,-4.001561 -2.819897,-6.687184 -3e-6,-3.491288 1.40323,-5.935197 4.209704,-7.331732 m 0.986963,-6.606616 c -8e-6,1.329402 0.449833,2.443931 1.349523,3.343592 0.913099,0.913128 2.0142,1.369683 3.303307,1.369665 1.275654,1.8e-5 2.370042,-0.456537 3.283166,-1.369665 0.913093,-0.913089 1.369647,-2.007476 1.369664,-3.283165 -1.7e-5,-1.275644 -0.456571,-2.370031 -1.369664,-3.283166 -0.913124,-0.913083 -2.007512,-1.369637 -3.283166,-1.369664 -1.275679,2.7e-5 -2.370066,0.456581 -3.283165,1.369664 -0.913118,0.913135 -1.369673,1.98738 -1.369665,3.222739 M 84.67245,92.406521 c -8e-6,1.436812 0.496831,2.672195 1.490517,3.706151 1.007096,1.020538 2.22905,1.530805 3.665866,1.530801 1.423362,4e-6 2.638603,-0.503549 3.645724,-1.510659 1.007089,-1.020528 1.510641,-2.242482 1.510659,-3.665866 -1.8e-5,-1.436795 -0.50357,-2.658749 -1.510659,-3.665866 -1.007121,-1.007093 -2.222362,-1.510645 -3.645724,-1.51066 -1.40996,1.5e-5 -2.6252,0.503567 -3.645724,1.51066 -1.007114,1.007117 -1.510667,2.208929 -1.510659,3.605439"
       id="path3983" />
  </g>
  <g
     transform="matrix(-0.02002091,-0.7511431,0.58282046,0.00504608,11.499213,-58.09522)"
     id="text3501"
     style="font-size:12px;font-style:normal;font-variant:normal;font-weight:500;font-stretch:normal;line-height:125%;letter-spacing:0px;word-spacing:0px;fill:#808080;fill-opacity:1;stroke:none;font-family:Futura;-inkscape-font-specification:Futura Medium">
    <path
       d="m -160.56139,6.7792379 c 0,0 -4.05126,15.1197331 -4.05126,15.1197331 0,0 5.45703,2.296167 5.45703,2.296167 0.0561,-0.478076 0.11424,-0.923158 0.17446,-1.336299 0.0645,-0.435488 0.1284,-0.826308 0.19214,-1.173991 1.00888,-5.503108 2.71929,-9.489144 5.04199,-12.344753 2.07288,-2.5756588 4.33484,-3.8521495 6.89436,-4.0216745 2.58002,-0.1708363 4.75311,0.9041484 6.67805,3.361906 2.08672,2.6643655 3.5816,6.5245725 4.45391,12.0677155 1.3183,8.377215 0.33394,17.16201 -3.83936,26.004988 0,0 -4.48535,-10.218999 -4.48535,-10.218999 1.92474,-3.099611 3.13809,-5.856288 3.72711,-8.3285 0.53618,-2.307361 0.65382,-4.852392 0.39495,-7.577228 -0.30966,-3.259539 -1.13898,-5.691083 -2.45837,-7.457461 -1.28979,-1.676401 -2.74797,-2.405863 -4.44219,-2.246791 -1.7713,0.166357 -3.30083,1.194854 -4.63721,3.190764 -1.48255,2.15812 -2.46319,4.973159 -2.8842,8.590832 -0.52701,4.528895 0.12924,8.722728 2.13759,12.328725 0,0 -0.32974,4.546009 -0.32974,4.546009 0,0 -20.0859,-9.351705 -20.0859,-9.351705 0,0 7.95322,-23.1668353 7.95322,-23.1668353 0,0 4.10864,-0.2825934 4.10864,-0.2825934"
       id="path3506"
       style="fill:#808080" />
  </g>
  <g
     transform="matrix(0.53285602,0.31042732,-0.31964734,0.55611342,78.942494,104.22807)"
     id="text3574"
     style="font-size:12px;font-style:normal;font-variant:normal;font-weight:500;font-stretch:normal;line-height:125%;letter-spacing:0px;word-spacing:0px;fill:#808080;fill-opacity:1;stroke:none;font-family:Futura;-inkscape-font-specification:Futura Medium">
    <path
       d="m 42.353441,53.73665 c 0,0 5.860327,-26.34903 5.860327,-26.34903 0,0 6.74973,-0.643926 6.74973,-0.643926 0,0 -11.538615,38.960996 -11.538615,38.960996 0,0 -9.801018,-14.00919 -9.801018,-14.00919 -1.256676,-1.76749 -2.400231,-3.312203 -3.407954,-4.598835 -1.043415,-1.359382 -1.94736,-2.41974 -2.693299,-3.153635 -1.503809,-1.540938 -2.871793,-2.292715 -4.055121,-2.210221 -1.693454,0.11815 -2.983379,1.320177 -3.837213,3.500107 -0.80228,2.048543 -0.98738,4.377804 -0.613736,6.924407 0.69548,4.739571 2.697261,7.097888 6.063343,7.579015 0,0 0.319723,5.396859 0.319723,5.396859 -5.364251,-0.684753 -8.774103,-4.377072 -10.510564,-12.549868 -1.035193,-4.87245 -1.032251,-9.642336 0.24346,-14.119145 1.444083,-5.122178 4.008837,-8.123465 7.581581,-8.462981 2.302486,-0.218703 4.598907,0.899352 6.785539,3.262168 1.09595,1.151394 2.350786,2.817219 3.731857,4.937311 1.300133,1.987381 2.747655,4.385062 4.302832,7.113013 0,0 4.819128,8.422955 4.819128,8.422955"
       id="path3579"
       style="fill:#808080" />
  </g>
  <g
     transform="matrix(0.53206887,0.20298518,-0.00180194,0.54503246,188.71199,63.940681)"
     id="text3651"
     style="font-size:12px;font-style:normal;font-variant:normal;font-weight:500;font-stretch:normal;line-height:125%;letter-spacing:0px;word-spacing:0px;fill:#808080;fill-opacity:1;stroke:none;font-family:Futura;-inkscape-font-specification:Futura Medium">
    <path
       d="m -100.39635,17.225192 c 0,0 0.838054,-3.922382 0.838054,-3.922382 0,0 3.881186,-0.923716 3.881186,-0.923716 0,0 -0.540377,3.626257 -0.540377,3.626257 0,0 3.817022,-1.114218 3.817022,-1.114218 0,0 -0.485044,5.533368 -0.485044,5.533368 0,0 -4.229716,1.60522 -4.229716,1.60522 0,0 -4.744985,31.841722 -4.744985,31.841722 0,0 -39.63406,-24.649453 -39.63406,-24.649453 0,0 41.09792,-11.996798 41.09792,-11.996798 m -1.40663,6.583581 c 0,0 -14.8228,5.6254 -14.8228,5.6254 0,0 11.98277,7.666952 11.98277,7.666952 0,0 2.84003,-13.292352 2.84003,-13.292352"
       id="path3656"
       style="fill:#808080" />
  </g>
  <g
     transform="matrix(-0.2088526,-0.130451,0.29054992,-0.18096756,54.929456,3.9838377)"
     id="text3732"
     style="font-size:12px;font-style:normal;font-variant:normal;font-weight:500;font-stretch:normal;line-height:125%;letter-spacing:0px;word-spacing:0px;fill:#808080;fill-opacity:1;stroke:none;font-family:Futura;-inkscape-font-specification:Futura Medium">
    <path
       d="m -74.376116,1.9420985 c 0,0 0.0738,5.8003158 0.0738,5.8003158 0,0 -8.537514,-1.0191484 -8.537514,-1.0191484 0,0 -0.147821,-8.9596305 -0.147821,-8.9596305 0,0 38.277253,-4.0649329 38.277253,-4.0649329 0,0 -0.0012,3.2232449 -0.0012,3.2232449 0,0 -29.66448,5.0201511 -29.66448,5.0201511"
       id="path3737"
       inkscape:connector-curvature="0"
       style="fill:#808080" />
    <path
       d="m -57.476018,-19.913173 c 0,0 -4.759543,-0.609443 -4.759543,-0.609443 -0.01351,-1.858238 -0.306979,-3.158509 -0.887767,-3.908122 -1.045557,-1.366977 -2.779274,-2.315266 -5.302238,-2.839059 -2.07536,-0.430833 -3.844171,-0.322323 -5.255322,0.361339 -1.486181,0.689028 -2.239461,1.827896 -2.218738,3.395943 0.0194,1.460607 0.608463,2.652785 1.742613,3.558367 1.125319,0.853557 2.94594,1.560019 5.366462,2.11032 0,0 0.04841,4.762041 0.04841,4.762041 -4.753485,-0.60807 -8.641957,-1.830529 -11.323074,-3.694217 -2.889954,-1.991045 -4.438094,-4.706515 -4.495091,-8.050763 -0.05759,-3.387415 1.672636,-5.780862 4.997084,-7.096177 3.064055,-1.228566 6.729814,-1.213362 10.8138,-0.110388 4.128219,1.114962 7.047673,2.954504 8.999525,5.491271 1.742178,-1.880033 4.399614,-2.281094 7.742847,-1.356062 2.479703,0.686138 4.355935,1.900757 5.727744,3.617152 1.302445,1.629632 1.928728,3.431599 1.927633,5.464223 -0.0014,2.584297 -0.979663,4.448096 -3.050455,5.663671 -0.918168,0.532667 -2.241583,0.872619 -4.028237,1.012675 0,0 -0.0091,-3.550413 -0.0091,-3.550413 1.329338,-0.0943 2.308995,-0.464152 2.972316,-1.101415 0.637344,-0.633578 0.950167,-1.496204 0.94923,-2.599383 -9.41e-4,-1.114091 -0.401708,-2.108664 -1.220775,-3.003081 -0.867504,-0.92707 -2.005391,-1.550044 -3.445027,-1.857636 -2.018352,-0.431208 -3.538477,-0.124034 -4.474319,0.967567 -0.551222,0.655802 -0.826218,1.783005 -0.817964,3.37159"
       id="path3739"
       inkscape:connector-curvature="0"
       style="fill:#808080" />
  </g>
  <g
     transform="matrix(-0.36622469,0.01492412,-0.10911261,-0.16747902,105.02526,18.882514)"
     id="text3821"
     style="font-size:12px;font-style:normal;font-variant:normal;font-weight:500;font-stretch:normal;line-height:125%;letter-spacing:0px;word-spacing:0px;fill:#808080;fill-opacity:1;stroke:none;font-family:Futura;-inkscape-font-specification:Futura Medium">
    <path
       d="m 21.447203,60.838875 c 0,0 0.751955,4.404746 0.751955,4.404746 0,0 -4.15675,-2.017241 -4.15675,-2.017241 0,0 -1.676807,-6.899688 -1.676807,-6.899688 0,0 30.656054,-0.05884 30.656054,-0.05884 0,0 -1.230427,4.542216 -1.230427,4.542216 0,0 -24.344025,0.0288 -24.344025,0.0288"
       id="path3826"
       inkscape:connector-curvature="0"
       style="fill:#808080" />
    <path
       d="m 17.134981,35.579077 c 0,0 1.542751,9.037011 1.542751,9.037011 0,0 -6.139908,-4.039847 -6.139908,-4.039847 0,0 -3.6312389,-14.941742 -3.6312389,-14.941742 0,0 46.5005079,-0.322135 46.5005079,-0.322135 0,0 -2.730106,10.078396 -2.730106,10.078396 0,0 -35.542006,0.188317 -35.542006,0.188317"
       id="path3828"
       inkscape:connector-curvature="0"
       style="fill:#808080" />
  </g>
</svg>
