<?xml version="1.0" encoding="UTF-8" standalone="no"?>
<!-- Created with Inkscape (http://www.inkscape.org/) -->

<svg
   xmlns:dc="http://purl.org/dc/elements/1.1/"
   xmlns:cc="http://creativecommons.org/ns#"
   xmlns:rdf="http://www.w3.org/1999/02/22-rdf-syntax-ns#"
   xmlns:svg="http://www.w3.org/2000/svg"
   xmlns="http://www.w3.org/2000/svg"
   xmlns:sodipodi="http://sodipodi.sourceforge.net/DTD/sodipodi-0.dtd"
   xmlns:inkscape="http://www.inkscape.org/namespaces/inkscape"
   version="1.1"
   width="156.44119"
   height="169.22659"
   viewBox="0 0 156.44119 169.22659"
   id="svg2"
   inkscape:version="0.48.5 r10040"
   sodipodi:docname="d20_04.svg">
  <sodipodi:namedview
     pagecolor="#ffffff"
     bordercolor="#666666"
     borderopacity="1"
     objecttolerance="10"
     gridtolerance="10"
     guidetolerance="10"
     inkscape:pageopacity="0"
     inkscape:pageshadow="2"
     inkscape:window-width="1680"
     inkscape:window-height="1001"
     id="namedview3089"
     showgrid="false"
     inkscape:zoom="4.6978432"
     inkscape:cx="78.220596"
     inkscape:cy="84.613297"
     inkscape:window-x="0"
     inkscape:window-y="1"
     inkscape:window-maximized="1"
     inkscape:current-layer="svg2" />
  <metadata
     id="metadata21">
    <rdf:RDF>
      <cc:Work
         rdf:about="">
        <dc:format>image/svg+xml</dc:format>
        <dc:type
           rdf:resource="http://purl.org/dc/dcmitype/StillImage" />
        <dc:title />
      </cc:Work>
    </rdf:RDF>
  </metadata>
  <defs
     id="defs19" />
  <g
     transform="translate(-37.3019,-75.296)"
     id="g3036">
    <g
       transform="translate(112.5,150)"
       id="widget">
      <path
         d="M 61.1112,45.8264 4.63537,94.5226 -53.0845,46.7585 z"
         id="path5"
         style="fill:#d3d3d3;fill-opacity:1" />
      <path
         d="m 4.60797,-74.704 5.41843,22.7464 -83.219,19.8238 z"
         id="path7"
         style="fill:#d3d3d3;fill-opacity:1" />
      <path
         d="m 3.44252,-74.704 -5.41846,22.7465 83.21904,19.8237 z"
         id="path9"
         style="fill:#d3d3d3;fill-opacity:1" />
      <path
         d="M -53.4025,46.9333 -75.1981,-32.1548 3.9369,-55.0094 z"
         id="path11"
         style="fill:#f0f0f0;fill-opacity:1" />
      <path
         d="M 62.2343,46.0943 81.1564,-32.4527 3.23229,-55.0429 z"
         id="path13"
         style="fill:#f0f0f0;fill-opacity:1" />
      <path
         d="M -53.5597,46.8415 3.67051,-54.4309 62.579,46.143 z"
         id="path15"
         style="fill:#f8f8f8;fill-opacity:1" />
    </g>
  </g>
  <g
     id="text3045-7"
     style="font-size:41.2510643px;font-style:normal;font-variant:normal;font-weight:500;font-stretch:normal;line-height:125%;letter-spacing:0px;word-spacing:0px;fill:#000000;fill-opacity:1;stroke:none;font-family:Futura;-inkscape-font-specification:Futura Medium">
    <path
       d="m 87.823332,92.622754 3.303308,0 0,4.27013 -3.303308,0 0,4.411126 -4.693114,0 0,-4.411126 -15.267728,0 19.960842,-29.004655 0,24.734525 m -4.693114,0 0,-10.413476 -7.170595,10.413476 7.170595,0"
       id="path3773" />
  </g>
  <g
     transform="matrix(-0.84361829,0.53694337,-0.53694337,-0.84361829,90.234938,-19.706265)"
     id="text3453"
     style="font-size:12px;font-style:normal;font-variant:normal;font-weight:500;font-stretch:normal;line-height:125%;letter-spacing:0px;word-spacing:0px;fill:#808080;fill-opacity:1;stroke:none;font-family:Futura;-inkscape-font-specification:Futura Medium">
    <path
       d="m 78.675808,-21.368095 c 0,0 -0.05483,2.9964 -0.05483,2.9964 0,0 -3.548371,-1.198847 -3.548371,-1.198847 0,0 -0.08987,-4.381142 -0.08987,-4.381142 0,0 25.598643,-1.351283 25.598643,-1.351283 0,0 -0.657376,2.719705 -0.657376,2.719705 0,0 -21.248202,1.215167 -21.248202,1.215167"
       id="path3458"
       style="fill:#808080" />
    <path
       d="m 88.517488,-33.667255 c -1.608024,1.682912 -3.62953,2.560016 -6.110471,2.664648 -2.27031,0.09575 -4.17143,-0.432161 -5.72393,-1.609216 -1.598105,-1.221522 -2.439809,-2.832077 -2.49091,-4.860083 -0.05272,-2.094583 0.759384,-3.923762 2.46376,-5.450311 1.726112,-1.558012 3.916308,-2.374678 6.5271,-2.425189 2.711377,-0.05241 4.813033,0.911595 6.278601,2.834062 0.774936,-1.083829 1.838464,-1.956543 3.187599,-2.607905 1.359779,-0.667578 2.837109,-1.01772 4.418925,-1.046903 2.683523,-0.04946 4.698798,0.701295 6.030988,2.215084 1.29064,1.466602 1.64335,3.312697 1.10426,5.506569 -0.53073,2.159876 -1.71653,3.907754 -3.54533,5.285476 -1.795037,1.360009 -3.819718,2.079097 -6.113227,2.177804 -3.007324,0.129434 -5.013424,-0.745062 -6.027365,-2.684036 m -5.96269,-0.493623 c 1.224992,-0.04551 2.272725,-0.415615 3.153249,-1.115601 0.902618,-0.717511 1.403184,-1.572542 1.496131,-2.573227 0.0937,-1.008451 -0.261334,-1.875979 -1.076139,-2.597318 -0.828027,-0.733051 -1.87292,-1.088138 -3.128303,-1.056187 -1.260389,0.03211 -2.358219,0.444611 -3.282294,1.231106 -0.914291,0.778235 -1.374293,1.681598 -1.387035,2.70196 -0.01246,1.001793 0.410884,1.831852 1.259839,2.495965 0.8359,0.653876 1.821912,0.955757 2.964552,0.913302 m 12.395896,-0.04048 c 1.266855,-0.04792 2.420232,-0.447213 3.472272,-1.203936 1.053338,-0.774249 1.698214,-1.70332 1.929484,-2.797073 0.23372,-1.105267 -0.0249,-2.053507 -0.789221,-2.83822 -0.790366,-0.798183 -1.861423,-1.185891 -3.207095,-1.152405 -1.364365,0.03398 -2.591243,0.482292 -3.66675,1.337408 -1.06323,0.845395 -1.662058,1.832835 -1.80339,2.952406 -0.137204,1.087066 0.205604,1.990977 1.015971,2.718354 0.798203,0.705394 1.812385,1.030247 3.048729,0.983466"
       id="path3460"
       style="fill:#808080" />
  </g>
  <g
     transform="matrix(0.02942015,-0.99956713,0.99956713,0.02942015,229.99112,77.90115)"
     id="text3506"
     style="font-size:12px;font-style:normal;font-variant:normal;font-weight:500;font-stretch:normal;line-height:125%;letter-spacing:0px;word-spacing:0px;fill:#808080;fill-opacity:1;stroke:none;font-family:Futura;-inkscape-font-specification:Futura Medium">
    <path
       d="m 10.021409,-92.312032 c 0,0 -0.3819949,4.040871 -0.3819949,4.040871 0,0 -3.2372269,-1.322332 -3.2372269,-1.322332 0,0 0.4570901,-5.917622 0.4570901,-5.917622 0,0 21.6535187,-2.887869 21.6535187,-2.887869 0,0 -0.59211,3.241301 -0.59211,3.241301 0,0 -17.899277,2.845651 -17.899277,2.845651"
       id="path3511"
       style="fill:#808080" />
    <path
       d="m 11.547932,-108.46009 c 0,0 -0.446378,4.72193 -0.446378,4.72193 0,0 -3.4517831,-2.00691 -3.4517831,-2.00691 0,0 0.5375358,-6.9591 0.5375358,-6.9591 0,0 22.9997853,-0.33432 22.9997853,-0.33432 0,0 -0.679694,3.72075 -0.679694,3.72075 0,0 -18.959466,0.85765 -18.959466,0.85765"
       id="path3513"
       style="fill:#808080" />
  </g>
  <g
     transform="matrix(-0.82151751,0.57018329,-0.57018329,-0.82151751,-42.218399,232.51499)"
     id="text3565"
     style="font-size:12px;font-style:normal;font-variant:normal;font-weight:500;font-stretch:normal;line-height:125%;letter-spacing:0px;word-spacing:0px;fill:#808080;fill-opacity:1;stroke:none;font-family:Futura;-inkscape-font-specification:Futura Medium">
    <path
       d="m -162.63822,11.511927 c 0,0 0.0729,3.960204 0.0729,3.960204 0,0 -4.03899,-2.244739 -4.03899,-2.244739 0,0 0.077,-5.3227376 0.077,-5.3227376 0,0 25.59444,2.3571286 25.59444,2.3571286 0,0 0.62861,3.119342 0.62861,3.119342 0,0 -22.33393,-1.869198 -22.33393,-1.869198"
       id="path3570"
       style="fill:#808080" />
    <path
       d="m -149.94606,-5.6251966 c 0,0 -0.2345,-1.6175458 -0.2345,-1.6175458 0,0 2.91655,0.3983803 2.91655,0.3983803 0,0 0.27891,1.6110598 0.27891,1.6110598 0,0 3.0099,0.3983714 3.0099,0.3983714 0,0 0.47724,2.3681844 0.47724,2.3681844 0,0 -3.07531,-0.387743 -3.07531,-0.387743 0,0 1.48181,8.559308 1.48181,8.559308 0,0 -22.98057,-13.7290539 -22.98057,-13.7290539 0,0 18.12597,2.3990388 18.12597,2.3990388 m 0.34635,2.3891268 c 0,0 -7.59195,-0.957212 -7.59195,-0.957212 0,0 8.15339,4.82996204 8.15339,4.82996204 0,0 -0.56144,-3.87275004 -0.56144,-3.87275004"
       id="path3572"
       style="fill:#808080" />
  </g>
  <g
     transform="matrix(0.71741869,-0.69664225,0.69664225,0.71741869,57.172966,-269.56644)"
     id="text3630"
     style="font-size:12px;font-style:normal;font-variant:normal;font-weight:500;font-stretch:normal;line-height:125%;letter-spacing:0px;word-spacing:0px;fill:#808080;fill-opacity:1;stroke:none;font-family:Futura;-inkscape-font-specification:Futura Medium">
    <path
       d="m -206.50263,203.87364 c 0,0 0.36689,2.1383 0.36689,2.1383 0,0 3.49764,1.00919 3.49764,1.00919 -0.034,-0.0603 -0.0625,-0.11628 -0.0856,-0.1679 -0.0239,-0.0547 -0.0421,-0.10355 -0.0544,-0.14642 -0.20614,-0.72207 0.26581,-1.1667 1.37328,-1.35514 1.05436,-0.1853 2.48553,-0.0965 4.30525,0.25702 1.85451,0.36031 3.50732,0.89013 5.00588,1.60643 1.53608,0.73424 2.60244,1.51204 3.19355,2.35298 0.77534,1.10302 0.21252,1.81345 -1.82311,2.08428 0,0 -2.55917,-1.38976 -2.55917,-1.38976 0.91202,-0.0855 1.49247,-0.22612 1.75472,-0.4206 0.2487,-0.19203 0.25181,-0.47574 0.0174,-0.84725 -0.29842,-0.47288 -0.92724,-0.93116 -1.88288,-1.38076 -0.96545,-0.44764 -2.00679,-0.77662 -3.14177,-0.99311 -1.17714,-0.22453 -2.0851,-0.26655 -2.72837,-0.12168 -0.68576,0.14411 -0.95084,0.44547 -0.77694,0.91224 0.20043,0.53797 0.98822,1.12892 2.37614,1.76626 0,0 0.18643,0.4354 0.18643,0.4354 0,0 -11.56087,-3.34668 -11.56087,-3.34668 0,0 -0.19375,-2.9222 -0.19375,-2.9222 0,0 2.72963,0.52938 2.72963,0.52938"
       id="path3635"
       style="fill:#808080" />
  </g>
  <g
     transform="matrix(0.48049529,-0.8769973,0.8769973,0.48049529,60.161832,238.76838)"
     id="text3697"
     style="font-size:12px;font-style:normal;font-variant:normal;font-weight:500;font-stretch:normal;line-height:125%;letter-spacing:0px;word-spacing:0px;fill:#808080;fill-opacity:1;stroke:none;font-family:Futura;-inkscape-font-specification:Futura Medium">
    <path
       d="m 211.80936,-60.498885 c 0,0 0.0778,3.314586 0.0778,3.314586 0,0 -1.09816,-1.228176 -1.09816,-1.228176 0,0 -0.11032,-4.790656 -0.11032,-4.790656 0,0 6.12403,-1.041157 6.12403,-1.041157 0,0 0.0601,2.345466 0.0601,2.345466 0,0 -5.05348,1.399937 -5.05348,1.399937"
       id="path3702"
       style="fill:#808080" />
    <path
       d="m 214.09132,-73.4046 c 0,0 -0.79306,-0.173031 -0.79306,-0.173031 -0.0274,-1.129182 -0.0911,-1.900946 -0.19179,-2.31823 -0.17883,-0.750745 -0.45135,-1.192705 -0.82372,-1.321835 -0.29532,-0.102379 -0.53407,0.07826 -0.71324,0.548765 -0.18514,0.468328 -0.26876,1.131787 -0.24878,1.98556 0.0187,0.796897 0.10757,1.427688 0.26546,1.888345 0.15898,0.440159 0.41431,0.785704 0.76057,1.035281 0,0 0.0659,2.768043 0.0659,2.768043 -0.66687,-0.318611 -1.18537,-0.9579 -1.53634,-1.922237 -0.3625,-0.98724 -0.56668,-2.347859 -0.60607,-4.062453 -0.0397,-1.729133 0.13231,-3.064867 0.50766,-3.988618 0.36145,-0.898669 0.83199,-1.207403 1.4009,-0.953385 0.61371,0.274069 1.08762,1.114577 1.43631,2.505648 0.26218,-1.308803 0.71306,-1.80389 1.33305,-1.520523 0.48486,0.221605 0.87887,0.872955 1.19087,1.94096 0.30454,1.042489 0.4727,2.279289 0.50993,3.730339 0.0475,1.851185 -0.13083,3.206861 -0.54722,4.090694 -0.17982,0.377049 -0.44112,0.615896 -0.78936,0.713899 0,0 -0.0599,-2.392797 -0.0599,-2.392797 0.25679,-0.09466 0.44495,-0.37206 0.56759,-0.829548 0.11879,-0.459283 0.16795,-1.069759 0.14852,-1.835094 -0.0196,-0.771653 -0.11855,-1.434759 -0.29881,-1.995583 -0.18739,-0.570348 -0.41865,-0.907322 -0.69655,-1.006394 -0.37759,-0.134565 -0.64361,0.171333 -0.79062,0.928953 -0.0854,0.449199 -0.11601,1.17765 -0.0913,2.183241"
       id="path3704"
       style="fill:#808080" />
  </g>
</svg>
