<?xml version="1.0" encoding="UTF-8" standalone="no"?>
<!-- Created with Inkscape (http://www.inkscape.org/) -->

<svg
   xmlns:dc="http://purl.org/dc/elements/1.1/"
   xmlns:cc="http://creativecommons.org/ns#"
   xmlns:rdf="http://www.w3.org/1999/02/22-rdf-syntax-ns#"
   xmlns:svg="http://www.w3.org/2000/svg"
   xmlns="http://www.w3.org/2000/svg"
   xmlns:sodipodi="http://sodipodi.sourceforge.net/DTD/sodipodi-0.dtd"
   xmlns:inkscape="http://www.inkscape.org/namespaces/inkscape"
   version="1.1"
   width="156.44119"
   height="169.22659"
   viewBox="0 0 156.44119 169.22659"
   id="svg2"
   inkscape:version="0.48.5 r10040"
   sodipodi:docname="d20_10.svg">
  <sodipodi:namedview
     pagecolor="#ffffff"
     bordercolor="#666666"
     borderopacity="1"
     objecttolerance="10"
     gridtolerance="10"
     guidetolerance="10"
     inkscape:pageopacity="0"
     inkscape:pageshadow="2"
     inkscape:window-width="1680"
     inkscape:window-height="1001"
     id="namedview27"
     showgrid="false"
     inkscape:zoom="4.6978432"
     inkscape:cx="78.220596"
     inkscape:cy="84.613297"
     inkscape:window-x="0"
     inkscape:window-y="1"
     inkscape:window-maximized="1"
     inkscape:current-layer="svg2" />
  <metadata
     id="metadata21">
    <rdf:RDF>
      <cc:Work
         rdf:about="">
        <dc:format>image/svg+xml</dc:format>
        <dc:type
           rdf:resource="http://purl.org/dc/dcmitype/StillImage" />
        <dc:title />
      </cc:Work>
    </rdf:RDF>
  </metadata>
  <defs
     id="defs19" />
  <g
     id="g3036"
     transform="translate(-37.3019,-75.296)">
    <g
       id="widget"
       transform="translate(112.5,150)">
      <path
         style="fill:#d3d3d3;fill-opacity:1"
         id="path5"
         d="M 61.1112,45.8264 4.63537,94.5226 -53.0845,46.7585 z" />
      <path
         style="fill:#d3d3d3;fill-opacity:1"
         id="path7"
         d="m 4.60797,-74.704 5.41843,22.7464 -83.219,19.8238 z" />
      <path
         style="fill:#d3d3d3;fill-opacity:1"
         id="path9"
         d="m 3.44252,-74.704 -5.41846,22.7465 83.21904,19.8237 z" />
      <path
         style="fill:#f0f0f0;fill-opacity:1"
         id="path11"
         d="M -53.4025,46.9333 -75.1981,-32.1548 3.9369,-55.0094 z" />
      <path
         style="fill:#f0f0f0;fill-opacity:1"
         id="path13"
         d="M 62.2343,46.0943 81.1564,-32.4527 3.23229,-55.0429 z" />
      <path
         style="fill:#f8f8f8;fill-opacity:1"
         id="path15"
         d="M -53.5597,46.8415 3.67051,-54.4309 62.579,46.143 z" />
    </g>
  </g>
  <g
     style="font-size:41.2510643px;font-style:normal;font-variant:normal;font-weight:500;font-stretch:normal;line-height:125%;letter-spacing:0px;word-spacing:0px;fill:#000000;fill-opacity:1;stroke:none;font-family:Futura;-inkscape-font-specification:Futura Medium"
     id="text3045">
    <path
       d="m 65.879851,74.701597 -5.377947,0 2.578192,-4.390983 7.492869,0 0,31.099436 -4.693114,0 0,-26.708453"
       style=""
       id="path3404" />
    <path
       d="m 79.45564,85.658911 c -2e-6,-4.954941 1.154812,-8.909507 3.464445,-11.86371 2.067917,-2.672158 4.572252,-4.00825 7.513011,-4.008282 2.940734,3.2e-5 5.445069,1.336124 7.513012,4.008282 2.309602,2.954203 3.464422,6.975909 3.464442,12.065131 -2e-5,5.075825 -1.15484,9.090817 -3.464442,12.044988 -2.067943,2.67219 -4.565564,4.00828 -7.49287,4.00828 -2.927331,0 -5.43838,-1.33609 -7.533153,-4.00828 -2.309633,-2.954171 -3.464447,-7.036303 -3.464445,-12.246409 m 4.612546,0.02014 c -6e-6,3.451029 0.597543,6.317921 1.792649,8.600686 1.19509,2.242494 2.719175,3.363738 4.572261,3.363734 1.839633,4e-6 3.363718,-1.12124 4.572262,-3.363734 1.208509,-2.229053 1.812772,-5.042233 1.812791,-8.439549 -1.9e-5,-3.397286 -0.604282,-6.21718 -1.812791,-8.459691 -1.208544,-2.229035 -2.732629,-3.343565 -4.572262,-3.343592 -1.82623,2.7e-5 -3.343601,1.114557 -4.552119,3.343592 -1.208534,2.215655 -1.812797,4.981837 -1.812791,8.298554"
       style=""
       id="path3406" />
  </g>
  <g
     style="font-size:12px;font-style:normal;font-variant:normal;font-weight:500;font-stretch:normal;line-height:125%;letter-spacing:0px;word-spacing:0px;fill:#808080;fill-opacity:1;stroke:none;font-family:Futura;-inkscape-font-specification:Futura Medium"
     id="text3007"
     transform="matrix(-0.17489241,-0.98458756,0.98458756,-0.17489241,-0.0208656,-59.111315)">
    <path
       d="m -125.57536,19.677757 c 0,0 -0.43722,5.013886 -0.43722,5.013886 0,0 -3.75598,-2.269257 -3.75598,-2.269257 0,0 0.80198,-6.763156 0.80198,-6.763156 0,0 23.80131,-0.299744 23.80131,-0.299744 0,0 0.29465,3.627139 0.29465,3.627139 0,0 -20.70474,0.691132 -20.70474,0.691132"
       id="path3012"
       inkscape:connector-curvature="0"
       style="fill:#808080" />
    <path
       d="m -123.75692,-1.1756612 c 0,0 -0.91216,10.460418 -0.91216,10.460418 0,0 -3.53327,-0.070336 -3.53327,-0.070336 0,0 1.81594,-15.3139825 1.81594,-15.3139825 0,0 21.23601,13.4126643 21.23601,13.4126643 0,0 -1.3024,2.4442876 -1.3024,2.4442876 0,0 -17.30412,-10.9330509 -17.30412,-10.9330509"
       id="path3014"
       inkscape:connector-curvature="0"
       style="fill:#808080" />
  </g>
  <g
     transform="matrix(0.88992358,0.45610965,-0.45610965,0.88992358,230.67985,155.29521)"
     id="text3056"
     style="font-size:12px;font-style:normal;font-variant:normal;font-weight:500;font-stretch:normal;line-height:125%;letter-spacing:0px;word-spacing:0px;fill:#808080;fill-opacity:1;stroke:none;font-family:Futura;-inkscape-font-specification:Futura Medium">
    <path
       inkscape:connector-curvature="0"
       id="path3061"
       d="m -140.2781,-30.15541 c 0,0 0.52382,4.202957 0.52382,4.202957 0,0 -3.94626,-2.586982 -3.94626,-2.586982 0,0 -0.59403,-5.748667 -0.59403,-5.748667 0,0 22.91749,4.024129 22.91749,4.024129 0,0 0.7643,3.225975 0.7643,3.225975 0,0 -19.66532,-3.117412 -19.66532,-3.117412"
       style="fill:#808080" />
    <path
       inkscape:connector-curvature="0"
       id="path3063"
       d="m -126.6627,-41.462027 c 0,0 -1.46314,-6.645164 -1.46314,-6.645164 0,0 2.68945,0.709731 2.68945,0.709731 0,0 2.91202,12.29105 2.91202,12.29105 0,0 -10.0261,-8.580943 -10.0261,-8.580943 -1.00145,-0.849504 -1.86599,-1.566334 -2.59359,-2.150444 -0.72974,-0.592746 -1.33633,-1.056034 -1.81977,-1.389804 -0.95161,-0.672353 -1.78239,-1.098076 -2.49405,-1.27666 -1.03373,-0.25938 -1.86766,-0.173812 -2.50094,0.263681 -0.643,0.444265 -0.91189,1.132881 -0.79817,2.069291 0.24225,1.994289 1.79538,3.470859 4.6037,4.373975 0,0 0.45337,3.075412 0.45337,3.075412 -5.07918,-1.535352 -7.903,-4.308432 -8.28723,-8.122466 -0.17881,-1.775419 0.35534,-3.062659 1.57286,-3.875 1.18251,-0.797383 2.71092,-0.937314 4.5836,-0.443447 1.17378,0.309573 2.35202,0.865282 3.54116,1.667252 0.61598,0.409421 1.36028,0.96894 2.23317,1.678608 0.86146,0.69879 1.88984,1.568656 3.0854,2.609781 0,0 4.30826,3.745147 4.30826,3.745147"
       style="fill:#808080" />
  </g>
  <g
     transform="matrix(0.83446514,0.55106074,-0.55106074,0.83446514,106.60794,153.39081)"
     id="text3214"
     style="font-size:12px;font-style:normal;font-variant:normal;font-weight:500;font-stretch:normal;line-height:125%;letter-spacing:0px;word-spacing:0px;fill:#808080;fill-opacity:1;stroke:none;font-family:Futura;-inkscape-font-specification:Futura Medium">
    <path
       inkscape:connector-curvature="0"
       id="path3219"
       d="m -25.096273,9.3476792 c -1.395001,2.2294438 -3.295621,3.5711278 -5.817584,3.9954028 -2.482128,0.417587 -4.695198,-0.106811 -6.58089,-1.676024 -2.0206,-1.6967532 -3.082446,-4.0908242 -3.074739,-7.1319293 0.0079,-3.0831007 1.119489,-5.6358186 3.255494,-7.5432135 2.021152,-1.8203488 4.401218,-2.5163947 7.036673,-2.1728499 2.538284,0.330922 4.408052,1.7143948 5.699961,4.0564415 0.598268,-1.1501217 1.414931,-2.004663 2.430476,-2.5603229 0.984439,-0.5505356 2.029492,-0.739614 3.122193,-0.5851399 1.763227,0.2493221 3.061765,1.1845422 3.951162,2.7560586 0.84519,1.49343258 1.162135,3.2828521 0.983713,5.4024014 -0.180308,2.1419508 -0.79135,3.9371767 -1.86028,5.4425665 -1.104931,1.5651635 -2.467454,2.5107805 -4.140314,2.8123955 -2.350328,0.423767 -4.061438,-0.467685 -5.005865,-2.7957868 m -5.693211,-0.3186955 c 1.24662,-0.1236567 2.27122,-0.6545959 3.09763,-1.5815897 0.821138,-0.9210298 1.253369,-1.9819598 1.309985,-3.2042546 0.05648,-1.2186885 -0.282962,-2.2775112 -1.036801,-3.1915919 -0.779017,-0.94461979 -1.772187,-1.46092408 -2.995781,-1.52695713 -1.273988,-0.0687157 -2.422536,0.36805894 -3.423718,1.32962381 -1.025679,0.98517792 -1.561094,2.19614442 -1.587105,3.60545492 -0.02573,1.3971729 0.457896,2.5545685 1.424124,3.456406 0.93239,0.8702222 2.00663,1.2324605 3.211666,1.1129086 m 10.845512,-0.600011 c 0.918454,-0.099619 1.710776,-0.5767227 2.3909,-1.4209425 0.659493,-0.8372531 1.02761,-1.8110543 1.114482,-2.9395708 0.08666,-1.12575 -0.131498,-2.0985274 -0.666691,-2.9307474 -0.559736,-0.85792832 -1.29476,-1.32431523 -2.216991,-1.38074178 -0.966224,-0.0590877 -1.845136,0.33865918 -2.621396,1.20898284 -0.793407,0.88960144 -1.232952,1.98862964 -1.304981,3.27458684 -0.07077,1.2638654 0.242638,2.3198626 0.922892,3.1546126 0.659307,0.796784 1.456451,1.1341968 2.381785,1.0338202"
       style="fill:#808080" />
  </g>
  <g
     style="font-size:12px;font-style:normal;font-variant:normal;font-weight:500;font-stretch:normal;line-height:125%;letter-spacing:0px;word-spacing:0px;fill:#808080;fill-opacity:1;stroke:none;font-family:Futura;-inkscape-font-specification:Futura Medium"
     id="text3271"
     transform="matrix(-0.86616753,-0.49975375,0.49975375,-0.86616753,310.79857,176.37702)">
    <path
       d="m 253.34587,35.391828 c 0,0 0.19418,0.726194 0.19418,0.726194 0,0 -2.63509,-0.315511 -2.63509,-0.315511 0,0 -0.40406,-1.056833 -0.40406,-1.056833 0,0 18.88951,-0.199489 18.88951,-0.199489 0,0 -0.28994,0.679843 -0.28994,0.679843 0,0 -15.7546,0.165796 -15.7546,0.165796"
       id="path3276"
       inkscape:connector-curvature="0"
       style="fill:#808080" />
    <path
       d="m 251.81454,29.664908 c 0,0 0.52307,1.956194 0.52307,1.956194 0,0 3.58467,0.250006 3.58467,0.250006 -0.0239,-0.04236 -0.043,-0.08239 -0.0573,-0.120078 -0.0146,-0.04032 -0.0243,-0.07701 -0.0287,-0.110035 -0.0789,-0.585013 0.58314,-1.092339 2.01981,-1.511347 1.46987,-0.434385 3.39728,-0.669282 5.74915,-0.694795 2.43224,-0.02637 4.36294,0.194606 5.75603,0.651276 1.34759,0.441761 1.8588,0.989977 1.57683,1.631591 -0.32967,0.750172 -1.82812,1.325308 -4.44504,1.746739 0,0 -1.78527,-0.572686 -1.78527,-0.572686 1.12892,-0.180725 1.94962,-0.361646 2.45579,-0.542783 0.50425,-0.183575 0.8024,-0.408094 0.89048,-0.675678 0.11801,-0.35852 -0.24127,-0.662089 -1.09209,-0.906736 -0.89567,-0.248965 -2.04303,-0.367749 -3.42914,-0.352792 -1.42438,0.01537 -2.59607,0.157771 -3.5023,0.423397 -0.91755,0.260996 -1.36496,0.573232 -1.35518,0.932888 0.0106,0.389193 0.63016,0.709389 1.83959,0.965123 0,0 -0.0119,0.266605 -0.0119,0.266605 0,0 -10.95326,-0.743577 -10.95326,-0.743577 0,0 -0.97806,-2.558163 -0.97806,-2.558163 0,0 3.2427,-0.03515 3.2427,-0.03515"
       id="path3278"
       inkscape:connector-curvature="0"
       style="fill:#808080" />
  </g>
  <g
     transform="matrix(-0.55982126,-0.8286134,0.8286134,-0.55982126,162.18726,180.43666)"
     id="text3336"
     style="font-size:12px;font-style:normal;font-variant:normal;font-weight:500;font-stretch:normal;line-height:125%;letter-spacing:0px;word-spacing:0px;fill:#808080;fill-opacity:1;stroke:none;font-family:Futura;-inkscape-font-specification:Futura Medium">
    <path
       inkscape:connector-curvature="0"
       id="path3341"
       d="m 191.31517,4.4790646 c 0,0 -0.14313,8.0011864 -0.14313,8.0011864 0,0 -1.10898,0.264764 -1.10898,0.264764 0,0 0.21774,-12.60322705 0.21774,-12.60322705 0,0 6.33767,9.55728325 6.33767,9.55728325 0,0 -0.40775,1.6462128 -0.40775,1.6462128 0,0 -4.89555,-6.8662194 -4.89555,-6.8662194"
       style="fill:#808080" />
  </g>
</svg>
