<?xml version="1.0" encoding="UTF-8" standalone="no"?>
<!-- Created with Inkscape (http://www.inkscape.org/) -->

<svg
   xmlns:dc="http://purl.org/dc/elements/1.1/"
   xmlns:cc="http://creativecommons.org/ns#"
   xmlns:rdf="http://www.w3.org/1999/02/22-rdf-syntax-ns#"
   xmlns:svg="http://www.w3.org/2000/svg"
   xmlns="http://www.w3.org/2000/svg"
   xmlns:sodipodi="http://sodipodi.sourceforge.net/DTD/sodipodi-0.dtd"
   xmlns:inkscape="http://www.inkscape.org/namespaces/inkscape"
   version="1.1"
   width="156.44119"
   height="169.22659"
   viewBox="0 0 156.44119 169.22659"
   id="svg2"
   inkscape:version="0.48.5 r10040"
   sodipodi:docname="d20_08.svg">
  <sodipodi:namedview
     pagecolor="#ffffff"
     bordercolor="#666666"
     borderopacity="1"
     objecttolerance="10"
     gridtolerance="10"
     guidetolerance="10"
     inkscape:pageopacity="0"
     inkscape:pageshadow="2"
     inkscape:window-width="1680"
     inkscape:window-height="1001"
     id="namedview3203"
     showgrid="false"
     inkscape:zoom="4.6978432"
     inkscape:cx="78.220596"
     inkscape:cy="84.613297"
     inkscape:window-x="0"
     inkscape:window-y="1"
     inkscape:window-maximized="1"
     inkscape:current-layer="svg2" />
  <metadata
     id="metadata21">
    <rdf:RDF>
      <cc:Work
         rdf:about="">
        <dc:format>image/svg+xml</dc:format>
        <dc:type
           rdf:resource="http://purl.org/dc/dcmitype/StillImage" />
        <dc:title />
      </cc:Work>
    </rdf:RDF>
  </metadata>
  <defs
     id="defs19" />
  <g
     transform="translate(-37.3019,-75.296)"
     id="g3036">
    <g
       transform="translate(112.5,150)"
       id="widget">
      <path
         d="M 61.1112,45.8264 4.63537,94.5226 -53.0845,46.7585 z"
         id="path5"
         style="fill:#d3d3d3;fill-opacity:1" />
      <path
         d="m 4.60797,-74.704 5.41843,22.7464 -83.219,19.8238 z"
         id="path7"
         style="fill:#d3d3d3;fill-opacity:1" />
      <path
         d="m 3.44252,-74.704 -5.41846,22.7465 83.21904,19.8237 z"
         id="path9"
         style="fill:#d3d3d3;fill-opacity:1" />
      <path
         d="M -53.4025,46.9333 -75.1981,-32.1548 3.9369,-55.0094 z"
         id="path11"
         style="fill:#f0f0f0;fill-opacity:1" />
      <path
         d="M 62.2343,46.0943 81.1564,-32.4527 3.23229,-55.0429 z"
         id="path13"
         style="fill:#f0f0f0;fill-opacity:1" />
      <path
         d="M -53.5597,46.8415 3.67051,-54.4309 62.579,46.143 z"
         id="path15"
         style="fill:#f8f8f8;fill-opacity:1" />
    </g>
  </g>
  <g
     id="text3045-7"
     style="font-size:41.2510643px;font-style:normal;font-variant:normal;font-weight:500;font-stretch:normal;line-height:125%;letter-spacing:0px;word-spacing:0px;fill:#000000;fill-opacity:1;stroke:none;font-family:Futura;-inkscape-font-specification:Futura Medium">
    <path
       d="m 74.650385,85.129885 c -2.282779,-1.611352 -3.424164,-3.806841 -3.424161,-6.586474 -3e-6,-2.524453 0.866107,-4.63266 2.598334,-6.324626 1.745642,-1.691907 3.914275,-2.537875 6.505905,-2.537907 2.578176,3.2e-5 4.726667,0.846 6.445479,2.537907 1.718773,1.678538 2.57817,3.793459 2.578191,6.344769 -2.1e-5,2.672208 -1.134693,4.854269 -3.404018,6.546189 1.248792,0.67142 2.229041,1.651668 2.94075,2.94075 0.725094,1.289107 1.087652,2.739339 1.087674,4.350698 -2.2e-5,2.752763 -0.899703,5.008678 -2.699044,6.767753 -1.799381,1.759076 -4.102294,2.638616 -6.908748,2.638616 -2.873619,0 -5.243673,-0.88625 -7.110168,-2.658758 -1.879936,-1.772503 -2.8199,-4.001562 -2.819897,-6.687185 -3e-6,-3.491288 1.40323,-5.935197 4.209703,-7.331732 m 0.986964,-6.606616 c -8e-6,1.329402 0.449832,2.443931 1.349522,3.343592 0.913099,0.913129 2.014201,1.369683 3.303308,1.369665 1.275653,1.8e-5 2.370041,-0.456536 3.283166,-1.369665 0.913092,-0.913089 1.369646,-2.007476 1.369664,-3.283165 -1.8e-5,-1.275644 -0.456572,-2.370031 -1.369664,-3.283166 -0.913125,-0.913083 -2.007513,-1.369637 -3.283166,-1.369664 -1.275679,2.7e-5 -2.370067,0.456581 -3.283166,1.369664 -0.913118,0.913135 -1.369672,1.98738 -1.369664,3.222739 M 75.053227,92.30048 c -7e-6,1.436813 0.496831,2.672195 1.490517,3.706151 1.007096,1.020538 2.22905,1.530805 3.665866,1.530801 1.423363,4e-6 2.638603,-0.503549 3.645724,-1.510659 1.007089,-1.020528 1.510642,-2.242482 1.510659,-3.665866 -1.7e-5,-1.436795 -0.50357,-2.658749 -1.510659,-3.665866 -1.007121,-1.007093 -2.222361,-1.510645 -3.645724,-1.51066 -1.409959,1.5e-5 -2.6252,0.503567 -3.645724,1.51066 -1.007114,1.007117 -1.510666,2.208929 -1.510659,3.605439"
       id="path4290" />
  </g>
  <g
     transform="matrix(0.8685833,0.49554318,-0.49554318,0.8685833,121.6235,-55.823408)"
     id="text3969"
     style="font-size:12px;font-style:normal;font-variant:normal;font-weight:500;font-stretch:normal;line-height:125%;letter-spacing:0px;word-spacing:0px;fill:#808080;fill-opacity:1;stroke:none;font-family:Futura;-inkscape-font-specification:Futura Medium">
    <path
       d="m -32.714695,155.91657 c 0,0 -0.07263,4.27486 -0.07263,4.27486 0,0 -2.809439,-2.57414 -2.809439,-2.57414 0,0 0.102004,-5.76196 0.102004,-5.76196 0,0 25.013546,2.97524 25.013546,2.97524 0,0 -0.05291,4.62852 -0.05291,4.62852 0,0 -22.180578,-3.54252 -22.180578,-3.54252"
       id="path3974"
       style="fill:#808080" />
    <path
       d="m -35.87096,134.9321 c 0,0 1.667195,-2.76525 1.667195,-2.76525 0,0 6.877414,5.45437 6.877414,5.45437 -0.03465,-0.33282 -0.06011,-0.61563 -0.07638,-0.84861 -0.01622,-0.23284 -0.0233,-0.41599 -0.02122,-0.54954 0.03294,-2.09106 0.783516,-3.96365 2.284228,-5.65603 1.524011,-1.7288 3.403884,-2.7574 5.678978,-3.05693 2.524558,-0.33232 4.77901,0.32147 6.723389,2.0193 2.004004,1.74992 3.0186057,4.04276 2.9870931,6.83194 -0.031266,2.76676 -1.0881771,5.19183 -3.1170501,7.21874 -1.959872,1.92051 -4.180215,2.79672 -6.623759,2.68101 -2.099078,-0.0994 -4.221401,-1.0783 -6.356822,-2.87842 0,0 -10.023074,-8.45057 -10.023074,-8.45057 m 16.616408,-3.3631 c -1.418687,0.13155 -2.595817,0.73896 -3.54708,1.81038 -0.945344,1.06479 -1.422108,2.2853 -1.442903,3.67644 -0.02096,1.40363 0.415113,2.5877 1.320848,3.56507 0.922979,0.99597 2.075348,1.50655 3.471614,1.5177 1.434515,0.0115 2.693819,-0.50556 3.763358,-1.56631 1.09019,-1.0812 1.652861,-2.41002 1.672154,-3.96981 0.01882,-1.52055 -0.511043,-2.78121 -1.573277,-3.76774 -1.053163,-0.97808 -2.27866,-1.39423 -3.664714,-1.26573"
       id="path3976"
       style="fill:#808080" />
  </g>
  <g
     transform="matrix(-0.82921603,0.55892824,-0.55892824,-0.82921603,189.41928,192.37606)"
     id="text4018"
     style="font-size:12px;font-style:normal;font-variant:normal;font-weight:500;font-stretch:normal;line-height:125%;letter-spacing:0px;word-spacing:0px;fill:#808080;fill-opacity:1;stroke:none;font-family:Futura;-inkscape-font-specification:Futura Medium">
    <path
       d="m -33.035847,156.03756 c 0,0 -0.06978,4.08811 -0.06978,4.08811 0,0 -2.839392,-2.49238 -2.839392,-2.49238 0,0 0.09799,-5.50817 0.09799,-5.50817 0,0 25.352111,3.10493 25.352111,3.10493 0,0 -0.05078,4.44196 -0.05078,4.44196 0,0 -22.490145,-3.63445 -22.490145,-3.63445"
       id="path4023"
       style="fill:#808080" />
    <path
       d="m -24.812323,146.14711 c -3.808227,-0.18562 -6.629643,-1.20953 -8.611029,-3.02011 -1.718531,-1.55456 -2.533687,-3.37823 -2.495524,-5.51456 0.03816,-2.13402 0.91797,-4.02279 2.688923,-5.71531 2.03885,-1.96607 4.935579,-3.22409 8.848976,-3.73929 4.234621,-0.55745 7.834245,-0.0166 10.631582,1.72591 2.662703,1.63888 4.0286619,3.86402 3.9975598,6.61656 -0.031145,2.75638 -1.4524898,5.11991 -4.1656148,7.01884 -2.855717,1.99329 -6.548996,2.8398 -10.894873,2.62796 m 0.07322,-3.78826 c 2.836509,0.0302 5.325962,-0.46002 7.404145,-1.50132 2.121906,-1.082 3.224518,-2.47866 3.245309,-4.15705 0.02063,-1.66481 -1.046889,-2.96774 -3.139261,-3.88221 -2.00013,-0.88038 -4.429061,-1.17094 -7.224374,-0.90784 -2.646965,0.24917 -4.747308,0.91675 -6.363673,1.9852 -1.554368,1.03292 -2.324592,2.22494 -2.348266,3.60177 -0.02348,1.36774 0.707863,2.49416 2.231975,3.40113 1.567149,0.93833 3.61239,1.43289 6.194145,1.46032"
       id="path4025"
       style="fill:#808080" />
  </g>
  <g
     transform="matrix(-0.02943618,-0.99956666,0.99956666,-0.02943618,-66.254258,122.37779)"
     id="text4092"
     style="font-size:12px;font-style:normal;font-variant:normal;font-weight:500;font-stretch:normal;line-height:125%;letter-spacing:0px;word-spacing:0px;fill:#808080;fill-opacity:1;stroke:none;font-family:Futura;-inkscape-font-specification:Futura Medium">
    <path
       d="m -14.966142,156.65137 c 0,0 0.112027,-8.9288 0.112027,-8.9288 0,0 4.442039,0.26079 4.442039,0.26079 0,0 -0.191961,16.79097 -0.191961,16.79097 0,0 -12.139612,-10.28677 -12.139612,-10.28677 -1.065583,-0.89224 -1.970289,-1.62673 -2.722428,-2.21097 -0.740393,-0.58451 -1.352755,-1.02823 -1.841824,-1.33552 -0.94302,-0.61238 -1.778181,-0.94789 -2.510914,-1.01485 -1.035486,-0.0946 -1.89144,0.16038 -2.577395,0.75692 -0.676208,0.58812 -1.019022,1.36093 -1.035605,2.32501 -0.03462,2.01577 1.206787,3.37781 3.832514,4.115 0,0 -0.05077,3.1332 -0.05077,3.1332 -4.531178,-1.39003 -6.604427,-3.86434 -6.539183,-7.51589 0.03149,-1.7607 0.627119,-3.1835 1.809157,-4.29038 1.212837,-1.14412 2.743968,-1.67339 4.625331,-1.56215 1.237591,0.0732 2.47768,0.45353 3.719672,1.15299 0.659742,0.36323 1.455665,0.89188 2.394399,1.59222 0.946024,0.70346 2.091241,1.60813 3.449052,2.72616 0,0 5.225505,4.29207 5.225505,4.29207"
       id="path4097"
       style="fill:#808080" />
    <path
       d="m -24.771553,143.43777 c -3.807298,-0.0818 -6.630392,-0.89439 -8.615971,-2.3913 -1.722377,-1.28508 -2.542366,-2.81669 -2.50996,-4.63089 0.03241,-1.81253 0.90731,-3.43378 2.674207,-4.90624 2.034378,-1.71029 4.9289,-2.83631 8.8423,-3.3515 4.234618,-0.55745 7.836232,-0.16935 10.637378,1.25536 2.665877,1.3391 4.0356688,3.20151 4.0092564,5.53902 -0.026444,2.34028 -1.4432654,4.37431 -4.1519604,6.03949 -2.850723,1.74787 -6.540673,2.53938 -10.88525,2.44606 m 0.06459,-3.21564 c 2.835857,-0.0308 5.323603,-0.49615 7.399124,-1.42109 2.119278,-0.9604 3.219014,-2.16772 3.236667,-3.59284 0.01752,-1.41376 -1.052416,-2.49886 -3.146613,-3.23387 -2.002064,-0.70797 -4.431903,-0.90657 -7.227043,-0.62771 -2.646823,0.26409 -4.745924,0.87266 -6.359901,1.81203 -1.551958,0.9079 -2.319188,1.93526 -2.339297,3.10462 -0.01994,1.16151 0.714273,2.10309 2.240537,2.8426 1.569246,0.76519 3.615284,1.14426 6.196526,1.11626"
       id="path4099"
       style="fill:#808080" />
  </g>
  <g
     transform="matrix(0.72939778,-0.68408981,0.68408981,0.72939778,-2.838312,172.43909)"
     id="text4153"
     style="font-size:12px;font-style:normal;font-variant:normal;font-weight:500;font-stretch:normal;line-height:125%;letter-spacing:0px;word-spacing:0px;fill:#808080;fill-opacity:1;stroke:none;font-family:Futura;-inkscape-font-specification:Futura Medium">
    <path
       d="m 182.77443,-33.093584 c 0,0 0.72288,2.447629 0.72288,2.447629 0,0 -1.51095,-1.543675 -1.51095,-1.543675 0,0 -0.97748,-3.409036 -0.97748,-3.409036 0,0 6.97592,2.691849 6.97592,2.691849 0,0 0.60089,1.77963 0.60089,1.77963 0,0 -5.81126,-1.966397 -5.81126,-1.966397"
       id="path4158"
       style="fill:#808080" />
    <path
       d="m 179.42666,-44.428899 c 0,0 1.75251,5.933886 1.75251,5.933886 0,0 -1.1528,-0.530225 -1.1528,-0.530225 0,0 -2.55965,-8.926993 -2.55965,-8.926993 0,0 9.30948,10.976542 9.30948,10.976542 0,0 0.004,1.105517 0.004,1.105517 0,0 -7.35319,-8.558727 -7.35319,-8.558727"
       id="path4160"
       style="fill:#808080" />
  </g>
  <g
     transform="matrix(-0.53862926,-0.84254288,0.84254288,-0.53862926,170.84033,184.18003)"
     id="text4220"
     style="font-size:12px;font-style:normal;font-variant:normal;font-weight:500;font-stretch:normal;line-height:125%;letter-spacing:0px;word-spacing:0px;fill:#808080;fill-opacity:1;stroke:none;font-family:Futura;-inkscape-font-specification:Futura Medium">
    <path
       d="m 201.46055,1.2388614 c 0,0 -0.82403,0.1373918 -0.82403,0.1373918 0.0703,-1.1481372 0.0706,-1.91796666 3.6e-4,-2.30887905 -0.12428,-0.70598775 -0.37606,-1.05614435 -0.76225,-1.04205695 -0.30655,0.011182 -0.57715,0.2939286 -0.80872,0.8533889 -0.23736,0.55864819 -0.38258,1.27732012 -0.4332,2.1487237 -0.0471,0.8106463 -0.006,1.4210172 0.12312,1.8288141 0.13133,0.3856648 0.37228,0.6360806 0.71705,0.7524597 0,0 -0.16528,2.7724694 -0.16528,2.7724694 -0.67448,-0.056192 -1.16763,-0.4947944 -1.45879,-1.3303353 -0.30273,-0.8577534 -0.40833,-2.1636122 -0.31005,-3.9065613 0.0998,-1.76985658 0.39467,-3.2264295 0.87467,-4.3404464 0.46448,-1.0858175 0.99674,-1.597864 1.5857,-1.5578775 0.63425,0.043105 1.06686,0.7347473 1.31461,2.0466322 0.39811,-1.4688653 0.92541,-2.1662418 1.56183,-2.1159218 0.4969,0.039322 0.85555,0.5632422 1.08633,1.5512161 0.22424,0.9599938 0.28476,2.1697518 0.18663,3.64448819 -0.12437,1.86911981 -0.43821,3.31333441 -0.95609,4.36931951 -0.22274,0.4503901 -0.51786,0.7935907 -0.89105,1.0294909 0,0 0.1535,-2.3902075 0.1535,-2.3902075 0.27854,-0.1974795 0.50173,-0.5532924 0.67282,-1.0666256 0.16749,-0.5144624 0.27593,-1.156645 0.32668,-1.93180737 0.0513,-0.78395868 0.009,-1.42706103 -0.13002,-1.93406143 -0.14561,-0.5152826 -0.35989,-0.7725226 -0.64608,-0.7649701 -0.38917,0.010314 -0.70002,0.4328908 -0.92489,1.2746772 -0.13115,0.49726989 -0.22904,1.25912382 -0.29285,2.2806786"
       id="path4225"
       style="fill:#808080" />
  </g>
</svg>
