<?xml version="1.0" encoding="UTF-8" standalone="no"?>
<!-- Created with Inkscape (http://www.inkscape.org/) -->

<svg
   xmlns:dc="http://purl.org/dc/elements/1.1/"
   xmlns:cc="http://creativecommons.org/ns#"
   xmlns:rdf="http://www.w3.org/1999/02/22-rdf-syntax-ns#"
   xmlns:svg="http://www.w3.org/2000/svg"
   xmlns="http://www.w3.org/2000/svg"
   xmlns:sodipodi="http://sodipodi.sourceforge.net/DTD/sodipodi-0.dtd"
   xmlns:inkscape="http://www.inkscape.org/namespaces/inkscape"
   version="1.1"
   width="156.44119"
   height="169.22659"
   viewBox="0 0 156.44119 169.22659"
   id="svg2"
   inkscape:version="0.48.5 r10040"
   sodipodi:docname="d20_01.svg">
  <sodipodi:namedview
     pagecolor="#ffffff"
     bordercolor="#666666"
     borderopacity="1"
     objecttolerance="10"
     gridtolerance="10"
     guidetolerance="10"
     inkscape:pageopacity="0"
     inkscape:pageshadow="2"
     inkscape:window-width="1680"
     inkscape:window-height="1001"
     id="namedview28"
     showgrid="false"
     inkscape:zoom="4.6978432"
     inkscape:cx="78.220596"
     inkscape:cy="84.613297"
     inkscape:window-x="0"
     inkscape:window-y="1"
     inkscape:window-maximized="1"
     inkscape:current-layer="svg2" />
  <metadata
     id="metadata21">
    <rdf:RDF>
      <cc:Work
         rdf:about="">
        <dc:format>image/svg+xml</dc:format>
        <dc:type
           rdf:resource="http://purl.org/dc/dcmitype/StillImage" />
        <dc:title />
      </cc:Work>
    </rdf:RDF>
  </metadata>
  <defs
     id="defs19" />
  <g
     transform="translate(-37.3019,-75.296)"
     id="g3036">
    <g
       transform="translate(112.5,150)"
       id="widget">
      <path
         d="M 61.1112,45.8264 4.63537,94.5226 -53.0845,46.7585 z"
         id="path5"
         style="fill:#d3d3d3;fill-opacity:1" />
      <path
         d="m 4.60797,-74.704 5.41843,22.7464 -83.219,19.8238 z"
         id="path7"
         style="fill:#d3d3d3;fill-opacity:1" />
      <path
         d="m 3.44252,-74.704 -5.41846,22.7465 83.21904,19.8237 z"
         id="path9"
         style="fill:#d3d3d3;fill-opacity:1" />
      <path
         d="M -53.4025,46.9333 -75.1981,-32.1548 3.9369,-55.0094 z"
         id="path11"
         style="fill:#f0f0f0;fill-opacity:1" />
      <path
         d="M 62.2343,46.0943 81.1564,-32.4527 3.23229,-55.0429 z"
         id="path13"
         style="fill:#f0f0f0;fill-opacity:1" />
      <path
         d="M -53.5597,46.8415 3.67051,-54.4309 62.579,46.143 z"
         id="path15"
         style="fill:#f8f8f8;fill-opacity:1" />
    </g>
  </g>
  <g
     id="text3045-7"
     style="font-size:41.2510643px;font-style:normal;font-variant:normal;font-weight:500;font-stretch:normal;line-height:125%;letter-spacing:0px;word-spacing:0px;fill:#000000;fill-opacity:1;stroke:none;font-family:Futura;-inkscape-font-specification:Futura Medium">
    <path
       d="m 78.658667,74.595556 -5.377946,0 2.578191,-4.390983 7.492869,0 0,31.099437 -4.693114,0 0,-26.708454"
       id="path5273" />
  </g>
  <g
     transform="matrix(0.81407402,0.19562356,-0.48607844,1.0091994,79.018097,-12.34962)"
     id="text4910"
     style="font-size:12px;font-style:normal;font-variant:normal;font-weight:500;font-stretch:normal;line-height:125%;letter-spacing:0px;word-spacing:0px;fill:#808080;fill-opacity:1;stroke:none;font-family:Futura;-inkscape-font-specification:Futura Medium">
    <path
       d="m -31.478781,66.028685 c 0,0 -0.354053,10.987163 -0.354053,10.987163 0,0 -2.360984,-0.446008 -2.360984,-0.446008 0,0 0.529003,-15.696956 0.529003,-15.696956 0,0 25.774822,16.753727 25.774822,16.753727 0,0 -3.014514,3.512588 -3.014514,3.512588 0,0 -20.574274,-15.110514 -20.574274,-15.110514"
       id="path4915"
       style="fill:#808080" />
  </g>
  <g
     transform="matrix(-0.8398158,0.54287145,-0.54287145,-0.8398158,189.37557,192.97499)"
     id="text4959"
     style="font-size:12px;font-style:normal;font-variant:normal;font-weight:500;font-stretch:normal;line-height:125%;letter-spacing:0px;word-spacing:0px;fill:#808080;fill-opacity:1;stroke:none;font-family:Futura;-inkscape-font-specification:Futura Medium">
    <path
       d="m -33.090752,155.89123 c 0,0 -0.07214,4.22261 -0.07214,4.22261 0,0 -2.78673,-2.54535 -2.78673,-2.54535 0,0 0.101275,-5.69237 0.101275,-5.69237 0,0 24.787637,2.96601 24.787637,2.96601 0,0 -0.05287,4.56751 -0.05287,4.56751 0,0 -21.977175,-3.51841 -21.977175,-3.51841"
       id="path4964"
       style="fill:#808080" />
    <path
       d="m -9.78833,139.72886 c 0,0 -2.634598,3.31752 -2.634598,3.31752 0,0 -9.129261,-6.63618 -9.129261,-6.63618 0.03985,0.34937 0.06925,0.64679 0.08819,0.89211 0.01892,0.24546 0.02736,0.44453 0.02519,0.59706 -0.03124,2.19557 -0.855946,4.09415 -2.437926,5.65817 -1.524913,1.50716 -3.28657,2.19777 -5.256251,2.10738 -2.011631,-0.0923 -3.650762,-0.96004 -4.950839,-2.56931 -1.270101,-1.57219 -1.872072,-3.41057 -1.833889,-5.54801 0.038,-2.12506 0.697134,-4.02605 2.004248,-5.73984 1.335274,-1.76122 2.942957,-2.78243 4.85153,-3.0337 1.758919,-0.23153 3.721088,0.36125 5.909801,1.83362 0,0 13.3638238,9.12118 13.3638238,9.12118 m -19.5301098,2.2224 c 1.214855,0.008 2.267003,-0.45715 3.144187,-1.40875 0.903082,-0.97966 1.370971,-2.163 1.391662,-3.5363 0.0207,-1.37234 -0.40643,-2.50923 -1.269444,-3.39908 -0.857303,-0.88396 -1.879083,-1.2642 -3.055077,-1.1548 -1.147587,0.10678 -2.115065,0.65103 -2.913155,1.62258 -0.776029,0.94476 -1.17028,2.04444 -1.192075,3.31099 -0.02141,1.24658 0.336166,2.30536 1.082208,3.18692 0.767968,0.90743 1.702119,1.37085 2.811694,1.37844"
       id="path4966"
       style="fill:#808080" />
  </g>
  <g
     transform="matrix(-0.0311378,-0.87735738,0.9995151,-0.02733223,-64.827916,124.56364)"
     id="text5016"
     style="font-size:12px;font-style:normal;font-variant:normal;font-weight:500;font-stretch:normal;line-height:125%;letter-spacing:0px;word-spacing:0px;fill:#808080;fill-opacity:1;stroke:none;font-family:Futura;-inkscape-font-specification:Futura Medium">
    <path
       d="m -33.01956,155.76012 c 0,0 -0.07455,4.36793 -0.07455,4.36793 0,0 -2.836056,-2.62224 -2.836056,-2.62224 0,0 0.104671,-5.88475 0.104671,-5.88475 0,0 25.338348,2.958 25.338348,2.958 0,0 -0.05424,4.74456 -0.05424,4.74456 0,0 -22.478177,-3.5635 -22.478177,-3.5635"
       id="path5021"
       style="fill:#808080" />
    <path
       d="m -23.620823,137.64813 c 0,0 -3.164637,0.11493 -3.164637,0.11493 0.02651,-1.70078 -0.12479,-2.83233 -0.452076,-3.39269 -0.569279,-0.9906 -1.485428,-1.42574 -2.729035,-1.31693 -0.939834,0.0823 -1.696391,0.50723 -2.2784,1.26927 -0.583895,0.74284 -0.8828,1.669 -0.902001,2.78566 -0.01788,1.04208 0.179538,1.84273 0.59521,2.40559 0.429283,0.54642 1.17216,0.95329 2.24388,1.22116 0,0 -0.06362,3.86755 -0.06362,3.86755 -2.030826,-0.46341 -3.452632,-1.30018 -4.317821,-2.50676 -0.856375,-1.18243 -1.259391,-2.81274 -1.221978,-4.9071 0.03778,-2.11294 0.577247,-3.87965 1.63607,-5.32592 1.074133,-1.47823 2.477646,-2.33923 4.241253,-2.56399 2.071301,-0.26393 3.732576,0.48765 4.938004,2.29848 1.246252,-2.38132 3.295917,-3.77929 6.249549,-4.16814 2.548675,-0.3355 4.713894,0.28159 6.443551,1.90246 1.787272,1.67489 2.6867487,4.00869 2.6533725,6.9625 -0.042593,3.76946 -1.5097375,6.55116 -4.2970635,8.2752 -1.129686,0.69062 -2.649171,1.0883 -4.525105,1.20035 0,0 0.05697,-4.2245 0.05697,-4.2245 1.376283,-0.22481 2.462356,-0.78101 3.239256,-1.67329 0.774761,-0.91727 1.175108,-2.10847 1.19313,-3.56346 0.01818,-1.46688 -0.456259,-2.64573 -1.410181,-3.52527 -0.961894,-0.86156 -2.164245,-1.21991 -3.591021,-1.08954 -1.828604,0.16711 -3.101093,0.94844 -3.856868,2.33385 -0.430613,0.80201 -0.656574,2.00697 -0.680437,3.62059"
       id="path5023"
       style="fill:#808080" />
  </g>
  <g
     transform="matrix(-0.68251796,0.86493598,-1.4169569,0.07067928,402.97129,-244.52542)"
     id="text5132"
     style="font-size:12px;font-style:normal;font-variant:normal;font-weight:500;font-stretch:normal;line-height:125%;letter-spacing:0px;word-spacing:0px;fill:#808080;fill-opacity:1;stroke:none;font-family:Futura;-inkscape-font-specification:Futura Medium">
    <path
       d="m 292.03543,103.62137 c 0,0 0.76204,1.23157 0.76204,1.23157 0,0 -2.55971,-1.31993 -2.55971,-1.31993 0,0 -1.12546,-1.76157 -1.12546,-1.76157 0,0 16.03903,5.33992 16.03903,5.33992 0,0 0.51473,1.05763 0.51473,1.05763 0,0 -13.63063,-4.54762 -13.63063,-4.54762"
       id="path5137"
       style="fill:#808080" />
    <path
       d="m 289.08423,98.851826 c 0,0 0.84778,1.370124 0.84778,1.370124 0,0 -2.715,-1.417008 -2.715,-1.417008 0,0 -1.2532,-1.961493 -1.2532,-1.961493 0,0 16.90362,5.575181 16.90362,5.575181 0,0 0.5742,1.17982 0.5742,1.17982 0,0 -14.3574,-4.746624 -14.3574,-4.746624"
       id="path5139"
       style="fill:#808080" />
  </g>
  <g
     transform="matrix(1.3063507,1.6532338,-0.84906454,0.39953787,-31.982386,-253.07811)"
     id="text5201"
     style="font-size:12px;font-style:normal;font-variant:normal;font-weight:500;font-stretch:normal;line-height:125%;letter-spacing:0px;word-spacing:0px;fill:#808080;fill-opacity:1;stroke:none;font-family:Futura;-inkscape-font-specification:Futura Medium">
    <path
       d="m 145.62895,72.3171 c 0,0 -1.04619,0.385359 -1.04619,0.385359 0.21003,-0.749891 0.29345,-1.225012 0.25313,-1.43252 -0.0679,-0.365575 -0.31119,-0.457085 -0.72378,-0.283143 -0.31265,0.131831 -0.6087,0.392353 -0.89136,0.782045 -0.28307,0.384547 -0.49816,0.822725 -0.64743,1.319765 -0.14064,0.46837 -0.17932,0.808378 -0.11431,1.018685 0.072,0.202261 0.26733,0.307107 0.59098,0.312527 0,0 -0.52677,1.809559 -0.52677,1.809559 -0.62989,0.0096 -1.00014,-0.226127 -1.1285,-0.696124 -0.12748,-0.455286 -0.0405,-1.161099 0.25363,-2.112916 0.29118,-0.942175 0.69568,-1.769179 1.22096,-2.499345 0.52649,-0.734631 1.07676,-1.235558 1.66195,-1.505021 0.68363,-0.314791 1.12306,-0.170502 1.30386,0.460358 0.65081,-1.1078 1.43491,-1.874887 2.38596,-2.316606 0.81441,-0.378237 1.41954,-0.341721 1.80217,0.136582 0.3998,0.499801 0.46979,1.363855 0.19073,2.600074 -0.36683,1.625002 -1.11361,3.014041 -2.20711,4.100113 -0.44878,0.442844 -0.99901,0.796099 -1.63967,1.057553 0,0 0.49373,-1.947114 0.49373,-1.947114 0.47589,-0.249158 0.89002,-0.614007 1.2358,-1.091996 0.34441,-0.484232 0.59293,-1.043412 0.74299,-1.669642 0.14935,-0.623275 0.11429,-1.069222 -0.0997,-1.339241 -0.21698,-0.260192 -0.55782,-0.288252 -1.01824,-0.09235 -0.59247,0.252088 -1.07744,0.706248 -1.46816,1.367954 -0.22638,0.386435 -0.43387,0.92891 -0.62465,1.635444"
       id="path5206"
       style="fill:#808080" />
  </g>
</svg>
