<?xml version="1.0" encoding="UTF-8" standalone="no"?>
<!-- Created with Inkscape (http://www.inkscape.org/) -->

<svg
   xmlns:dc="http://purl.org/dc/elements/1.1/"
   xmlns:cc="http://creativecommons.org/ns#"
   xmlns:rdf="http://www.w3.org/1999/02/22-rdf-syntax-ns#"
   xmlns:svg="http://www.w3.org/2000/svg"
   xmlns="http://www.w3.org/2000/svg"
   xmlns:sodipodi="http://sodipodi.sourceforge.net/DTD/sodipodi-0.dtd"
   xmlns:inkscape="http://www.inkscape.org/namespaces/inkscape"
   version="1.1"
   width="156.44119"
   height="169.22659"
   viewBox="0 0 156.44119 169.22659"
   id="svg2"
   inkscape:version="0.48.5 r10040"
   sodipodi:docname="d20_16.svg">
  <sodipodi:namedview
     pagecolor="#ffffff"
     bordercolor="#666666"
     borderopacity="1"
     objecttolerance="10"
     gridtolerance="10"
     guidetolerance="10"
     inkscape:pageopacity="0"
     inkscape:pageshadow="2"
     inkscape:window-width="1680"
     inkscape:window-height="1001"
     id="namedview3424"
     showgrid="false"
     inkscape:zoom="4.6978432"
     inkscape:cx="78.220596"
     inkscape:cy="84.613297"
     inkscape:window-x="0"
     inkscape:window-y="1"
     inkscape:window-maximized="1"
     inkscape:current-layer="svg2" />
  <metadata
     id="metadata21">
    <rdf:RDF>
      <cc:Work
         rdf:about="">
        <dc:format>image/svg+xml</dc:format>
        <dc:type
           rdf:resource="http://purl.org/dc/dcmitype/StillImage" />
        <dc:title />
      </cc:Work>
    </rdf:RDF>
  </metadata>
  <defs
     id="defs19" />
  <g
     transform="translate(-37.3019,-75.296)"
     id="g3036">
    <g
       transform="translate(112.5,150)"
       id="widget">
      <path
         d="M 61.1112,45.8264 4.63537,94.5226 -53.0845,46.7585 z"
         id="path5"
         style="fill:#d3d3d3;fill-opacity:1" />
      <path
         d="m 4.60797,-74.704 5.41843,22.7464 -83.219,19.8238 z"
         id="path7"
         style="fill:#d3d3d3;fill-opacity:1" />
      <path
         d="m 3.44252,-74.704 -5.41846,22.7465 83.21904,19.8237 z"
         id="path9"
         style="fill:#d3d3d3;fill-opacity:1" />
      <path
         d="M -53.4025,46.9333 -75.1981,-32.1548 3.9369,-55.0094 z"
         id="path11"
         style="fill:#f0f0f0;fill-opacity:1" />
      <path
         d="M 62.2343,46.0943 81.1564,-32.4527 3.23229,-55.0429 z"
         id="path13"
         style="fill:#f0f0f0;fill-opacity:1" />
      <path
         d="M -53.5597,46.8415 3.67051,-54.4309 62.579,46.143 z"
         id="path15"
         style="fill:#f8f8f8;fill-opacity:1" />
    </g>
  </g>
  <g
     id="text3045"
     style="font-size:41.2510643px;font-style:normal;font-variant:normal;font-weight:500;font-stretch:normal;line-height:125%;letter-spacing:0px;word-spacing:0px;fill:#000000;fill-opacity:1;stroke:none;font-family:Futura;-inkscape-font-specification:Futura Medium">
    <path
       d="m 65.879851,74.701597 -5.377947,0 2.578192,-4.390983 7.492869,0 0,31.099436 -4.693114,0 0,-26.708453"
       id="path3913" />
    <path
       d="m 92.769581,69.22294 3.444303,2.578191 -7.432443,10.111345 c 0.40283,-0.05369 0.745245,-0.09398 1.027248,-0.120853 0.281976,-0.02684 0.503539,-0.04026 0.66469,-0.04028 2.524463,2e-5 4.706524,0.966841 6.54619,2.900466 1.826196,1.906802 2.739305,4.203001 2.739328,6.888605 -2.3e-5,2.84676 -1.020556,5.290668 -3.061602,7.331732 -2.027659,2.027634 -4.464853,3.041454 -7.31159,3.041454 -2.819907,0 -5.290672,-1.00039 -7.412301,-3.00117 -2.081356,-2.000779 -3.122031,-4.370833 -3.122029,-7.110168 -2e-6,-2.457327 1.013817,-5.062372 3.04146,-7.815143 L 92.769581,69.22294 m 2.417055,22.619602 c -1.9e-5,-1.651643 -0.570712,-3.048162 -1.712081,-4.189561 -1.15483,-1.1548 -2.544635,-1.732207 -4.169419,-1.732223 -1.638237,1.6e-5 -3.028042,0.570709 -4.169419,1.712081 -1.141394,1.141399 -1.712087,2.52449 -1.71208,4.149276 -7e-6,1.624806 0.570686,3.007897 1.71208,4.149277 1.141377,1.141392 2.537896,1.712085 4.189561,1.712081 1.611356,4e-6 2.987732,-0.570689 4.129135,-1.712081 1.154797,-1.154808 1.732204,-2.517757 1.732223,-4.08885"
       id="path3915" />
  </g>
  <g
     transform="matrix(-0.52279318,0.40880675,-0.2856059,-0.47991865,36.054474,67.611254)"
     id="text3612"
     style="font-size:12px;font-style:normal;font-variant:normal;font-weight:500;font-stretch:normal;line-height:125%;letter-spacing:0px;word-spacing:0px;fill:#808080;fill-opacity:1;stroke:none;font-family:Futura;-inkscape-font-specification:Futura Medium">
    <path
       d="m -20.515101,18.989208 c 0,0 1.953083,-6.975093 1.953083,-6.975093 0,0 19.9794997,16.262629 19.9794997,16.262629 C 1.2508722,27.673299 1.1139193,27.152281 1.0079184,26.717897 0.90064372,26.277933 0.82569259,25.929369 0.78392595,25.675097 0.0891384,21.44048 0.88289842,17.601455 3.3162292,14.432835 c 2.5186882,-3.309113 5.8408207,-4.5453823 9.6907778,-3.62387 3.840227,0.919287 6.780245,3.651203 8.781961,7.800878 1.752113,3.632305 2.229394,7.285956 1.633238,10.965075 -0.532708,3.287515 -1.820586,5.874153 -3.838368,7.930053 -1.934252,1.936999 -4.063665,2.870967 -6.514081,2.856868 -2.282051,-0.01313 -4.8668374,-1.020818 -7.9434682,-3.200888 0,0 -25.6414228,-18.171747 -25.6414228,-18.171747 m 33.845747,0.709699 c -2.085072,-0.353447 -3.8628868,0.349429 -5.2509337,2.07958 -1.3645477,1.700972 -1.9196271,3.805368 -1.7056234,6.220309 0.2016439,2.275102 1.0132124,4.134917 2.3778793,5.617708 1.2825418,1.393541 2.7222338,2.094054 4.3446978,2.162211 1.581878,0.06646 2.932447,-0.487197 4.100632,-1.679548 1.194813,-1.219502 1.900429,-2.814574 2.105442,-4.855035 0.212664,-2.116529 -0.198062,-4.111885 -1.295603,-5.975898 -1.189164,-2.019594 -2.755059,-3.243561 -4.676491,-3.569327"
       id="path3617"
       style="fill:#808080" />
  </g>
  <g
     transform="matrix(-0.63452697,0.31146554,-0.27256906,-0.38299855,40.202394,187.10654)"
     id="text3653"
     style="font-size:12px;font-style:normal;font-variant:normal;font-weight:500;font-stretch:normal;line-height:125%;letter-spacing:0px;word-spacing:0px;fill:#808080;fill-opacity:1;stroke:none;font-family:Futura;-inkscape-font-specification:Futura Medium">
    <path
       d="m -83.265786,52.019552 c -2.885055,4.432352 -6.781285,7.447417 -11.672443,8.621747 -4.837163,1.161381 -8.536581,0.202878 -10.736451,-2.883421 -2.12669,-3.027126 -2.09375,-7.026011 -0.13046,-11.630536 1.74287,-4.087305 4.44565,-7.237746 7.939741,-9.568359 3.120325,-2.093336 6.230978,-3.066747 9.419781,-3.07511 3.149157,-0.0082 5.415369,1.134007 6.975991,3.488686 0.889189,-1.348758 2.026474,-2.364287 3.396396,-3.07403 1.306639,-0.689013 2.691818,-1.018935 4.165924,-1.013941 2.4149,0.0082 4.348825,0.788826 5.913599,2.361401 1.590948,1.598908 2.551627,3.760995 2.881404,6.635208 0.367414,3.202254 -0.126332,6.211093 -1.61527,9.012491 -1.653098,3.132939 -4.084018,5.223947 -7.315313,6.045235 -4.563842,1.159993 -7.780616,-0.53635 -9.222899,-4.919371 m -9.669861,0.08087 c 2.133874,-0.359136 4.006009,-1.39937 5.601431,-3.052854 1.524223,-1.579626 2.394718,-3.261731 2.668073,-5.049741 0.258134,-1.688171 -0.09792,-3.033856 -1.052051,-4.086082 -0.944394,-1.041493 -2.225238,-1.518991 -3.887464,-1.438592 -1.714491,0.08297 -3.393543,0.735915 -5.066683,2.01043 -1.773888,1.35135 -3.010679,2.99136 -3.65349,4.932022 -0.677623,2.046029 -0.488362,3.783516 0.606042,5.140806 1.10844,1.374615 2.725739,1.89048 4.784142,1.544011 m 18.765195,-2.330139 c 1.619292,-0.286875 2.948907,-1.205759 3.984296,-2.697414 0.963882,-1.423663 1.373466,-2.962885 1.271901,-4.618738 -0.09623,-1.568945 -0.63088,-2.822705 -1.600029,-3.804595 -0.972246,-0.971872 -2.117056,-1.425495 -3.470402,-1.366333 -1.407092,0.06155 -2.663466,0.648793 -3.781106,1.805933 -1.180478,1.222261 -1.871271,2.720093 -2.027493,4.505406 -0.162574,1.85827 0.311525,3.449933 1.438797,4.715201 1.142141,1.261199 2.554526,1.749246 4.184036,1.46054"
       id="path3658"
       style="fill:#808080" />
  </g>
  <g
     transform="matrix(-0.24533819,-0.73802204,0.46715043,0.05821965,104.07157,66.120417)"
     id="text3698"
     style="font-size:12px;font-style:normal;font-variant:normal;font-weight:500;font-stretch:normal;line-height:125%;letter-spacing:0px;word-spacing:0px;fill:#808080;fill-opacity:1;stroke:none;font-family:Futura;-inkscape-font-specification:Futura Medium">
    <path
       d="m 22.067147,73.166219 c 0,0 -4.278093,-0.452048 -4.278093,-0.452048 -0.365574,-3.318011 -0.897065,-5.781833 -1.586871,-7.172288 -1.291278,-2.631152 -3.104754,-4.201353 -5.398297,-4.557874 -1.8071236,-0.280842 -3.0710117,0.492462 -3.7478071,2.266768 -0.6741664,1.672781 -0.6392552,3.860291 0.044795,6.458999 0.5939905,2.256367 1.3911613,3.935785 2.3890279,5.111848 0.9631522,1.090524 2.3095922,1.930818 4.0274712,2.538506 0,0 1.112786,5.860307 1.112786,5.860307 C 11.707162,82.50368 9.2628068,81.175273 7.2859862,79.142832 5.1251324,76.935427 3.2586109,73.654797 1.6709396,68.982946 -0.18759646,63.513807 -0.71991129,58.555285 0.37573298,54.535549 1.5532975,50.131239 4.2681775,48.200211 8.3231648,49.04024 c 4.4026962,0.912183 8.0286612,4.700592 10.6683912,10.631584 1.621371,-5.937826 4.913105,-8.724253 9.536371,-7.73711 3.635515,0.776359 6.229803,3.729879 7.72519,8.399127 1.319735,4.120889 1.445911,8.561309 0.587591,13.159079 -0.939706,5.033698 -2.666386,8.206893 -5.191699,10.023484 -1.022402,0.727413 -2.357202,1.144434 -4.030189,1.262559 0,0 0.259746,-5.051633 0.259746,-5.051633 1.359851,-0.191996 2.446863,-0.831659 3.28423,-1.946266 0.855249,-1.171 1.422135,-2.814788 1.692079,-5.01122 0.292319,-2.378438 0.03163,-4.553803 -0.837259,-6.478091 -0.9545,-2.052408 -2.355879,-3.27308 -4.181616,-3.564989 -2.464931,-0.394023 -4.228101,0.864092 -5.191638,3.629687 -0.523937,1.533498 -0.708086,3.85772 -0.577215,6.809768"
       id="path3703"
       style="fill:#808080" />
  </g>
  <g
     transform="matrix(0.23207049,-0.16419702,0.25173132,0.16778296,101.53434,3.1490716)"
     id="text3747"
     style="font-size:12px;font-style:normal;font-variant:normal;font-weight:500;font-stretch:normal;line-height:125%;letter-spacing:0px;word-spacing:0px;fill:#808080;fill-opacity:1;stroke:none;font-family:Futura;-inkscape-font-specification:Futura Medium">
    <path
       d="m -61.79195,48.938515 c 0,0 -0.003,5.753738 -0.003,5.753738 0,0 -8.572503,-0.898497 -8.572503,-0.898497 0,0 0.0034,-8.860698 0.0034,-8.860698 0,0 38.462722,-4.559727 38.462722,-4.559727 0,0 -0.0033,3.180827 -0.0033,3.180827 0,0 -29.887188,5.384357 -29.887188,5.384357"
       id="path3757"
       style="fill:#808080"
       inkscape:connector-curvature="0" />
    <path
       d="m -31.144667,29.868711 c 0,0 -1.826468,2.226881 -1.826468,2.226881 0,0 -8.716731,-6.353938 -8.716731,-6.353938 0.05358,0.332248 0.09366,0.613498 0.120307,0.844032 0.02659,0.230333 0.03988,0.415689 0.03975,0.556162 -0.0018,2.020718 -0.976859,3.718065 -3.021129,5.15977 -2.167129,1.527885 -4.977867,2.340448 -8.581883,2.360663 -4.274929,0.02398 -8.34562,-1.034422 -12.06365,-3.324751 -4.103493,-2.527829 -6.307246,-5.591708 -6.306086,-9.003961 0.0013,-3.396512 2.179207,-5.914682 6.23645,-7.442285 3.680481,-1.400565 7.636726,-1.455408 11.746555,-0.349284 3.295352,0.886957 6.537538,2.654574 9.701445,5.1686 0,0 12.671449,10.158112 12.671449,10.158112 m -22.469851,0.391729 c 2.325453,0.126632 4.168181,-0.291607 5.591787,-1.219281 1.38205,-0.900552 2.052729,-2.038397 2.05384,-3.44083 0.0012,-1.402475 -0.659751,-2.709739 -2.02355,-3.959159 -1.438158,-1.317548 -3.25278,-2.221731 -5.499343,-2.691362 -2.39339,-0.500283 -4.568752,-0.364645 -6.474245,0.461094 -1.977139,0.856874 -3.003398,2.191543 -3.004354,3.971671 -8.42e-4,1.750878 1.023813,3.340871 2.999473,4.718134 1.903923,1.327219 4.037469,2.033469 6.356392,2.159733"
       id="path3759"
       style="fill:#808080"
       inkscape:connector-curvature="0" />
  </g>
  <g
     transform="matrix(-0.35774347,0.23195284,-0.08584706,-0.15742899,67.195859,19.698858)"
     id="text3612-7"
     style="font-size:12px;font-style:normal;font-variant:normal;font-weight:500;font-stretch:normal;line-height:125%;letter-spacing:0px;word-spacing:0px;fill:#808080;fill-opacity:1;stroke:none;font-family:Futura;-inkscape-font-specification:Futura Medium">
    <path
       d="m -20.515101,18.989208 c 0,0 1.953083,-6.975093 1.953083,-6.975093 0,0 19.9794997,16.262629 19.9794997,16.262629 C 1.2508722,27.673299 1.1139193,27.152281 1.0079184,26.717897 0.90064372,26.277933 0.82569259,25.929369 0.78392595,25.675097 0.0891384,21.44048 0.88289842,17.601455 3.3162292,14.432835 c 2.5186882,-3.309113 5.8408207,-4.5453823 9.6907778,-3.62387 3.840227,0.919287 6.780245,3.651203 8.781961,7.800878 1.752113,3.632305 2.229394,7.285956 1.633238,10.965075 -0.532708,3.287515 -1.820586,5.874153 -3.838368,7.930053 -1.934252,1.936999 -4.063665,2.870967 -6.514081,2.856868 -2.282051,-0.01313 -4.8668374,-1.020818 -7.9434682,-3.200888 0,0 -25.6414228,-18.171747 -25.6414228,-18.171747 m 33.845747,0.709699 c -2.085072,-0.353447 -3.8628868,0.349429 -5.2509337,2.07958 -1.3645477,1.700972 -1.9196271,3.805368 -1.7056234,6.220309 0.2016439,2.275102 1.0132124,4.134917 2.3778793,5.617708 1.2825418,1.393541 2.7222338,2.094054 4.3446978,2.162211 1.581878,0.06646 2.932447,-0.487197 4.100632,-1.679548 1.194813,-1.219502 1.900429,-2.814574 2.105442,-4.855035 0.212664,-2.116529 -0.198062,-4.111885 -1.295603,-5.975898 -1.189164,-2.019594 -2.755059,-3.243561 -4.676491,-3.569327"
       id="path3617-1"
       style="fill:#808080" />
  </g>
</svg>
