<?xml version="1.0" encoding="UTF-8" standalone="no"?>
<!-- Created with Inkscape (http://www.inkscape.org/) -->

<svg
   xmlns:dc="http://purl.org/dc/elements/1.1/"
   xmlns:cc="http://creativecommons.org/ns#"
   xmlns:rdf="http://www.w3.org/1999/02/22-rdf-syntax-ns#"
   xmlns:svg="http://www.w3.org/2000/svg"
   xmlns="http://www.w3.org/2000/svg"
   xmlns:sodipodi="http://sodipodi.sourceforge.net/DTD/sodipodi-0.dtd"
   xmlns:inkscape="http://www.inkscape.org/namespaces/inkscape"
   version="1.1"
   width="156.44119"
   height="169.22659"
   viewBox="0 0 156.44119 169.22659"
   id="svg2"
   inkscape:version="0.48.5 r10040"
   sodipodi:docname="d20_15.svg">
  <sodipodi:namedview
     pagecolor="#ffffff"
     bordercolor="#666666"
     borderopacity="1"
     objecttolerance="10"
     gridtolerance="10"
     guidetolerance="10"
     inkscape:pageopacity="0"
     inkscape:pageshadow="2"
     inkscape:window-width="1680"
     inkscape:window-height="1001"
     id="namedview3397"
     showgrid="false"
     inkscape:zoom="4.6978432"
     inkscape:cx="78.220596"
     inkscape:cy="84.613297"
     inkscape:window-x="0"
     inkscape:window-y="1"
     inkscape:window-maximized="1"
     inkscape:current-layer="svg2" />
  <metadata
     id="metadata21">
    <rdf:RDF>
      <cc:Work
         rdf:about="">
        <dc:format>image/svg+xml</dc:format>
        <dc:type
           rdf:resource="http://purl.org/dc/dcmitype/StillImage" />
        <dc:title />
      </cc:Work>
    </rdf:RDF>
  </metadata>
  <defs
     id="defs19" />
  <g
     transform="translate(-37.3019,-75.296)"
     id="g3036">
    <g
       transform="translate(112.5,150)"
       id="widget">
      <path
         d="M 61.1112,45.8264 4.63537,94.5226 -53.0845,46.7585 z"
         id="path5"
         style="fill:#d3d3d3;fill-opacity:1" />
      <path
         d="m 4.60797,-74.704 5.41843,22.7464 -83.219,19.8238 z"
         id="path7"
         style="fill:#d3d3d3;fill-opacity:1" />
      <path
         d="m 3.44252,-74.704 -5.41846,22.7465 83.21904,19.8237 z"
         id="path9"
         style="fill:#d3d3d3;fill-opacity:1" />
      <path
         d="M -53.4025,46.9333 -75.1981,-32.1548 3.9369,-55.0094 z"
         id="path11"
         style="fill:#f0f0f0;fill-opacity:1" />
      <path
         d="M 62.2343,46.0943 81.1564,-32.4527 3.23229,-55.0429 z"
         id="path13"
         style="fill:#f0f0f0;fill-opacity:1" />
      <path
         d="M -53.5597,46.8415 3.67051,-54.4309 62.579,46.143 z"
         id="path15"
         style="fill:#f8f8f8;fill-opacity:1" />
    </g>
  </g>
  <g
     id="text3045"
     style="font-size:41.2510643px;font-style:normal;font-variant:normal;font-weight:500;font-stretch:normal;line-height:125%;letter-spacing:0px;word-spacing:0px;fill:#000000;fill-opacity:1;stroke:none;font-family:Futura;-inkscape-font-specification:Futura Medium">
    <path
       d="m 65.879851,74.701597 -5.377947,0 2.578192,-4.390983 7.492869,0 0,31.099436 -4.693114,0 0,-26.708453"
       id="path3005" />
    <path
       d="m 98.63094,74.701597 -9.587649,0 -1.530802,5.156383 c 0.228267,-0.02683 0.443116,-0.04698 0.644548,-0.06043 0.214838,-0.01341 0.409545,-0.02012 0.584122,-0.02014 3.021303,2.2e-5 5.498782,1.020555 7.432443,3.061603 1.94705,2.027656 2.920585,4.625987 2.920607,7.795001 -2.2e-5,3.276459 -1.101124,5.9755 -3.303308,8.097132 -2.202222,2.121634 -4.975118,3.182454 -8.318696,3.182454 -4.122427,0 -7.372019,-1.933641 -9.748787,-5.800929 l 3.545014,-3.001177 c 0.980244,1.665089 1.967207,2.840045 2.960892,3.524872 0.993669,0.671408 2.208909,1.00711 3.645724,1.007106 1.879918,4e-6 3.457716,-0.657972 4.733398,-1.973928 1.275651,-1.356229 1.913484,-3.001167 1.913502,-4.93482 -1.8e-5,-1.987343 -0.631137,-3.612139 -1.89336,-4.874393 -1.262254,-1.302507 -2.840052,-1.953768 -4.733398,-1.953786 -2.108218,1.8e-5 -3.927721,0.91984 -5.458515,2.759471 l -1.550943,0 4.894535,-16.355403 12.850673,0 0,4.390983"
       id="path3007" />
  </g>
  <g
     transform="matrix(-0.51513332,0.47711503,-0.19760819,-0.70511691,40.499962,59.220854)"
     id="text3023"
     style="font-size:12px;font-style:normal;font-variant:normal;font-weight:500;font-stretch:normal;line-height:125%;letter-spacing:0px;word-spacing:0px;fill:#808080;fill-opacity:1;stroke:none;font-family:Futura;-inkscape-font-specification:Futura Medium">
    <path
       d="m 6.9745169,0.89301872 c 0,0 4.0102221,17.41863728 4.0102221,17.41863728 0,0 6.500338,2.474902 6.500338,2.474902 -0.07242,-0.302275 -0.135437,-0.589107 -0.188739,-0.859974 -0.05627,-0.291345 -0.101588,-0.557234 -0.135365,-0.797026 -0.6255,-4.440867 0.133559,-8.407983 2.450008,-11.5939614 2.45369,-3.4313617 5.89806,-4.9161513 10.069029,-4.2949248 4.132142,0.6155405 7.143692,3.1523115 8.984506,7.2299862 1.633986,3.619583 1.92455,7.518948 1.088046,11.593356 -0.90312,4.398844 -3.096491,7.439873 -6.559577,9.495511 0,0 -2.229384,-3.248402 -2.229384,-3.248402 1.556375,-0.927552 2.706847,-1.891775 3.445776,-2.900978 0.747705,-1.038299 1.244722,-2.370763 1.484103,-4.03868 0.333009,-2.320233 -0.03334,-4.453879 -1.171428,-6.364929 -1.260745,-2.047185 -3.014701,-3.240815 -5.232784,-3.476468 -2.333585,-0.247854 -4.2641,0.586983 -5.705261,2.451977 -1.432153,1.788856 -2.031733,4.009042 -1.850331,6.559777 0.186687,2.624501 1.262316,4.758206 3.131788,6.459039 0,0 0.04076,1.571915 0.04076,1.571915 0,0 -18.3002774,-6.083346 -18.3002774,-6.083346 0,0 -7.03969742,-22.63577092 -7.03969742,-22.63577092 0,0 7.20803642,1.03932657 7.20803642,1.03932657"
       id="path3028"
       style="fill:#808080" />
  </g>
  <g
     transform="matrix(0.08354197,-0.87536722,0.84873075,0.0904299,117.71239,61.787222)"
     id="text3062"
     style="font-size:12px;font-style:normal;font-variant:normal;font-weight:500;font-stretch:normal;line-height:125%;letter-spacing:0px;word-spacing:0px;fill:#808080;fill-opacity:1;stroke:none;font-family:Futura;-inkscape-font-specification:Futura Medium">
    <path
       d="m -2.0353388,26.778622 c 0,0 0.445412,4.400756 0.445412,4.400756 0,0 -4.2611007,-1.962201 -4.2611007,-1.962201 0,0 -0.8009637,-6.451046 -0.8009637,-6.451046 0,0 26.9675232,-0.08137 26.9675232,-0.08137 0,0 -0.08324,3.650098 -0.08324,3.650098 0,0 -22.2676338,0.443761 -22.2676338,0.443761"
       id="path3067"
       style="fill:#808080" />
    <path
       d="m 16.918937,8.1680797 c 0,0 0.04585,-11.5051142 0.04585,-11.5051142 0,0 3.933756,0.4555322 3.933756,0.4555322 0,0 -0.444831,19.5066913 -0.444831,19.5066913 0,0 -11.2816047,-10.4068497 -11.2816047,-10.4068497 C 7.9152499,5.0733645 6.8064661,4.0949088 5.8552384,3.2923355 4.8886675,2.4634679 4.0705818,1.8190446 3.4076099,1.365552 2.0889842,0.43377883 0.90664686,-0.08706926 -0.12740336,-0.18436302 -1.6324621,-0.32592826 -2.8567286,0.11626172 -3.7842169,1.1418416 c -0.9253586,1.0233229 -1.3024667,2.3446367 -1.1348904,3.9464458 0.3418005,3.2663328 2.409992,5.1820406 6.1123329,5.8090216 0,0 0.3403784,4.451853 0.3403784,4.451853 C -4.9076949,14.445365 -8.6518652,11.047086 -9.4295294,4.9216631 -9.8227021,1.8243673 -9.159027,-0.75510647 -7.4231938,-2.7518291 -5.6806235,-4.7736219 -3.356338,-5.6207959 -0.50849766,-5.291863 1.2687939,-5.0865433 3.016535,-4.3829495 4.7239392,-3.2000699 5.5964481,-2.6080917 6.6277921,-1.7746001 7.8087578,-0.70965664 8.954187,0.3199693 10.287527,1.5913597 11.794319,3.0886449 c 0,0 5.124618,5.0794348 5.124618,5.0794348"
       id="path3069"
       style="fill:#808080" />
  </g>
  <g
     transform="matrix(-0.65792708,0.2536717,-0.44844521,-0.37216918,11.590488,177.67244)"
     id="text3109"
     style="font-size:12px;font-style:normal;font-variant:normal;font-weight:500;font-stretch:normal;line-height:125%;letter-spacing:0px;word-spacing:0px;fill:#808080;fill-opacity:1;stroke:none;font-family:Futura;-inkscape-font-specification:Futura Medium">
    <path
       d="m -123.1862,10.17075 c 0,0 -7.48188,26.74275 -7.48188,26.74275 0,0 -7.18827,2.483088 -7.18827,2.483088 0,0 12.36752,-39.00052505 12.36752,-39.00052505 0,0 31.324575,18.62845405 31.324575,18.62845405 0,0 -2.984074,6.561277 -2.984074,6.561277 0,0 -26.037871,-15.415044 -26.037871,-15.415044"
       id="path3114"
       inkscape:connector-curvature="0"
       style="fill:#808080" />
  </g>
  <g
     transform="matrix(0.65965738,-0.16427651,-0.17665026,0.22571283,135.43211,-11.946022)"
     id="text3158"
     style="font-size:12px;font-style:normal;font-variant:normal;font-weight:500;font-stretch:normal;line-height:125%;letter-spacing:0px;word-spacing:0px;fill:#808080;fill-opacity:1;stroke:none;font-family:Futura;-inkscape-font-specification:Futura Medium">
    <path
       d="m -106.17811,60.16229 c 0,0 -0.09,6.170975 -0.09,6.170975 0,0 -5.35333,-3.029517 -5.35333,-3.029517 0,0 0.36409,-8.312649 0.36409,-8.312649 0,0 34.254467,0.719468 34.254467,0.719468 0,0 0.712828,4.759966 0.712828,4.759966 0,0 -29.888075,-0.308243 -29.888075,-0.308243"
       id="path3163"
       style="fill:#808080" />
    <path
       d="m -94.869551,42.357889 c -1.568194,1.956182 -3.84072,2.895658 -6.807519,2.769707 -2.72734,-0.115779 -5.01404,-1.017556 -6.82057,-2.689803 -1.78536,-1.665164 -2.61627,-3.632721 -2.51045,-5.869243 0.10244,-2.163807 1.06094,-3.862945 2.8435,-5.117569 1.72514,-1.224569 3.83387,-1.731128 6.33782,-1.543687 2.594275,0.194235 4.727943,1.21514 6.442667,3.086373 0.592722,-0.92357 1.482246,-1.607273 2.664332,-2.05748 1.16684,-0.454704 2.491859,-0.623283 3.978578,-0.510496 2.517622,0.191043 4.644777,1.011185 6.416076,2.473413 1.789976,1.47767 2.858247,3.311071 3.197661,5.534557 0.357605,2.34265 -0.182879,4.284933 -1.658912,5.805422 -1.515266,1.574416 -3.628858,2.323315 -6.333069,2.212711 -3.564208,-0.14577 -6.171219,-1.526621 -7.750114,-4.093905 m -6.872909,-1.210504 c 1.38995,0.0708 2.538441,-0.263497 3.442333,-0.995049 0.90497,-0.732371 1.33048,-1.639421 1.286236,-2.717624 -0.04316,-1.052735 -0.532266,-1.973609 -1.463853,-2.769737 -0.926411,-0.791709 -2.020146,-1.22865 -3.290176,-1.314438 -1.27689,-0.08622 -2.37936,0.206079 -3.31153,0.884048 -0.94478,0.687206 -1.43205,1.564075 -1.45237,2.634406 -0.0206,1.085028 0.44376,2.054376 1.39728,2.900524 0.95913,0.851096 2.09302,1.311721 3.39208,1.37787 m 14.064744,1.216526 c 1.417855,0.07066 2.581897,-0.294623 3.488617,-1.086654 0.879202,-0.79233 1.238109,-1.777355 1.088046,-2.950807 -0.146509,-1.145711 -0.739562,-2.140999 -1.776116,-2.994348 -1.042947,-0.849132 -2.226463,-1.31719 -3.560968,-1.408291 -1.355042,-0.09247 -2.481907,0.222162 -3.384219,0.952138 -0.915409,0.740624 -1.340275,1.691883 -1.263738,2.858453 0.07697,1.172698 0.646765,2.224804 1.713627,3.14771 1.072775,0.917239 2.308152,1.412716 3.694751,1.481799"
       id="path3165"
       style="fill:#808080" />
  </g>
  <g
     transform="matrix(0.1228416,-0.0899971,0.35249416,0.19777047,90.445455,-7.0094986)"
     id="text3215"
     style="font-size:12px;font-style:normal;font-variant:normal;font-weight:500;font-stretch:normal;line-height:125%;letter-spacing:0px;word-spacing:0px;fill:#808080;fill-opacity:1;stroke:none;font-family:Futura;-inkscape-font-specification:Futura Medium">
    <path
       d="m -107.06235,69.575104 c 0,0 -1.96608,-19.396433 -1.96608,-19.396433 0,0 5.04016,-0.0074 5.04016,-0.0074 0,0 5.477787,39.514825 5.477787,39.514825 0,0 -19.957507,-22.883938 -19.957507,-22.883938 -1.70718,-1.931169 -3.15071,-3.507456 -4.34759,-4.749538 -1.17694,-1.24448 -2.14964,-2.175329 -2.9278,-2.804058 -1.50314,-1.263429 -2.85266,-1.885787 -4.06818,-1.883414 -1.75065,0.0035 -3.27829,0.841435 -4.60596,2.543811 -1.35972,1.743601 -2.17528,3.957119 -2.42862,6.68148 -0.56029,6.026394 1.64317,9.689545 6.68626,10.630882 0,0 -0.48008,10.505015 -0.48008,10.505015 -9.42134,-1.743108 -13.21858,-9.157073 -11.70863,-20.860835 0.65439,-5.071797 2.26123,-9.074561 4.76851,-12.154515 2.40278,-2.969367 5.09184,-4.409237 8.14237,-4.413757 1.94059,-0.0028 3.82814,0.658291 5.68993,2.00274 0.98387,0.692363 2.16962,1.723595 3.57034,3.108735 1.41197,1.391197 3.12772,3.196998 5.17299,5.448123 0,0 7.9421,8.718254 7.9421,8.718254"
       id="path3220"
       style="fill:#808080" />
  </g>
</svg>
